<svg xmlns="http://www.w3.org/2000/svg" viewBox="0 0 1400 680" role="img" aria-label="Embedded sprint  —  the week has a shape">
  <rect width="1400" height="680" fill="#FFFFFF"/>
  <text x="700.0" y="48" font-family='"Caveat", "Indie Flower", "Comic Sans MS", "Marker Felt", "Bradley Hand", sans-serif' font-size="28" font-weight="700" fill="#1F2937" text-anchor="middle">Embedded sprint  —  the week has a shape</text>
  <text x="700.0" y="76" font-family='"Caveat", "Indie Flower", "Comic Sans MS", "Marker Felt", "Bradley Hand", sans-serif' font-size="15" font-weight="500" fill="#6B7280" text-anchor="middle">Ship-with-not-for, time-boxed, debriefed in writing.</text>

  <rect x="80.0" y="130.0" width="240.0" height="460.0" fill="#6B7280" fill-opacity="0.03" stroke="none"/>
  <path d="M 80.0,130.0 L 103.6,129.0 L 128.8,130.0 L 152.1,130.9 L 174.6,129.8 L 200.4,129.3 L 224.5,129.6 L 249.1,130.3 L 270.9,128.7 L 294.8,130.8 L 320.2,130.5" fill="none" stroke="#1F2937" stroke-width="1.6" stroke-linecap="round" stroke-linejoin="round"/>
  <path d="M 80.0,130.0 L 104.7,130.6 L 128.5,130.4 L 150.6,130.0 L 177.1,129.5 L 201.5,130.5 L 223.5,130.5 L 247.7,129.3 L 273.0,131.0 L 294.5,130.0 L 319.9,129.6" fill="none" stroke="#1F2937" stroke-width="1.6" stroke-linecap="round" stroke-linejoin="round"/>
  <path d="M 320.0,130.0 L 319.0,154.0 L 319.9,175.8 L 320.4,199.1 L 320.9,221.7 L 319.6,246.2 L 319.6,269.2 L 319.3,290.3 L 318.8,312.7 L 321.3,337.9 L 320.3,360.4 L 318.9,383.7 L 319.6,407.0 L 319.0,427.7 L 319.3,450.8 L 319.5,474.1 L 320.1,497.4 L 321.5,520.8 L 320.5,543.6 L 319.1,568.4 L 319.6,589.6" fill="none" stroke="#1F2937" stroke-width="1.6" stroke-linecap="round" stroke-linejoin="round"/>
  <path d="M 320.0,130.0 L 320.4,152.5 L 318.5,177.3 L 319.2,200.1 L 319.9,222.2 L 320.5,244.8 L 319.7,269.4 L 319.7,290.3 L 320.2,313.7 L 321.4,337.7 L 319.0,360.4 L 321.4,384.0 L 320.4,406.2 L 321.1,430.0 L 321.4,452.4 L 319.7,474.9 L 321.1,497.0 L 320.4,521.2 L 319.5,544.2 L 321.3,567.4 L 320.2,590.2" fill="none" stroke="#1F2937" stroke-width="1.6" stroke-linecap="round" stroke-linejoin="round"/>
  <path d="M 320.0,590.0 L 295.3,590.3 L 271.2,591.1 L 247.4,588.8 L 223.7,589.7 L 201.1,590.2 L 177.0,588.7 L 152.3,589.1 L 128.6,590.9 L 103.5,590.4 L 80.7,590.5" fill="none" stroke="#1F2937" stroke-width="1.6" stroke-linecap="round" stroke-linejoin="round"/>
  <path d="M 320.0,590.0 L 295.4,589.3 L 272.0,589.5 L 247.6,589.8 L 222.8,591.2 L 201.3,591.2 L 174.6,588.8 L 152.7,589.8 L 128.0,590.1 L 102.7,590.3 L 80.6,590.1" fill="none" stroke="#1F2937" stroke-width="1.6" stroke-linecap="round" stroke-linejoin="round"/>
  <path d="M 80.0,590.0 L 80.4,566.1 L 79.4,543.5 L 80.0,522.1 L 81.2,498.8 L 78.9,476.0 L 79.9,451.3 L 80.8,428.9 L 80.9,406.3 L 80.8,383.6 L 80.1,359.5 L 80.1,337.7 L 78.7,313.0 L 79.8,289.6 L 79.2,267.3 L 79.0,246.2 L 78.6,223.3 L 78.6,200.5 L 80.3,176.5 L 78.9,152.6 L 79.9,130.3" fill="none" stroke="#1F2937" stroke-width="1.6" stroke-linecap="round" stroke-linejoin="round"/>
  <path d="M 80.0,590.0 L 80.2,568.0 L 80.3,544.1 L 81.2,521.1 L 79.6,498.8 L 79.7,475.6 L 79.5,451.5 L 79.6,428.5 L 78.6,406.5 L 80.1,383.2 L 79.4,359.3 L 80.2,336.0 L 80.9,314.0 L 80.2,290.9 L 79.1,267.8 L 80.8,244.0 L 80.6,222.1 L 81.0,197.8 L 79.5,176.4 L 80.9,152.3 L 79.8,129.3" fill="none" stroke="#1F2937" stroke-width="1.6" stroke-linecap="round" stroke-linejoin="round"/>
  <text x="200.0" y="156" font-family='"Caveat", "Indie Flower", "Comic Sans MS", "Marker Felt", "Bradley Hand", sans-serif' font-size="15" font-weight="700" fill="#1F2937" text-anchor="middle">MONDAY</text>
  <text x="200.0" y="180" font-family='"Caveat", "Indie Flower", "Comic Sans MS", "Marker Felt", "Bradley Hand", sans-serif' font-size="14" font-weight="600" fill="#1F2937" text-anchor="middle">Arrival</text>
  <path d="M 212.4,233.2 L 211.9,235.2 L 211.3,237.4 L 209.2,238.5 L 208.1,240.2 L 207.1,242.3 L 205.0,242.9 L 203.0,243.3 L 201.0,244.1 L 198.9,244.3 L 196.5,244.7 L 195.3,241.9 L 192.5,242.7 L 192.3,239.6 L 189.4,239.3 L 188.7,237.2 L 189.5,234.8 L 187.7,233.0 L 187.2,230.8 L 188.4,228.8 L 188.1,226.4 L 190.8,225.5 L 192.2,224.1 L 192.8,221.6 L 194.5,220.1 L 196.7,219.3 L 199.1,220.8 L 201.0,220.8 L 203.4,219.7 L 205.6,220.2 L 207.6,221.3 L 209.2,222.9 L 210.7,224.6 L 211.4,226.7 L 212.4,228.8 L 212.9,230.9 L 212.4,233.1" fill="none" stroke="#1F2937" stroke-width="1.6" stroke-linecap="round" stroke-linejoin="round"/>
  <path d="M 212.1,235.0 L 210.0,236.5 L 209.1,238.2 L 208.9,240.6 L 207.4,242.2 L 205.1,242.4 L 203.2,243.1 L 201.4,245.0 L 199.1,245.0 L 196.9,244.5 L 195.3,242.5 L 193.1,242.2 L 192.3,239.9 L 190.1,239.2 L 188.2,237.7 L 189.6,235.0 L 188.2,233.2 L 189.0,231.2 L 188.7,229.2 L 189.2,227.2 L 190.9,225.9 L 191.1,223.4 L 193.5,223.0 L 195.1,222.0 L 196.6,219.9 L 198.7,219.3 L 200.9,218.9 L 202.9,220.4 L 205.1,220.5 L 206.5,222.4 L 207.9,223.9 L 210.2,224.6 L 211.4,226.5 L 211.5,228.7 L 211.3,230.8 L 210.9,232.8 L 212.1,235.0" fill="none" stroke="#1F2937" stroke-width="1.6" stroke-linecap="round" stroke-linejoin="round"/>
  <path d="M 200.0,244.0 L 198.6,251.6 L 200.1,260.2 L 200.3,269.3 L 199.1,277.3" fill="none" stroke="#1F2937" stroke-width="1.6" stroke-linecap="round" stroke-linejoin="round"/>
  <path d="M 200.0,244.0 L 198.6,250.5 L 200.1,261.2 L 199.9,267.7 L 199.4,278.2" fill="none" stroke="#1F2937" stroke-width="1.6" stroke-linecap="round" stroke-linejoin="round"/>
  <path d="M 200.0,252.0 L 195.9,256.9 L 193.7,259.6 L 187.3,261.2 L 184.3,265.8" fill="none" stroke="#1F2937" stroke-width="1.6" stroke-linecap="round" stroke-linejoin="round"/>
  <path d="M 200.0,252.0 L 194.2,255.6 L 193.3,259.1 L 186.9,261.7 L 183.8,265.1" fill="none" stroke="#1F2937" stroke-width="1.6" stroke-linecap="round" stroke-linejoin="round"/>
  <path d="M 200.0,252.0 L 203.5,253.8 L 207.0,257.0 L 211.7,261.6 L 216.8,266.0" fill="none" stroke="#1F2937" stroke-width="1.6" stroke-linecap="round" stroke-linejoin="round"/>
  <path d="M 200.0,252.0 L 202.5,257.0 L 209.3,260.3 L 212.9,262.8 L 215.1,265.0" fill="none" stroke="#1F2937" stroke-width="1.6" stroke-linecap="round" stroke-linejoin="round"/>
  <path d="M 200.0,278.0 L 197.7,283.1 L 194.5,288.9 L 190.8,293.5 L 189.0,300.0" fill="none" stroke="#1F2937" stroke-width="1.6" stroke-linecap="round" stroke-linejoin="round"/>
  <path d="M 200.0,278.0 L 198.8,284.7 L 194.0,289.5 L 190.6,296.5 L 188.7,300.1" fill="none" stroke="#1F2937" stroke-width="1.6" stroke-linecap="round" stroke-linejoin="round"/>
  <path d="M 200.0,278.0 L 203.9,283.6 L 207.2,288.0 L 209.2,293.6 L 211.6,299.3" fill="none" stroke="#1F2937" stroke-width="1.6" stroke-linecap="round" stroke-linejoin="round"/>
  <path d="M 200.0,278.0 L 203.5,283.8 L 205.2,289.5 L 210.7,296.0 L 211.2,300.3" fill="none" stroke="#1F2937" stroke-width="1.6" stroke-linecap="round" stroke-linejoin="round"/>
  <path d="M 110.0,320.0 L 131.6,318.7 L 154.9,320.9 L 177.8,319.7 L 199.0,320.5 L 221.4,320.8 L 245.0,318.6 L 266.9,319.4 L 289.8,320.5" fill="none" stroke="#1F2937" stroke-width="1.5" stroke-linecap="round" stroke-linejoin="round"/>
  <path d="M 110.0,320.0 L 131.6,318.6 L 156.5,319.0 L 179.0,319.1 L 198.6,319.1 L 223.1,320.9 L 245.9,319.8 L 267.3,318.5 L 290.4,320.1" fill="none" stroke="#1F2937" stroke-width="1.5" stroke-linecap="round" stroke-linejoin="round"/>
  <path d="M 290.0,320.0 L 289.7,333.7 L 289.0,350.7 L 289.8,363.7 L 290.6,380.2" fill="none" stroke="#1F2937" stroke-width="1.5" stroke-linecap="round" stroke-linejoin="round"/>
  <path d="M 290.0,320.0 L 291.0,334.2 L 288.7,349.1 L 289.5,366.2 L 289.3,379.4" fill="none" stroke="#1F2937" stroke-width="1.5" stroke-linecap="round" stroke-linejoin="round"/>
  <path d="M 290.0,380.0 L 268.5,378.8 L 245.0,378.6 L 223.2,379.0 L 200.2,381.3 L 177.3,380.1 L 153.6,378.9 L 131.4,380.3 L 109.4,379.4" fill="none" stroke="#1F2937" stroke-width="1.5" stroke-linecap="round" stroke-linejoin="round"/>
  <path d="M 290.0,380.0 L 266.8,381.0 L 246.3,379.4 L 221.7,380.1 L 201.4,380.7 L 176.9,379.3 L 155.6,379.4 L 131.5,379.5 L 109.9,380.6" fill="none" stroke="#1F2937" stroke-width="1.5" stroke-linecap="round" stroke-linejoin="round"/>
  <path d="M 110.0,380.0 L 109.3,365.0 L 110.1,350.0 L 108.5,335.9 L 110.6,319.3" fill="none" stroke="#1F2937" stroke-width="1.5" stroke-linecap="round" stroke-linejoin="round"/>
  <path d="M 110.0,380.0 L 110.3,364.5 L 108.8,349.4 L 110.5,335.8 L 110.4,320.7" fill="none" stroke="#1F2937" stroke-width="1.5" stroke-linecap="round" stroke-linejoin="round"/>
  <text x="120" y="340" font-family='"Caveat", "Indie Flower", "Comic Sans MS", "Marker Felt", "Bradley Hand", sans-serif' font-size="13" font-weight="500" fill="#1F2937" text-anchor="start">reading CLAUDE.md...</text>
  <text x="200.0" y="460" font-family='"Caveat", "Indie Flower", "Comic Sans MS", "Marker Felt", "Bradley Hand", sans-serif' font-size="12" font-weight="500" fill="#6B7280" text-anchor="middle">read the POD's</text>
  <text x="200.0" y="478" font-family='"Caveat", "Indie Flower", "Comic Sans MS", "Marker Felt", "Bradley Hand", sans-serif' font-size="12" font-weight="500" fill="#6B7280" text-anchor="middle">CLAUDE.md</text>
  <text x="200.0" y="496" font-family='"Caveat", "Indie Flower", "Comic Sans MS", "Marker Felt", "Bradley Hand", sans-serif' font-size="12" font-weight="500" fill="#6B7280" text-anchor="middle">+ sit in standup</text>
  <rect x="340.0" y="130.0" width="240.0" height="460.0" fill="#6B7280" fill-opacity="0.03" stroke="none"/>
  <path d="M 340.0,130.0 L 364.5,130.5 L 388.0,130.3 L 412.5,130.4 L 437.1,128.9 L 460.7,130.4 L 484.6,131.3 L 507.7,129.6 L 532.7,129.3 L 556.6,129.6 L 579.8,130.6" fill="none" stroke="#1F2937" stroke-width="1.6" stroke-linecap="round" stroke-linejoin="round"/>
  <path d="M 340.0,130.0 L 364.6,129.0 L 388.8,129.1 L 413.0,130.8 L 436.5,129.3 L 460.2,130.3 L 485.0,131.1 L 509.4,130.3 L 532.3,128.6 L 555.6,128.8 L 580.5,130.3" fill="none" stroke="#1F2937" stroke-width="1.6" stroke-linecap="round" stroke-linejoin="round"/>
  <path d="M 580.0,130.0 L 579.3,151.6 L 579.7,175.7 L 581.0,198.2 L 578.9,223.5 L 580.9,243.9 L 579.3,266.6 L 580.2,289.9 L 579.1,315.3 L 579.5,337.2 L 580.6,359.2 L 580.4,382.3 L 581.3,407.1 L 581.0,427.5 L 579.4,450.9 L 578.7,474.0 L 580.6,499.4 L 580.7,520.7 L 580.4,545.0 L 579.8,568.1 L 580.4,590.0" fill="none" stroke="#1F2937" stroke-width="1.6" stroke-linecap="round" stroke-linejoin="round"/>
  <path d="M 580.0,130.0 L 579.8,153.1 L 581.1,176.0 L 580.3,199.3 L 579.9,221.5 L 578.7,246.2 L 579.6,267.4 L 579.5,290.0 L 581.3,315.2 L 580.4,337.1 L 578.6,360.2 L 578.8,384.0 L 579.5,406.4 L 580.3,428.1 L 580.1,453.2 L 580.0,474.9 L 580.8,497.2 L 580.5,521.3 L 578.9,545.5 L 579.6,565.7 L 580.4,589.6" fill="none" stroke="#1F2937" stroke-width="1.6" stroke-linecap="round" stroke-linejoin="round"/>
  <path d="M 580.0,590.0 L 556.9,591.4 L 530.7,588.9 L 507.3,590.4 L 484.1,589.7 L 460.8,590.7 L 434.9,590.7 L 413.1,588.6 L 387.2,588.9 L 363.7,589.6 L 340.2,589.9" fill="none" stroke="#1F2937" stroke-width="1.6" stroke-linecap="round" stroke-linejoin="round"/>
  <path d="M 580.0,590.0 L 555.1,591.5 L 532.3,591.2 L 508.4,589.4 L 484.7,590.4 L 459.5,590.2 L 435.7,588.9 L 411.3,590.4 L 389.3,588.6 L 364.9,589.0 L 340.1,590.1" fill="none" stroke="#1F2937" stroke-width="1.6" stroke-linecap="round" stroke-linejoin="round"/>
  <path d="M 340.0,590.0 L 338.8,566.4 L 338.5,544.0 L 341.3,520.0 L 340.5,497.5 L 340.1,476.5 L 339.7,453.0 L 340.2,428.6 L 341.3,405.2 L 339.3,384.2 L 341.1,359.0 L 339.8,337.6 L 341.0,313.6 L 341.3,289.8 L 338.8,268.1 L 341.4,243.6 L 340.4,221.8 L 340.1,199.4 L 341.2,176.3 L 340.1,153.3 L 340.2,130.4" fill="none" stroke="#1F2937" stroke-width="1.6" stroke-linecap="round" stroke-linejoin="round"/>
  <path d="M 340.0,590.0 L 340.3,567.8 L 341.1,545.2 L 339.8,521.1 L 339.8,497.8 L 341.4,474.2 L 340.2,451.2 L 341.4,428.1 L 341.0,405.1 L 338.7,383.1 L 339.0,360.3 L 339.7,336.1 L 340.1,314.2 L 341.0,291.0 L 340.6,268.9 L 339.6,245.9 L 340.2,222.6 L 338.8,199.3 L 340.8,174.9 L 341.0,152.4 L 339.6,130.3" fill="none" stroke="#1F2937" stroke-width="1.6" stroke-linecap="round" stroke-linejoin="round"/>
  <text x="460.0" y="156" font-family='"Caveat", "Indie Flower", "Comic Sans MS", "Marker Felt", "Bradley Hand", sans-serif' font-size="15" font-weight="700" fill="#1F2937" text-anchor="middle">TUESDAY</text>
  <text x="460.0" y="180" font-family='"Caveat", "Indie Flower", "Comic Sans MS", "Marker Felt", "Bradley Hand", sans-serif' font-size="14" font-weight="600" fill="#1F2937" text-anchor="middle">Pair day 1</text>
  <path d="M 439.4,237.1 L 440.4,239.4 L 439.9,241.4 L 438.4,242.9 L 435.9,242.9 L 434.8,244.6 L 432.8,244.3 L 431.1,245.4 L 429.2,246.6 L 427.7,244.3 L 425.8,244.3 L 424.4,243.2 L 421.8,243.4 L 422.0,240.7 L 420.0,239.7 L 419.2,237.9 L 420.3,235.9 L 420.1,234.1 L 420.4,232.4 L 420.7,230.7 L 421.1,228.9 L 422.4,227.5 L 423.4,225.8 L 424.8,224.3 L 427.3,225.6 L 429.0,225.2 L 430.8,223.1 L 432.3,225.4 L 434.2,225.3 L 436.2,225.5 L 437.6,226.9 L 438.6,228.5 L 439.5,230.1 L 441.4,231.5 L 439.8,233.7 L 440.7,235.5 L 441.2,237.6" fill="none" stroke="#1F2937" stroke-width="1.6" stroke-linecap="round" stroke-linejoin="round"/>
  <path d="M 441.3,235.6 L 440.1,237.4 L 439.8,239.2 L 439.7,241.4 L 438.3,242.9 L 435.8,242.8 L 434.5,244.1 L 432.8,244.6 L 431.0,244.8 L 429.3,244.7 L 427.3,245.5 L 425.4,245.0 L 424.4,243.0 L 421.9,243.1 L 421.4,241.0 L 420.3,239.5 L 420.2,237.6 L 420.2,235.8 L 419.0,234.0 L 419.7,232.2 L 419.9,230.2 L 421.7,229.2 L 422.2,227.2 L 423.2,225.4 L 425.8,226.1 L 426.9,223.8 L 429.0,224.7 L 430.7,225.1 L 432.5,224.9 L 434.0,225.8 L 435.7,226.5 L 437.4,227.2 L 438.4,228.8 L 440.2,229.9 L 441.4,231.6 L 440.5,233.7 L 440.1,235.5" fill="none" stroke="#1F2937" stroke-width="1.6" stroke-linecap="round" stroke-linejoin="round"/>
  <path d="M 430.0,245.6 L 428.7,253.1 L 431.0,260.2 L 430.0,268.8 L 430.0,276.0" fill="none" stroke="#1F2937" stroke-width="1.6" stroke-linecap="round" stroke-linejoin="round"/>
  <path d="M 430.0,245.6 L 429.6,252.8 L 428.2,260.6 L 429.5,267.0 L 430.9,276.9" fill="none" stroke="#1F2937" stroke-width="1.6" stroke-linecap="round" stroke-linejoin="round"/>
  <path d="M 430.0,252.8 L 425.7,254.7 L 424.5,258.0 L 421.0,261.7 L 415.6,266.2" fill="none" stroke="#1F2937" stroke-width="1.6" stroke-linecap="round" stroke-linejoin="round"/>
  <path d="M 430.0,252.8 L 428.0,254.8 L 421.1,258.2 L 417.6,261.0 L 416.4,265.9" fill="none" stroke="#1F2937" stroke-width="1.6" stroke-linecap="round" stroke-linejoin="round"/>
  <path d="M 430.0,252.8 L 433.0,255.7 L 436.0,259.5 L 440.9,263.4 L 444.0,264.6" fill="none" stroke="#1F2937" stroke-width="1.6" stroke-linecap="round" stroke-linejoin="round"/>
  <path d="M 430.0,252.8 L 431.8,255.3 L 437.3,260.8 L 440.1,262.2 L 445.1,264.4" fill="none" stroke="#1F2937" stroke-width="1.6" stroke-linecap="round" stroke-linejoin="round"/>
  <path d="M 430.0,276.2 L 426.8,282.6 L 425.8,287.4 L 422.5,291.0 L 418.2,295.4" fill="none" stroke="#1F2937" stroke-width="1.6" stroke-linecap="round" stroke-linejoin="round"/>
  <path d="M 430.0,276.2 L 426.4,280.7 L 422.7,286.7 L 423.2,291.6 L 420.2,296.9" fill="none" stroke="#1F2937" stroke-width="1.6" stroke-linecap="round" stroke-linejoin="round"/>
  <path d="M 430.0,276.2 L 431.3,280.0 L 434.8,286.6 L 439.9,291.9 L 440.2,295.6" fill="none" stroke="#1F2937" stroke-width="1.6" stroke-linecap="round" stroke-linejoin="round"/>
  <path d="M 430.0,276.2 L 430.7,280.6 L 434.0,284.5 L 436.3,292.9 L 440.5,296.3" fill="none" stroke="#1F2937" stroke-width="1.6" stroke-linecap="round" stroke-linejoin="round"/>
  <path d="M 500.9,236.2 L 501.4,238.3 L 499.3,239.6 L 499.4,241.9 L 497.5,242.9 L 496.1,244.3 L 494.2,244.8 L 492.2,244.6 L 490.5,245.3 L 488.7,244.6 L 486.9,244.7 L 485.3,243.9 L 482.9,244.1 L 482.0,242.2 L 480.7,240.8 L 479.6,239.2 L 480.2,237.0 L 479.2,235.3 L 478.3,233.3 L 480.6,231.9 L 481.4,230.4 L 481.8,228.5 L 483.4,227.7 L 484.0,225.5 L 485.7,224.6 L 487.8,224.9 L 489.5,224.1 L 491.4,223.5 L 493.0,225.0 L 494.8,225.6 L 495.8,227.1 L 498.7,226.8 L 499.6,228.6 L 498.9,231.1 L 500.5,232.4 L 501.0,234.3 L 501.6,236.3" fill="none" stroke="#1F2937" stroke-width="1.6" stroke-linecap="round" stroke-linejoin="round"/>
  <path d="M 500.1,235.7 L 499.9,237.4 L 500.7,239.8 L 498.1,240.4 L 497.1,241.9 L 495.6,242.7 L 495.1,245.7 L 492.6,244.5 L 490.9,244.5 L 489.0,246.3 L 487.3,244.8 L 485.9,243.6 L 484.1,243.3 L 482.0,242.8 L 480.8,241.3 L 479.8,239.6 L 479.9,237.5 L 479.5,235.7 L 478.7,233.8 L 480.2,232.2 L 480.6,230.4 L 481.6,228.9 L 482.7,227.5 L 484.0,226.2 L 485.3,224.8 L 486.9,223.3 L 489.0,223.6 L 491.0,223.0 L 492.8,224.4 L 494.9,224.3 L 495.7,226.6 L 497.9,226.9 L 499.7,228.0 L 500.7,229.8 L 501.0,231.8 L 501.6,233.8 L 501.3,235.8" fill="none" stroke="#1F2937" stroke-width="1.6" stroke-linecap="round" stroke-linejoin="round"/>
  <path d="M 486.4,237.5 L 488.6,238.3 L 491.9,236.0 L 491.3,237.6 L 494.0,237.3" fill="none" stroke="#1F2937" stroke-width="1.2" stroke-linecap="round" stroke-linejoin="round"/>
  <path d="M 490.0,245.6 L 491.1,254.7 L 491.4,258.9 L 490.7,269.9 L 490.0,276.9" fill="none" stroke="#1F2937" stroke-width="1.6" stroke-linecap="round" stroke-linejoin="round"/>
  <path d="M 490.0,245.6 L 488.9,253.1 L 491.0,260.7 L 491.1,267.6 L 489.1,276.9" fill="none" stroke="#1F2937" stroke-width="1.6" stroke-linecap="round" stroke-linejoin="round"/>
  <path d="M 490.0,252.8 L 486.5,254.0 L 484.3,259.6 L 477.7,262.2 L 475.1,265.8" fill="none" stroke="#1F2937" stroke-width="1.6" stroke-linecap="round" stroke-linejoin="round"/>
  <path d="M 490.0,252.8 L 486.2,257.2 L 483.4,261.0 L 480.2,261.9 L 475.2,266.0" fill="none" stroke="#1F2937" stroke-width="1.6" stroke-linecap="round" stroke-linejoin="round"/>
  <path d="M 490.0,252.8 L 493.6,254.4 L 498.8,257.1 L 499.2,263.4 L 505.3,266.0" fill="none" stroke="#1F2937" stroke-width="1.6" stroke-linecap="round" stroke-linejoin="round"/>
  <path d="M 490.0,252.8 L 493.0,254.0 L 496.1,260.9 L 502.0,263.3 L 504.3,264.7" fill="none" stroke="#1F2937" stroke-width="1.6" stroke-linecap="round" stroke-linejoin="round"/>
  <path d="M 490.0,276.2 L 488.8,279.7 L 483.9,286.6 L 480.6,291.8 L 478.9,295.8" fill="none" stroke="#1F2937" stroke-width="1.6" stroke-linecap="round" stroke-linejoin="round"/>
  <path d="M 490.0,276.2 L 488.0,280.2 L 485.6,285.1 L 482.2,291.3 L 478.6,295.9" fill="none" stroke="#1F2937" stroke-width="1.6" stroke-linecap="round" stroke-linejoin="round"/>
  <path d="M 490.0,276.2 L 491.2,281.0 L 494.4,284.4 L 498.9,292.9 L 500.2,296.8" fill="none" stroke="#1F2937" stroke-width="1.6" stroke-linecap="round" stroke-linejoin="round"/>
  <path d="M 490.0,276.2 L 494.0,279.7 L 495.5,285.4 L 497.2,292.4 L 500.7,295.6" fill="none" stroke="#1F2937" stroke-width="1.6" stroke-linecap="round" stroke-linejoin="round"/>
  <path d="M 425.0,320.0 L 441.0,318.8 L 460.9,318.7 L 477.3,320.5 L 495.4,320.3" fill="none" stroke="#1F2937" stroke-width="1.6" stroke-linecap="round" stroke-linejoin="round"/>
  <path d="M 425.0,320.0 L 443.4,321.2 L 459.1,321.5 L 478.7,319.0 L 495.5,320.6" fill="none" stroke="#1F2937" stroke-width="1.6" stroke-linecap="round" stroke-linejoin="round"/>
  <path d="M 495.0,320.0 L 495.1,330.6 L 496.2,341.8 L 495.5,350.6 L 495.1,361.4" fill="none" stroke="#1F2937" stroke-width="1.6" stroke-linecap="round" stroke-linejoin="round"/>
  <path d="M 495.0,320.0 L 493.6,330.5 L 493.8,339.8 L 493.5,350.1 L 495.4,361.8" fill="none" stroke="#1F2937" stroke-width="1.6" stroke-linecap="round" stroke-linejoin="round"/>
  <path d="M 495.0,362.0 L 478.5,362.6 L 460.3,363.3 L 441.0,360.6 L 425.7,361.3" fill="none" stroke="#1F2937" stroke-width="1.6" stroke-linecap="round" stroke-linejoin="round"/>
  <path d="M 495.0,362.0 L 477.7,361.0 L 459.0,361.2 L 442.8,361.8 L 425.5,361.8" fill="none" stroke="#1F2937" stroke-width="1.6" stroke-linecap="round" stroke-linejoin="round"/>
  <path d="M 425.0,362.0 L 423.6,351.8 L 424.8,340.3 L 425.0,332.0 L 424.8,319.3" fill="none" stroke="#1F2937" stroke-width="1.6" stroke-linecap="round" stroke-linejoin="round"/>
  <path d="M 425.0,362.0 L 425.8,352.4 L 426.4,339.6 L 424.9,330.0 L 424.7,319.4" fill="none" stroke="#1F2937" stroke-width="1.6" stroke-linecap="round" stroke-linejoin="round"/>
  <path d="M 418.0,362.0 L 438.7,361.5 L 459.6,362.0 L 482.2,363.5 L 501.2,361.7" fill="none" stroke="#1F2937" stroke-width="1.6" stroke-linecap="round" stroke-linejoin="round"/>
  <path d="M 418.0,362.0 L 437.4,363.1 L 460.8,363.8 L 479.6,361.5 L 502.3,363.0" fill="none" stroke="#1F2937" stroke-width="1.6" stroke-linecap="round" stroke-linejoin="round"/>
  <path d="M 418.0,366.0 L 440.4,364.9 L 458.3,364.2 L 479.1,366.9 L 502.5,365.1" fill="none" stroke="#1F2937" stroke-width="1.4" stroke-linecap="round" stroke-linejoin="round"/>
  <path d="M 418.0,366.0 L 440.2,367.1 L 459.2,367.8 L 480.7,366.8 L 502.4,366.7" fill="none" stroke="#1F2937" stroke-width="1.4" stroke-linecap="round" stroke-linejoin="round"/>
  <path d="M 433.0,332.0 L 447.2,330.4 L 461.8,331.1 L 471.9,331.3 L 486.7,332.5" fill="none" stroke="#10B981" stroke-width="1.4" stroke-linecap="round" stroke-linejoin="round"/>
  <path d="M 433.0,344.0 L 443.8,345.9 L 452.6,343.7 L 463.4,342.7 L 474.7,344.0" fill="none" stroke="#6B7280" stroke-width="1.2" stroke-linecap="round" stroke-linejoin="round"/>
  <path d="M 487.8,350.2 L 486.2,351.0 L 487.4,352.5 L 486.3,353.2 L 486.2,354.5 L 484.0,353.8 L 484.3,356.1 L 483.2,356.6 L 481.8,355.5 L 480.9,355.8 L 479.8,355.8 L 479.1,354.8 L 477.4,356.0 L 477.2,354.4 L 476.2,353.9 L 475.7,352.9 L 474.8,352.1 L 475.1,350.9 L 473.9,349.8 L 474.5,348.7 L 474.7,347.6 L 476.9,347.5 L 476.0,345.6 L 477.8,346.1 L 478.0,344.5 L 479.3,344.9 L 480.0,343.4 L 481.2,342.9 L 482.0,345.1 L 482.9,345.1 L 483.6,345.8 L 484.2,346.3 L 485.3,346.5 L 485.4,347.6 L 487.0,348.0 L 487.4,349.0 L 485.8,350.1" fill="none" stroke="#10B981" stroke-width="2.4" stroke-linecap="round" stroke-linejoin="round"/>
  <path d="M 488.2,350.2 L 487.6,351.3 L 486.1,352.0 L 487.1,353.7 L 486.2,354.6 L 485.3,355.4 L 483.7,355.0 L 483.1,356.2 L 481.8,355.2 L 480.8,357.1 L 479.9,355.3 L 478.4,356.7 L 477.3,356.0 L 476.4,355.2 L 477.0,353.2 L 475.8,352.8 L 475.1,352.0 L 475.6,350.8 L 473.9,349.8 L 475.6,348.9 L 476.5,348.2 L 476.5,347.2 L 477.0,346.5 L 477.2,345.2 L 478.0,344.5 L 478.9,343.9 L 480.1,343.8 L 481.2,342.8 L 482.3,343.6 L 483.4,343.9 L 484.3,344.6 L 485.3,345.1 L 484.9,346.9 L 485.5,347.5 L 486.2,348.2 L 487.7,349.0 L 486.7,350.1" fill="none" stroke="#10B981" stroke-width="2.4" stroke-linecap="round" stroke-linejoin="round"/>
  <path d="M 478.0,350.0 L 478.6,350.6 L 479.5,350.7 L 479.6,351.1 L 480.3,352.1" fill="none" stroke="#10B981" stroke-width="2.4" stroke-linecap="round" stroke-linejoin="round"/>
  <path d="M 480.4,352.1 L 481.2,350.6 L 482.3,349.9 L 482.9,349.0 L 484.4,347.6" fill="none" stroke="#10B981" stroke-width="2.4" stroke-linecap="round" stroke-linejoin="round"/>
  <text x="460.0" y="460" font-family='"Caveat", "Indie Flower", "Comic Sans MS", "Marker Felt", "Bradley Hand", sans-serif' font-size="12" font-weight="500" fill="#6B7280" text-anchor="middle">two figures</text>
  <text x="460.0" y="478" font-family='"Caveat", "Indie Flower", "Comic Sans MS", "Marker Felt", "Bradley Hand", sans-serif' font-size="12" font-weight="500" fill="#6B7280" text-anchor="middle">one keyboard</text>
  <text x="460.0" y="496" font-family='"Caveat", "Indie Flower", "Comic Sans MS", "Marker Felt", "Bradley Hand", sans-serif' font-size="12" font-weight="500" fill="#6B7280" text-anchor="middle">(code visible)</text>
  <rect x="600.0" y="130.0" width="240.0" height="460.0" fill="#6B7280" fill-opacity="0.03" stroke="none"/>
  <path d="M 600.0,130.0 L 624.0,130.1 L 647.4,129.4 L 671.5,130.1 L 696.2,130.9 L 719.9,130.1 L 745.4,130.0 L 769.5,129.6 L 792.8,129.5 L 815.2,131.3 L 840.7,130.4" fill="none" stroke="#1F2937" stroke-width="1.6" stroke-linecap="round" stroke-linejoin="round"/>
  <path d="M 600.0,130.0 L 623.2,129.8 L 647.5,128.8 L 673.0,129.7 L 697.2,130.4 L 719.0,130.4 L 744.8,131.5 L 766.6,131.4 L 792.3,131.1 L 815.6,130.2 L 840.6,129.6" fill="none" stroke="#1F2937" stroke-width="1.6" stroke-linecap="round" stroke-linejoin="round"/>
  <path d="M 840.0,130.0 L 839.6,152.5 L 841.3,175.7 L 840.7,198.7 L 841.4,222.8 L 840.1,244.7 L 840.8,268.0 L 840.2,290.5 L 841.1,312.6 L 841.0,338.1 L 839.1,360.6 L 841.0,381.6 L 840.4,405.4 L 840.4,429.7 L 840.6,451.1 L 840.4,474.9 L 840.2,499.5 L 838.5,519.7 L 840.2,543.0 L 839.7,568.1 L 840.1,589.9" fill="none" stroke="#1F2937" stroke-width="1.6" stroke-linecap="round" stroke-linejoin="round"/>
  <path d="M 840.0,130.0 L 839.2,152.6 L 840.8,176.5 L 838.7,200.3 L 839.5,222.8 L 839.4,244.3 L 840.8,267.8 L 838.9,290.3 L 838.6,313.0 L 839.1,338.3 L 839.7,359.2 L 841.1,383.6 L 838.9,407.2 L 840.3,428.1 L 840.1,451.5 L 838.7,474.5 L 838.6,497.0 L 840.8,519.9 L 840.6,544.0 L 840.9,566.8 L 839.3,589.7" fill="none" stroke="#1F2937" stroke-width="1.6" stroke-linecap="round" stroke-linejoin="round"/>
  <path d="M 840.0,590.0 L 817.5,589.4 L 792.8,590.8 L 766.6,590.7 L 742.7,590.8 L 720.1,589.5 L 696.4,590.1 L 670.6,589.4 L 648.3,590.7 L 623.0,591.2 L 599.7,590.7" fill="none" stroke="#1F2937" stroke-width="1.6" stroke-linecap="round" stroke-linejoin="round"/>
  <path d="M 840.0,590.0 L 817.3,588.8 L 792.2,590.1 L 768.3,591.3 L 745.3,589.4 L 719.7,588.9 L 695.2,590.7 L 671.3,591.2 L 648.4,589.0 L 624.6,591.2 L 599.8,589.9" fill="none" stroke="#1F2937" stroke-width="1.6" stroke-linecap="round" stroke-linejoin="round"/>
  <path d="M 600.0,590.0 L 600.4,566.6 L 599.8,544.4 L 599.7,519.9 L 599.3,497.5 L 601.0,474.6 L 599.0,451.8 L 601.5,428.0 L 600.7,404.9 L 601.1,383.1 L 599.2,361.2 L 599.4,338.2 L 600.3,314.7 L 601.0,289.8 L 599.8,267.2 L 600.8,245.6 L 599.5,220.6 L 599.7,198.2 L 599.1,175.1 L 599.0,154.4 L 600.3,130.3" fill="none" stroke="#1F2937" stroke-width="1.6" stroke-linecap="round" stroke-linejoin="round"/>
  <path d="M 600.0,590.0 L 599.6,568.3 L 598.6,543.8 L 600.9,521.8 L 599.8,498.0 L 600.1,476.3 L 599.3,451.5 L 600.6,429.8 L 600.3,405.6 L 600.0,381.7 L 598.8,359.2 L 600.9,336.5 L 599.8,314.4 L 600.3,290.2 L 599.1,267.1 L 599.1,244.5 L 600.3,222.4 L 600.6,199.2 L 599.9,174.9 L 599.3,154.1 L 600.1,130.0" fill="none" stroke="#1F2937" stroke-width="1.6" stroke-linecap="round" stroke-linejoin="round"/>
  <text x="720.0" y="156" font-family='"Caveat", "Indie Flower", "Comic Sans MS", "Marker Felt", "Bradley Hand", sans-serif' font-size="15" font-weight="700" fill="#1F2937" text-anchor="middle">WEDNESDAY</text>
  <text x="720.0" y="180" font-family='"Caveat", "Indie Flower", "Comic Sans MS", "Marker Felt", "Bradley Hand", sans-serif' font-size="14" font-weight="600" fill="#10B981" text-anchor="middle">Pair day 2</text>
  <path d="M 701.3,235.8 L 700.7,237.6 L 699.8,239.3 L 698.1,240.5 L 696.9,241.7 L 696.8,244.5 L 694.4,244.1 L 692.6,244.5 L 691.0,246.2 L 689.2,244.8 L 687.5,244.2 L 685.5,244.5 L 683.9,243.5 L 682.1,242.7 L 681.2,241.0 L 681.2,238.9 L 680.7,237.3 L 678.5,235.8 L 679.1,233.9 L 678.5,231.8 L 680.9,230.6 L 680.4,228.1 L 681.8,226.6 L 683.6,225.8 L 685.9,226.0 L 686.9,223.3 L 688.9,223.1 L 690.8,225.1 L 692.7,224.7 L 694.2,225.7 L 696.8,225.0 L 697.8,226.9 L 698.1,229.1 L 700.2,230.0 L 701.4,231.7 L 700.5,233.9 L 701.2,235.7" fill="none" stroke="#1F2937" stroke-width="1.6" stroke-linecap="round" stroke-linejoin="round"/>
  <path d="M 701.2,237.4 L 699.5,238.8 L 699.8,241.1 L 698.8,242.9 L 696.0,242.7 L 695.1,244.8 L 693.2,245.2 L 691.4,245.8 L 689.5,244.7 L 687.6,245.1 L 685.5,245.5 L 684.7,243.0 L 682.1,243.4 L 681.0,241.6 L 681.4,239.2 L 680.6,237.7 L 679.5,236.1 L 679.5,234.3 L 679.0,232.3 L 679.2,230.3 L 680.5,228.7 L 682.0,227.4 L 683.5,226.2 L 685.4,225.8 L 686.5,223.5 L 688.7,224.5 L 690.5,224.1 L 692.1,225.4 L 694.0,225.4 L 695.7,226.0 L 697.2,227.0 L 698.8,228.1 L 698.9,230.2 L 700.6,231.5 L 700.1,233.5 L 699.8,235.3 L 701.6,237.4" fill="none" stroke="#1F2937" stroke-width="1.6" stroke-linecap="round" stroke-linejoin="round"/>
  <path d="M 690.0,245.6 L 691.6,255.2 L 689.5,259.2 L 689.1,268.6 L 689.2,276.6" fill="none" stroke="#1F2937" stroke-width="1.6" stroke-linecap="round" stroke-linejoin="round"/>
  <path d="M 690.0,245.6 L 688.8,251.4 L 689.4,259.9 L 690.7,268.6 L 689.2,276.3" fill="none" stroke="#1F2937" stroke-width="1.6" stroke-linecap="round" stroke-linejoin="round"/>
  <path d="M 690.0,252.8 L 687.1,255.0 L 684.1,257.4 L 680.3,262.6 L 675.1,264.8" fill="none" stroke="#1F2937" stroke-width="1.6" stroke-linecap="round" stroke-linejoin="round"/>
  <path d="M 690.0,252.8 L 686.6,254.3 L 681.7,260.6 L 678.1,263.0 L 674.8,266.1" fill="none" stroke="#1F2937" stroke-width="1.6" stroke-linecap="round" stroke-linejoin="round"/>
  <path d="M 690.0,252.8 L 693.8,255.8 L 697.3,261.0 L 701.6,263.0 L 703.7,265.7" fill="none" stroke="#1F2937" stroke-width="1.6" stroke-linecap="round" stroke-linejoin="round"/>
  <path d="M 690.0,252.8 L 692.6,257.5 L 695.7,258.4 L 700.4,260.6 L 705.0,265.5" fill="none" stroke="#1F2937" stroke-width="1.6" stroke-linecap="round" stroke-linejoin="round"/>
  <path d="M 690.0,276.2 L 687.2,279.9 L 685.8,286.7 L 680.3,292.7 L 678.4,296.5" fill="none" stroke="#1F2937" stroke-width="1.6" stroke-linecap="round" stroke-linejoin="round"/>
  <path d="M 690.0,276.2 L 686.9,282.5 L 685.8,287.5 L 683.2,290.9 L 680.0,296.3" fill="none" stroke="#1F2937" stroke-width="1.6" stroke-linecap="round" stroke-linejoin="round"/>
  <path d="M 690.0,276.2 L 693.3,279.2 L 695.8,284.9 L 697.0,290.0 L 701.2,295.4" fill="none" stroke="#1F2937" stroke-width="1.6" stroke-linecap="round" stroke-linejoin="round"/>
  <path d="M 690.0,276.2 L 690.9,280.5 L 696.0,286.3 L 697.5,290.5 L 700.3,295.8" fill="none" stroke="#1F2937" stroke-width="1.6" stroke-linecap="round" stroke-linejoin="round"/>
  <path d="M 759.5,236.5 L 759.7,238.4 L 759.1,240.1 L 758.5,242.0 L 757.0,243.2 L 755.7,244.7 L 753.7,245.2 L 751.6,244.3 L 750.0,246.0 L 748.1,245.2 L 746.3,244.9 L 744.2,244.8 L 743.1,242.9 L 741.4,242.0 L 740.6,240.2 L 740.0,238.4 L 738.9,236.7 L 738.6,234.8 L 739.5,232.9 L 740.5,231.3 L 741.5,229.8 L 741.6,227.7 L 743.2,226.6 L 745.0,226.1 L 746.0,223.7 L 748.2,224.3 L 750.0,223.9 L 751.8,224.8 L 753.8,224.5 L 755.7,225.0 L 756.4,227.2 L 758.3,227.9 L 760.1,229.0 L 760.3,231.1 L 761.2,232.9 L 761.6,234.8 L 760.6,236.7" fill="none" stroke="#1F2937" stroke-width="1.6" stroke-linecap="round" stroke-linejoin="round"/>
  <path d="M 761.2,235.0 L 761.0,236.9 L 759.6,238.5 L 759.4,240.4 L 758.3,242.0 L 757.0,243.4 L 754.8,243.4 L 753.5,244.8 L 751.9,246.6 L 749.8,246.6 L 748.2,244.4 L 746.4,244.2 L 743.9,245.0 L 743.0,242.9 L 741.0,242.1 L 740.5,240.1 L 740.4,238.2 L 740.0,236.4 L 739.5,234.6 L 739.4,232.8 L 739.4,230.8 L 740.2,228.9 L 742.3,228.1 L 742.8,226.0 L 744.5,224.9 L 746.4,224.4 L 748.1,223.1 L 750.1,225.0 L 752.1,223.6 L 753.9,224.7 L 756.1,224.5 L 757.7,225.9 L 757.5,228.7 L 759.0,229.8 L 760.6,231.1 L 761.8,232.9 L 759.9,234.9" fill="none" stroke="#1F2937" stroke-width="1.6" stroke-linecap="round" stroke-linejoin="round"/>
  <path d="M 746.4,237.5 L 749.6,235.6 L 751.5,236.4 L 751.4,237.9 L 754.1,237.3" fill="none" stroke="#1F2937" stroke-width="1.2" stroke-linecap="round" stroke-linejoin="round"/>
  <path d="M 750.0,245.6 L 749.7,253.5 L 751.4,260.5 L 750.7,270.0 L 749.1,277.1" fill="none" stroke="#1F2937" stroke-width="1.6" stroke-linecap="round" stroke-linejoin="round"/>
  <path d="M 750.0,245.6 L 750.7,252.8 L 749.8,262.0 L 751.6,267.2 L 749.7,276.7" fill="none" stroke="#1F2937" stroke-width="1.6" stroke-linecap="round" stroke-linejoin="round"/>
  <path d="M 750.0,252.8 L 744.4,254.6 L 741.9,259.9 L 739.9,263.9 L 735.3,264.7" fill="none" stroke="#1F2937" stroke-width="1.6" stroke-linecap="round" stroke-linejoin="round"/>
  <path d="M 750.0,252.8 L 745.5,254.8 L 744.4,260.6 L 738.7,262.5 L 736.3,264.9" fill="none" stroke="#1F2937" stroke-width="1.6" stroke-linecap="round" stroke-linejoin="round"/>
  <path d="M 750.0,252.8 L 752.7,257.0 L 756.4,257.8 L 762.3,264.1 L 763.8,264.6" fill="none" stroke="#1F2937" stroke-width="1.6" stroke-linecap="round" stroke-linejoin="round"/>
  <path d="M 750.0,252.8 L 755.1,257.0 L 758.6,260.0 L 762.7,260.5 L 763.8,265.4" fill="none" stroke="#1F2937" stroke-width="1.6" stroke-linecap="round" stroke-linejoin="round"/>
  <path d="M 750.0,276.2 L 748.6,279.5 L 745.1,286.3 L 743.7,291.2 L 738.9,295.3" fill="none" stroke="#1F2937" stroke-width="1.6" stroke-linecap="round" stroke-linejoin="round"/>
  <path d="M 750.0,276.2 L 746.4,279.5 L 746.0,285.3 L 743.1,289.3 L 739.7,296.0" fill="none" stroke="#1F2937" stroke-width="1.6" stroke-linecap="round" stroke-linejoin="round"/>
  <path d="M 750.0,276.2 L 752.3,282.2 L 755.2,286.2 L 758.5,292.0 L 761.0,296.6" fill="none" stroke="#1F2937" stroke-width="1.6" stroke-linecap="round" stroke-linejoin="round"/>
  <path d="M 750.0,276.2 L 752.4,279.8 L 756.4,285.0 L 756.4,292.7 L 760.0,296.8" fill="none" stroke="#1F2937" stroke-width="1.6" stroke-linecap="round" stroke-linejoin="round"/>
  <path d="M 685.0,320.0 L 703.1,319.5 L 719.9,319.6 L 736.2,319.6 L 754.4,320.5" fill="none" stroke="#1F2937" stroke-width="1.6" stroke-linecap="round" stroke-linejoin="round"/>
  <path d="M 685.0,320.0 L 701.5,319.0 L 719.9,320.3 L 738.2,319.3 L 754.5,319.9" fill="none" stroke="#1F2937" stroke-width="1.6" stroke-linecap="round" stroke-linejoin="round"/>
  <path d="M 755.0,320.0 L 754.1,329.1 L 754.4,340.5 L 755.7,350.6 L 754.6,362.6" fill="none" stroke="#1F2937" stroke-width="1.6" stroke-linecap="round" stroke-linejoin="round"/>
  <path d="M 755.0,320.0 L 756.3,329.9 L 755.1,341.7 L 755.7,351.0 L 755.6,362.2" fill="none" stroke="#1F2937" stroke-width="1.6" stroke-linecap="round" stroke-linejoin="round"/>
  <path d="M 755.0,362.0 L 737.2,361.9 L 719.4,361.0 L 703.9,363.0 L 685.7,362.3" fill="none" stroke="#1F2937" stroke-width="1.6" stroke-linecap="round" stroke-linejoin="round"/>
  <path d="M 755.0,362.0 L 736.8,361.9 L 720.4,362.9 L 702.6,360.5 L 685.4,362.3" fill="none" stroke="#1F2937" stroke-width="1.6" stroke-linecap="round" stroke-linejoin="round"/>
  <path d="M 685.0,362.0 L 686.5,352.4 L 685.6,341.4 L 684.7,330.5 L 685.4,320.7" fill="none" stroke="#1F2937" stroke-width="1.6" stroke-linecap="round" stroke-linejoin="round"/>
  <path d="M 685.0,362.0 L 685.8,352.3 L 686.3,341.3 L 685.8,330.1 L 684.9,320.1" fill="none" stroke="#1F2937" stroke-width="1.6" stroke-linecap="round" stroke-linejoin="round"/>
  <path d="M 678.0,362.0 L 697.4,361.5 L 721.0,361.2 L 741.5,361.0 L 761.9,361.1" fill="none" stroke="#1F2937" stroke-width="1.6" stroke-linecap="round" stroke-linejoin="round"/>
  <path d="M 678.0,362.0 L 698.5,361.7 L 718.7,363.4 L 742.1,360.0 L 761.9,362.4" fill="none" stroke="#1F2937" stroke-width="1.6" stroke-linecap="round" stroke-linejoin="round"/>
  <path d="M 678.0,366.0 L 699.4,364.3 L 718.8,365.3 L 741.4,364.8 L 761.4,365.2" fill="none" stroke="#1F2937" stroke-width="1.4" stroke-linecap="round" stroke-linejoin="round"/>
  <path d="M 678.0,366.0 L 698.1,366.0 L 721.0,366.9 L 742.2,366.5 L 761.6,366.0" fill="none" stroke="#1F2937" stroke-width="1.4" stroke-linecap="round" stroke-linejoin="round"/>
  <path d="M 693.0,332.0 L 706.0,333.4 L 718.9,330.4 L 732.4,333.9 L 747.7,332.1" fill="none" stroke="#10B981" stroke-width="1.4" stroke-linecap="round" stroke-linejoin="round"/>
  <path d="M 693.0,344.0 L 705.4,345.8 L 714.6,343.5 L 724.5,342.3 L 735.6,344.2" fill="none" stroke="#6B7280" stroke-width="1.2" stroke-linecap="round" stroke-linejoin="round"/>
  <path d="M 747.4,350.5 L 747.6,351.7 L 747.4,353.0 L 745.9,353.4 L 745.8,354.7 L 744.4,354.8 L 744.0,356.3 L 742.4,354.9 L 741.5,355.8 L 740.5,356.6 L 739.3,356.5 L 738.2,356.0 L 737.0,355.8 L 736.4,354.7 L 735.3,354.0 L 735.9,352.4 L 735.9,351.4 L 734.0,350.6 L 734.6,349.5 L 734.3,348.2 L 736.0,347.7 L 736.3,346.7 L 736.0,345.1 L 737.7,345.3 L 738.1,343.8 L 739.7,345.4 L 740.5,344.7 L 741.4,345.1 L 742.4,344.6 L 743.0,345.6 L 744.3,345.3 L 744.6,346.4 L 746.5,346.1 L 746.4,347.4 L 747.2,348.3 L 747.4,349.4 L 747.6,350.5" fill="none" stroke="#10B981" stroke-width="2.4" stroke-linecap="round" stroke-linejoin="round"/>
  <path d="M 746.1,350.4 L 747.3,351.6 L 747.0,352.7 L 745.3,352.9 L 745.8,354.6 L 744.3,354.6 L 744.0,356.2 L 742.8,356.4 L 741.5,354.8 L 740.6,355.8 L 739.4,356.4 L 738.3,356.0 L 737.9,354.5 L 736.4,354.7 L 736.4,353.3 L 736.2,352.3 L 734.9,351.7 L 734.6,350.6 L 735.8,349.6 L 736.0,348.7 L 734.5,347.1 L 735.1,346.0 L 736.3,345.4 L 737.7,345.4 L 738.6,345.0 L 739.3,343.9 L 740.3,343.1 L 741.5,343.0 L 742.6,343.7 L 743.0,345.6 L 745.0,344.2 L 745.8,345.1 L 745.6,346.7 L 747.1,347.0 L 747.6,348.1 L 746.4,349.5 L 747.0,350.4" fill="none" stroke="#10B981" stroke-width="2.4" stroke-linecap="round" stroke-linejoin="round"/>
  <path d="M 738.0,350.0 L 738.5,350.5 L 739.5,351.2 L 740.0,351.3 L 740.4,352.2" fill="none" stroke="#10B981" stroke-width="2.4" stroke-linecap="round" stroke-linejoin="round"/>
  <path d="M 740.4,352.1 L 741.4,350.5 L 742.3,349.8 L 743.0,348.5 L 744.3,347.6" fill="none" stroke="#10B981" stroke-width="2.4" stroke-linecap="round" stroke-linejoin="round"/>
  <text x="720.0" y="460" font-family='"Caveat", "Indie Flower", "Comic Sans MS", "Marker Felt", "Bradley Hand", sans-serif' font-size="12" font-weight="500" fill="#6B7280" text-anchor="middle">first PR ships</text>
  <text x="720.0" y="478" font-family='"Caveat", "Indie Flower", "Comic Sans MS", "Marker Felt", "Bradley Hand", sans-serif' font-size="12" font-weight="500" fill="#6B7280" text-anchor="middle">edge cases land</text>
  <text x="720.0" y="496" font-family='"Caveat", "Indie Flower", "Comic Sans MS", "Marker Felt", "Bradley Hand", sans-serif' font-size="12" font-weight="500" fill="#6B7280" text-anchor="middle">feedback fast</text>
  <rect x="860.0" y="130.0" width="240.0" height="460.0" fill="#6B7280" fill-opacity="0.03" stroke="none"/>
  <path d="M 860.0,130.0 L 884.7,129.3 L 908.9,129.5 L 932.4,129.3 L 956.8,131.0 L 979.5,130.6 L 1005.0,130.4 L 1026.7,131.1 L 1053.3,130.6 L 1076.3,131.5 L 1100.3,130.1" fill="none" stroke="#1F2937" stroke-width="1.6" stroke-linecap="round" stroke-linejoin="round"/>
  <path d="M 860.0,130.0 L 884.0,129.0 L 907.9,131.2 L 932.3,130.9 L 956.5,129.7 L 979.0,130.7 L 1004.5,130.4 L 1028.9,129.4 L 1051.9,128.8 L 1074.7,131.3 L 1100.1,130.1" fill="none" stroke="#1F2937" stroke-width="1.6" stroke-linecap="round" stroke-linejoin="round"/>
  <path d="M 1100.0,130.0 L 1100.0,152.7 L 1101.3,175.6 L 1098.7,199.2 L 1100.8,222.4 L 1100.2,245.0 L 1100.3,268.0 L 1099.2,292.4 L 1098.7,313.9 L 1100.8,338.0 L 1100.8,359.6 L 1100.3,381.9 L 1099.0,406.5 L 1100.6,429.8 L 1100.0,451.1 L 1099.0,473.8 L 1101.0,496.5 L 1100.3,521.3 L 1100.2,544.4 L 1098.9,568.5 L 1099.6,590.6" fill="none" stroke="#1F2937" stroke-width="1.6" stroke-linecap="round" stroke-linejoin="round"/>
  <path d="M 1100.0,130.0 L 1101.3,153.8 L 1100.2,176.3 L 1100.1,199.1 L 1099.6,221.2 L 1098.9,246.0 L 1098.8,268.1 L 1099.5,292.2 L 1098.6,313.6 L 1101.4,335.6 L 1100.1,360.7 L 1100.5,384.2 L 1100.2,404.9 L 1099.6,429.1 L 1100.3,451.1 L 1098.8,473.7 L 1098.8,499.5 L 1099.3,521.9 L 1099.0,544.6 L 1099.3,566.5 L 1099.8,589.8" fill="none" stroke="#1F2937" stroke-width="1.6" stroke-linecap="round" stroke-linejoin="round"/>
  <path d="M 1100.0,590.0 L 1076.9,589.4 L 1053.4,589.1 L 1028.4,589.1 L 1003.9,589.4 L 978.7,589.7 L 957.0,589.8 L 931.1,589.4 L 908.3,588.6 L 885.2,591.1 L 859.8,590.6" fill="none" stroke="#1F2937" stroke-width="1.6" stroke-linecap="round" stroke-linejoin="round"/>
  <path d="M 1100.0,590.0 L 1075.3,590.4 L 1051.1,590.1 L 1026.7,590.3 L 1005.1,588.6 L 979.5,589.0 L 955.2,590.5 L 931.5,591.1 L 909.2,589.5 L 883.4,591.0 L 860.6,589.7" fill="none" stroke="#1F2937" stroke-width="1.6" stroke-linecap="round" stroke-linejoin="round"/>
  <path d="M 860.0,590.0 L 861.3,566.0 L 860.7,545.3 L 859.2,522.2 L 860.1,498.6 L 860.4,475.2 L 860.8,452.2 L 860.2,429.0 L 859.0,406.6 L 860.9,382.5 L 860.1,361.1 L 859.7,335.5 L 860.3,315.1 L 860.2,290.0 L 859.0,268.5 L 858.7,244.0 L 859.5,221.3 L 859.2,198.7 L 858.7,176.1 L 859.4,154.1 L 860.5,130.6" fill="none" stroke="#1F2937" stroke-width="1.6" stroke-linecap="round" stroke-linejoin="round"/>
  <path d="M 860.0,590.0 L 859.2,567.3 L 858.5,544.3 L 861.0,520.0 L 861.2,497.1 L 861.5,474.1 L 860.0,451.8 L 859.8,429.9 L 861.1,405.2 L 860.0,382.8 L 859.2,361.4 L 859.6,336.9 L 858.9,314.5 L 858.9,289.5 L 859.7,267.7 L 859.4,244.2 L 859.4,222.7 L 859.9,198.5 L 859.6,176.2 L 858.8,153.6 L 859.7,130.6" fill="none" stroke="#1F2937" stroke-width="1.6" stroke-linecap="round" stroke-linejoin="round"/>
  <text x="980.0" y="156" font-family='"Caveat", "Indie Flower", "Comic Sans MS", "Marker Felt", "Bradley Hand", sans-serif' font-size="15" font-weight="700" fill="#1F2937" text-anchor="middle">THURSDAY</text>
  <text x="980.0" y="180" font-family='"Caveat", "Indie Flower", "Comic Sans MS", "Marker Felt", "Bradley Hand", sans-serif' font-size="14" font-weight="600" fill="#10B981" text-anchor="middle">Iterate</text>
  <path d="M 930.0,220.0 L 955.9,219.6 L 979.4,220.5 L 1006.4,219.5 L 1030.0,220.4" fill="none" stroke="#1F2937" stroke-width="1.6" stroke-linecap="round" stroke-linejoin="round"/>
  <path d="M 930.0,220.0 L 956.3,221.2 L 981.5,219.4 L 1006.2,221.1 L 1029.5,219.3" fill="none" stroke="#1F2937" stroke-width="1.6" stroke-linecap="round" stroke-linejoin="round"/>
  <path d="M 1030.0,220.0 L 1030.4,235.0 L 1030.1,249.9 L 1028.8,265.2 L 1030.2,280.4" fill="none" stroke="#1F2937" stroke-width="1.6" stroke-linecap="round" stroke-linejoin="round"/>
  <path d="M 1030.0,220.0 L 1029.2,233.8 L 1029.8,250.3 L 1029.4,264.5 L 1029.9,280.1" fill="none" stroke="#1F2937" stroke-width="1.6" stroke-linecap="round" stroke-linejoin="round"/>
  <path d="M 1030.0,280.0 L 1004.5,279.3 L 979.8,280.1 L 955.4,280.3 L 929.4,279.3" fill="none" stroke="#1F2937" stroke-width="1.6" stroke-linecap="round" stroke-linejoin="round"/>
  <path d="M 1030.0,280.0 L 1006.4,281.3 L 979.8,281.1 L 953.8,278.7 L 930.4,279.9" fill="none" stroke="#1F2937" stroke-width="1.6" stroke-linecap="round" stroke-linejoin="round"/>
  <path d="M 930.0,280.0 L 929.9,264.4 L 931.1,250.2 L 930.8,234.9 L 929.7,220.1" fill="none" stroke="#1F2937" stroke-width="1.6" stroke-linecap="round" stroke-linejoin="round"/>
  <path d="M 930.0,280.0 L 930.4,264.4 L 929.9,250.4 L 929.0,235.9 L 930.0,220.0" fill="none" stroke="#1F2937" stroke-width="1.6" stroke-linecap="round" stroke-linejoin="round"/>
  <path d="M 920.0,280.0 L 942.5,278.7 L 966.8,281.2 L 992.1,278.0 L 1015.5,281.8 L 1040.7,281.0" fill="none" stroke="#1F2937" stroke-width="1.6" stroke-linecap="round" stroke-linejoin="round"/>
  <path d="M 920.0,280.0 L 945.1,279.3 L 967.2,280.3 L 991.6,279.6 L 1017.7,280.2 L 1039.1,280.9" fill="none" stroke="#1F2937" stroke-width="1.6" stroke-linecap="round" stroke-linejoin="round"/>
  <path d="M 920.0,284.0 L 945.7,283.7 L 968.4,282.8 L 994.0,282.6 L 1015.5,283.1 L 1039.9,283.4" fill="none" stroke="#1F2937" stroke-width="1.4" stroke-linecap="round" stroke-linejoin="round"/>
  <path d="M 920.0,284.0 L 942.7,282.0 L 966.3,282.7 L 990.6,285.2 L 1014.3,285.8 L 1040.3,283.8" fill="none" stroke="#1F2937" stroke-width="1.4" stroke-linecap="round" stroke-linejoin="round"/>
  <path d="M 938.0,232.0 L 958.8,230.5 L 980.7,233.7 L 1002.3,231.2 L 1021.6,232.4" fill="none" stroke="#10B981" stroke-width="1.4" stroke-linecap="round" stroke-linejoin="round"/>
  <path d="M 938.0,244.0 L 956.4,244.8 L 975.7,242.6 L 993.6,242.3 L 1009.8,244.7" fill="none" stroke="#6B7280" stroke-width="1.2" stroke-linecap="round" stroke-linejoin="round"/>
  <path d="M 1023.1,268.3 L 1021.5,269.2 L 1021.4,270.3 L 1021.0,271.2 L 1020.2,271.8 L 1019.2,272.2 L 1018.7,273.2 L 1017.9,274.0 L 1016.9,274.7 L 1015.7,274.1 L 1014.5,274.9 L 1014.1,272.7 L 1013.0,272.7 L 1012.2,272.2 L 1011.5,271.5 L 1011.3,270.5 L 1009.2,270.1 L 1010.8,268.7 L 1008.9,267.7 L 1010.0,266.7 L 1011.0,265.9 L 1010.8,264.7 L 1012.1,264.4 L 1012.9,263.9 L 1012.8,261.8 L 1014.1,262.0 L 1015.2,261.6 L 1016.3,261.0 L 1017.1,262.9 L 1018.2,262.6 L 1019.2,263.0 L 1019.4,264.3 L 1021.1,264.1 L 1021.1,265.3 L 1022.6,265.9 L 1022.3,267.2 L 1022.8,268.3" fill="none" stroke="#10B981" stroke-width="2.4" stroke-linecap="round" stroke-linejoin="round"/>
  <path d="M 1022.1,269.4 L 1022.2,270.6 L 1021.9,271.8 L 1020.0,271.7 L 1019.1,272.1 L 1018.8,273.5 L 1017.8,273.9 L 1016.9,274.7 L 1015.7,274.2 L 1014.8,273.2 L 1013.4,274.3 L 1012.4,273.6 L 1012.2,272.1 L 1011.3,271.6 L 1010.9,270.6 L 1010.7,269.6 L 1010.5,268.7 L 1008.9,267.7 L 1009.2,266.5 L 1010.1,265.5 L 1010.2,264.3 L 1011.6,264.0 L 1011.8,262.5 L 1013.4,263.0 L 1014.4,262.7 L 1015.4,263.0 L 1016.2,263.1 L 1017.3,262.1 L 1017.9,263.5 L 1018.6,263.9 L 1019.8,263.9 L 1021.0,264.2 L 1021.2,265.3 L 1021.5,266.3 L 1023.1,267.1 L 1021.0,268.2 L 1021.9,269.4" fill="none" stroke="#10B981" stroke-width="2.4" stroke-linecap="round" stroke-linejoin="round"/>
  <path d="M 1013.0,268.0 L 1014.0,268.3 L 1014.7,268.9 L 1014.9,269.9 L 1015.2,270.1" fill="none" stroke="#10B981" stroke-width="2.4" stroke-linecap="round" stroke-linejoin="round"/>
  <path d="M 1015.4,270.1 L 1016.9,269.4 L 1017.8,267.7 L 1018.7,267.0 L 1019.4,265.6" fill="none" stroke="#10B981" stroke-width="2.4" stroke-linecap="round" stroke-linejoin="round"/>
  <text x="980.0" y="330" font-family='"Caveat", "Indie Flower", "Comic Sans MS", "Marker Felt", "Bradley Hand", sans-serif' font-size="16" font-weight="600" fill="#10B981" text-anchor="middle">v0.1 → v0.2</text>
  <path d="M 993.0,382.5 L 992.8,384.9 L 992.2,387.3 L 991.3,389.7 L 988.5,390.4 L 986.5,391.7 L 984.7,393.6 L 982.1,392.8 L 979.8,395.1 L 977.2,394.6 L 975.0,393.1 L 973.3,391.2 L 970.4,391.2 L 968.7,389.2 L 966.8,387.4 L 965.9,384.9 L 965.2,382.4 L 965.3,379.8 L 967.1,377.5 L 967.0,375.1 L 968.3,373.0 L 969.6,371.0 L 970.6,368.4 L 972.9,367.3 L 975.7,367.6 L 977.6,365.4 L 980.2,365.1 L 982.5,366.8 L 984.8,367.4 L 986.9,368.4 L 988.5,370.1 L 991.6,370.5 L 991.9,373.4 L 993.0,375.5 L 992.8,377.9 L 994.9,380.2 L 994.8,382.8" fill="none" stroke="#10B981" stroke-width="2.4" stroke-linecap="round" stroke-linejoin="round"/>
  <path d="M 994.4,383.5 L 992.7,385.6 L 991.1,387.4 L 989.7,389.3 L 989.0,392.2 L 986.5,393.1 L 983.9,393.1 L 981.7,395.1 L 979.2,393.1 L 976.7,393.4 L 974.4,392.8 L 972.3,391.5 L 970.1,390.4 L 968.9,388.2 L 966.5,386.7 L 967.3,383.7 L 965.4,381.6 L 965.7,379.1 L 966.0,376.6 L 966.4,374.0 L 969.3,372.9 L 969.2,369.7 L 972.1,369.3 L 974.0,367.9 L 975.9,366.2 L 978.4,365.3 L 981.0,364.9 L 983.1,367.2 L 986.0,366.4 L 987.6,368.7 L 989.7,369.8 L 991.9,371.3 L 992.8,373.7 L 993.0,376.2 L 995.0,378.3 L 993.6,380.9 L 994.5,383.5" fill="none" stroke="#10B981" stroke-width="2.4" stroke-linecap="round" stroke-linejoin="round"/>
  <path d="M 973.0,380.0 L 974.2,381.1 L 975.4,382.8 L 977.3,383.5 L 978.4,384.7" fill="none" stroke="#10B981" stroke-width="2.4" stroke-linecap="round" stroke-linejoin="round"/>
  <path d="M 978.6,384.9 L 980.5,381.8 L 983.0,379.7 L 985.7,377.5 L 987.6,374.6" fill="none" stroke="#10B981" stroke-width="2.4" stroke-linecap="round" stroke-linejoin="round"/>
  <text x="980.0" y="460" font-family='"Caveat", "Indie Flower", "Comic Sans MS", "Marker Felt", "Bradley Hand", sans-serif' font-size="12" font-weight="500" fill="#6B7280" text-anchor="middle">v0.1 → v0.2</text>
  <text x="980.0" y="478" font-family='"Caveat", "Indie Flower", "Comic Sans MS", "Marker Felt", "Bradley Hand", sans-serif' font-size="12" font-weight="500" fill="#6B7280" text-anchor="middle">merge</text>
  <text x="980.0" y="496" font-family='"Caveat", "Indie Flower", "Comic Sans MS", "Marker Felt", "Bradley Hand", sans-serif' font-size="12" font-weight="500" fill="#6B7280" text-anchor="middle">green CI</text>
  <rect x="1120.0" y="130.0" width="240.0" height="460.0" fill="#6B7280" fill-opacity="0.03" stroke="none"/>
  <path d="M 1120.0,130.0 L 1142.6,130.0 L 1168.2,129.2 L 1192.1,129.2 L 1216.2,129.8 L 1239.7,131.2 L 1264.6,130.1 L 1287.9,129.1 L 1313.3,129.5 L 1335.6,130.4 L 1359.4,130.4" fill="none" stroke="#1F2937" stroke-width="1.6" stroke-linecap="round" stroke-linejoin="round"/>
  <path d="M 1120.0,130.0 L 1143.9,130.4 L 1166.6,130.1 L 1190.8,130.8 L 1216.5,130.0 L 1240.2,130.6 L 1263.8,131.0 L 1287.5,130.1 L 1311.1,131.3 L 1337.3,129.4 L 1360.1,129.6" fill="none" stroke="#1F2937" stroke-width="1.6" stroke-linecap="round" stroke-linejoin="round"/>
  <path d="M 1360.0,130.0 L 1360.5,152.3 L 1361.2,177.5 L 1359.9,197.6 L 1358.5,223.0 L 1361.0,245.9 L 1359.5,267.1 L 1360.6,290.3 L 1359.0,312.8 L 1360.5,338.0 L 1359.4,358.9 L 1358.8,383.6 L 1361.3,405.6 L 1360.7,427.7 L 1358.5,450.5 L 1359.3,474.4 L 1361.5,499.5 L 1359.3,521.8 L 1358.7,544.7 L 1359.4,566.2 L 1360.0,589.6" fill="none" stroke="#1F2937" stroke-width="1.6" stroke-linecap="round" stroke-linejoin="round"/>
  <path d="M 1360.0,130.0 L 1359.4,152.8 L 1361.2,175.8 L 1360.1,198.1 L 1360.6,221.1 L 1358.9,244.1 L 1361.0,268.3 L 1360.8,291.8 L 1359.8,314.0 L 1360.8,337.0 L 1359.7,360.9 L 1359.0,382.8 L 1359.4,406.4 L 1360.6,428.2 L 1358.9,451.1 L 1358.8,476.3 L 1360.3,496.5 L 1359.7,521.6 L 1360.5,543.1 L 1359.0,567.9 L 1360.2,590.5" fill="none" stroke="#1F2937" stroke-width="1.6" stroke-linecap="round" stroke-linejoin="round"/>
  <path d="M 1360.0,590.0 L 1336.3,588.6 L 1313.2,589.6 L 1289.1,590.9 L 1264.9,589.0 L 1239.1,591.3 L 1217.4,588.7 L 1193.1,591.1 L 1169.3,590.0 L 1145.0,590.0 L 1119.3,589.9" fill="none" stroke="#1F2937" stroke-width="1.6" stroke-linecap="round" stroke-linejoin="round"/>
  <path d="M 1360.0,590.0 L 1337.2,590.7 L 1311.7,589.1 L 1286.7,591.1 L 1263.1,590.4 L 1240.8,588.6 L 1216.9,590.2 L 1190.5,588.8 L 1168.6,590.0 L 1144.7,591.1 L 1120.5,590.6" fill="none" stroke="#1F2937" stroke-width="1.6" stroke-linecap="round" stroke-linejoin="round"/>
  <path d="M 1120.0,590.0 L 1119.2,565.8 L 1119.3,545.3 L 1120.2,520.0 L 1119.6,498.6 L 1119.0,475.8 L 1121.1,451.7 L 1120.4,429.7 L 1120.2,405.1 L 1119.3,383.5 L 1118.6,359.4 L 1118.8,336.1 L 1121.4,314.0 L 1120.9,290.4 L 1121.3,268.0 L 1120.9,245.5 L 1119.6,220.8 L 1119.9,199.6 L 1120.2,175.9 L 1119.7,152.5 L 1119.7,130.2" fill="none" stroke="#1F2937" stroke-width="1.6" stroke-linecap="round" stroke-linejoin="round"/>
  <path d="M 1120.0,590.0 L 1118.9,566.0 L 1119.2,543.6 L 1120.3,521.6 L 1120.7,496.5 L 1121.5,476.5 L 1120.8,451.7 L 1119.7,428.8 L 1119.8,406.6 L 1118.8,383.5 L 1121.4,360.3 L 1118.9,336.3 L 1120.1,313.1 L 1119.5,289.9 L 1119.4,268.7 L 1120.6,243.8 L 1119.7,220.6 L 1121.5,200.3 L 1119.8,177.1 L 1118.7,152.7 L 1119.6,130.4" fill="none" stroke="#1F2937" stroke-width="1.6" stroke-linecap="round" stroke-linejoin="round"/>
  <text x="1240.0" y="156" font-family='"Caveat", "Indie Flower", "Comic Sans MS", "Marker Felt", "Bradley Hand", sans-serif' font-size="15" font-weight="700" fill="#1F2937" text-anchor="middle">FRIDAY</text>
  <text x="1240.0" y="180" font-family='"Caveat", "Indie Flower", "Comic Sans MS", "Marker Felt", "Bradley Hand", sans-serif' font-size="14" font-weight="600" fill="#10B981" text-anchor="middle">Handover</text>
  <path d="M 1221.7,237.1 L 1219.1,238.3 L 1220.1,240.9 L 1218.8,242.5 L 1216.2,242.4 L 1215.2,244.3 L 1213.6,245.3 L 1211.5,244.4 L 1209.8,246.0 L 1208.1,244.7 L 1206.5,243.9 L 1204.9,243.3 L 1203.5,242.2 L 1201.0,242.1 L 1200.0,240.4 L 1199.0,238.6 L 1200.1,236.3 L 1198.7,234.6 L 1199.7,232.8 L 1200.2,231.0 L 1201.6,229.7 L 1202.6,228.3 L 1203.6,226.9 L 1205.3,226.3 L 1206.1,223.5 L 1208.3,224.0 L 1210.2,223.2 L 1212.1,223.8 L 1213.6,225.5 L 1215.4,225.8 L 1217.4,226.4 L 1219.1,227.5 L 1220.3,229.1 L 1219.2,231.6 L 1221.4,233.0 L 1219.7,235.0 L 1221.4,237.0" fill="none" stroke="#1F2937" stroke-width="1.6" stroke-linecap="round" stroke-linejoin="round"/>
  <path d="M 1220.3,237.4 L 1220.9,239.7 L 1219.0,240.9 L 1218.5,243.1 L 1215.7,242.7 L 1215.2,245.5 L 1213.0,245.6 L 1211.0,244.8 L 1209.2,245.8 L 1207.2,245.6 L 1205.9,243.9 L 1204.4,243.0 L 1202.6,242.3 L 1201.7,240.8 L 1199.7,239.7 L 1200.7,237.4 L 1200.3,235.8 L 1200.0,234.0 L 1198.7,231.9 L 1201.1,230.8 L 1200.6,228.4 L 1203.1,228.1 L 1204.0,226.5 L 1205.1,224.6 L 1207.1,224.5 L 1208.8,223.1 L 1210.8,224.4 L 1212.9,223.5 L 1214.3,225.3 L 1216.5,225.3 L 1218.3,226.3 L 1218.0,229.0 L 1219.9,230.0 L 1220.4,231.9 L 1220.0,233.8 L 1221.8,235.7 L 1221.1,237.6" fill="none" stroke="#1F2937" stroke-width="1.6" stroke-linecap="round" stroke-linejoin="round"/>
  <path d="M 1206.4,237.5 L 1210.0,238.6 L 1210.6,237.7 L 1212.3,239.2 L 1214.0,238.4" fill="none" stroke="#1F2937" stroke-width="1.2" stroke-linecap="round" stroke-linejoin="round"/>
  <path d="M 1210.0,245.6 L 1208.9,253.1 L 1211.2,259.7 L 1208.9,266.8 L 1210.8,275.6" fill="none" stroke="#1F2937" stroke-width="1.6" stroke-linecap="round" stroke-linejoin="round"/>
  <path d="M 1210.0,245.6 L 1211.9,254.4 L 1208.6,260.7 L 1208.4,267.3 L 1211.0,276.2" fill="none" stroke="#1F2937" stroke-width="1.6" stroke-linecap="round" stroke-linejoin="round"/>
  <path d="M 1210.0,252.8 L 1206.7,257.6 L 1201.4,257.7 L 1197.8,263.8 L 1196.1,264.7" fill="none" stroke="#1F2937" stroke-width="1.6" stroke-linecap="round" stroke-linejoin="round"/>
  <path d="M 1210.0,252.8 L 1208.0,254.5 L 1204.7,258.8 L 1200.7,261.6 L 1195.1,264.9" fill="none" stroke="#1F2937" stroke-width="1.6" stroke-linecap="round" stroke-linejoin="round"/>
  <path d="M 1210.0,252.8 L 1212.2,256.0 L 1217.9,260.3 L 1220.4,262.2 L 1224.4,265.3" fill="none" stroke="#1F2937" stroke-width="1.6" stroke-linecap="round" stroke-linejoin="round"/>
  <path d="M 1210.0,252.8 L 1214.9,254.1 L 1216.7,259.9 L 1221.2,263.6 L 1223.6,264.9" fill="none" stroke="#1F2937" stroke-width="1.6" stroke-linecap="round" stroke-linejoin="round"/>
  <path d="M 1210.0,276.2 L 1207.7,279.8 L 1202.8,285.8 L 1200.9,289.5 L 1199.3,296.7" fill="none" stroke="#1F2937" stroke-width="1.6" stroke-linecap="round" stroke-linejoin="round"/>
  <path d="M 1210.0,276.2 L 1206.1,281.0 L 1203.6,285.8 L 1202.5,289.3 L 1198.2,296.9" fill="none" stroke="#1F2937" stroke-width="1.6" stroke-linecap="round" stroke-linejoin="round"/>
  <path d="M 1210.0,276.2 L 1213.1,281.1 L 1215.4,287.1 L 1217.1,289.5 L 1221.2,296.6" fill="none" stroke="#1F2937" stroke-width="1.6" stroke-linecap="round" stroke-linejoin="round"/>
  <path d="M 1210.0,276.2 L 1213.9,279.6 L 1214.6,285.7 L 1216.5,291.6 L 1220.2,295.4" fill="none" stroke="#1F2937" stroke-width="1.6" stroke-linecap="round" stroke-linejoin="round"/>
  <path d="M 1281.6,234.8 L 1281.1,236.8 L 1280.0,238.4 L 1278.5,239.7 L 1278.7,242.1 L 1276.2,242.2 L 1275.9,245.0 L 1273.5,244.4 L 1271.8,245.2 L 1270.0,244.8 L 1267.9,246.4 L 1266.1,245.3 L 1264.7,243.9 L 1263.8,242.2 L 1260.8,242.5 L 1260.1,240.5 L 1260.7,238.2 L 1258.2,236.9 L 1259.4,234.8 L 1260.0,233.0 L 1259.0,230.8 L 1259.8,228.9 L 1261.8,227.9 L 1262.9,226.3 L 1264.4,225.2 L 1266.3,224.7 L 1268.1,224.1 L 1270.0,223.3 L 1272.0,223.3 L 1273.5,225.1 L 1275.1,226.0 L 1277.1,226.3 L 1278.2,227.9 L 1278.9,229.7 L 1279.7,231.3 L 1281.3,232.8 L 1281.4,234.8" fill="none" stroke="#1F2937" stroke-width="1.6" stroke-linecap="round" stroke-linejoin="round"/>
  <path d="M 1280.6,235.6 L 1280.1,237.4 L 1280.9,239.7 L 1278.5,240.6 L 1278.0,242.6 L 1276.9,244.4 L 1274.3,243.6 L 1272.9,245.2 L 1271.0,244.7 L 1269.2,245.7 L 1267.6,244.4 L 1265.5,244.8 L 1264.4,243.1 L 1263.2,241.7 L 1261.8,240.7 L 1260.9,239.2 L 1260.3,237.5 L 1258.1,236.0 L 1258.8,234.0 L 1260.3,232.3 L 1259.4,230.0 L 1261.6,229.1 L 1261.8,226.8 L 1263.9,226.4 L 1265.5,225.6 L 1267.2,224.8 L 1269.0,224.9 L 1270.9,223.3 L 1273.0,223.2 L 1274.3,225.3 L 1276.0,226.1 L 1276.9,227.7 L 1278.4,228.8 L 1279.5,230.2 L 1281.0,231.7 L 1281.1,233.7 L 1280.5,235.6" fill="none" stroke="#1F2937" stroke-width="1.6" stroke-linecap="round" stroke-linejoin="round"/>
  <path d="M 1266.4,237.5 L 1266.8,237.4 L 1269.0,239.1 L 1271.8,237.2 L 1272.8,237.8" fill="none" stroke="#1F2937" stroke-width="1.2" stroke-linecap="round" stroke-linejoin="round"/>
  <path d="M 1270.0,245.6 L 1270.9,253.8 L 1268.5,262.2 L 1269.8,268.2 L 1269.5,275.5" fill="none" stroke="#1F2937" stroke-width="1.6" stroke-linecap="round" stroke-linejoin="round"/>
  <path d="M 1270.0,245.6 L 1271.6,252.0 L 1270.7,261.0 L 1269.4,270.3 L 1269.9,275.5" fill="none" stroke="#1F2937" stroke-width="1.6" stroke-linecap="round" stroke-linejoin="round"/>
  <path d="M 1270.0,252.8 L 1266.7,255.6 L 1264.6,258.5 L 1258.4,262.5 L 1255.8,265.2" fill="none" stroke="#1F2937" stroke-width="1.6" stroke-linecap="round" stroke-linejoin="round"/>
  <path d="M 1270.0,252.8 L 1265.6,255.6 L 1262.9,258.5 L 1259.8,263.0 L 1256.1,266.2" fill="none" stroke="#1F2937" stroke-width="1.6" stroke-linecap="round" stroke-linejoin="round"/>
  <path d="M 1270.0,252.8 L 1272.8,257.3 L 1277.5,257.7 L 1280.2,262.2 L 1283.8,266.4" fill="none" stroke="#1F2937" stroke-width="1.6" stroke-linecap="round" stroke-linejoin="round"/>
  <path d="M 1270.0,252.8 L 1272.8,257.4 L 1279.1,258.2 L 1280.8,262.1 L 1284.3,266.3" fill="none" stroke="#1F2937" stroke-width="1.6" stroke-linecap="round" stroke-linejoin="round"/>
  <path d="M 1270.0,276.2 L 1267.6,281.8 L 1263.2,287.3 L 1260.9,291.7 L 1258.2,295.7" fill="none" stroke="#1F2937" stroke-width="1.6" stroke-linecap="round" stroke-linejoin="round"/>
  <path d="M 1270.0,276.2 L 1266.8,280.5 L 1265.1,287.7 L 1261.7,289.3 L 1258.3,295.8" fill="none" stroke="#1F2937" stroke-width="1.6" stroke-linecap="round" stroke-linejoin="round"/>
  <path d="M 1270.0,276.2 L 1273.8,280.7 L 1275.1,284.8 L 1277.8,293.0 L 1281.5,296.2" fill="none" stroke="#1F2937" stroke-width="1.6" stroke-linecap="round" stroke-linejoin="round"/>
  <path d="M 1270.0,276.2 L 1272.5,282.9 L 1276.9,286.7 L 1279.9,292.5 L 1280.1,296.5" fill="none" stroke="#1F2937" stroke-width="1.6" stroke-linecap="round" stroke-linejoin="round"/>
  <path d="M 1145.0,320.0 L 1168.3,319.9 L 1191.9,319.0 L 1216.9,319.8 L 1239.3,321.1 L 1265.1,320.3 L 1288.8,318.8 L 1311.4,321.3 L 1334.4,320.6" fill="none" stroke="#1F2937" stroke-width="1.5" stroke-linecap="round" stroke-linejoin="round"/>
  <path d="M 1145.0,320.0 L 1167.8,319.5 L 1193.6,320.3 L 1214.8,320.1 L 1239.0,319.1 L 1263.4,319.0 L 1286.2,319.0 L 1311.9,320.9 L 1334.5,320.7" fill="none" stroke="#1F2937" stroke-width="1.5" stroke-linecap="round" stroke-linejoin="round"/>
  <path d="M 1335.0,320.0 L 1335.4,333.8 L 1334.8,349.1 L 1335.5,366.1 L 1334.7,380.5" fill="none" stroke="#1F2937" stroke-width="1.5" stroke-linecap="round" stroke-linejoin="round"/>
  <path d="M 1335.0,320.0 L 1335.2,336.1 L 1336.5,351.1 L 1336.3,365.3 L 1335.4,380.1" fill="none" stroke="#1F2937" stroke-width="1.5" stroke-linecap="round" stroke-linejoin="round"/>
  <path d="M 1335.0,380.0 L 1312.2,381.1 L 1288.0,379.8 L 1263.0,379.6 L 1239.5,380.3 L 1216.3,379.4 L 1191.1,379.3 L 1169.4,380.7 L 1144.5,379.9" fill="none" stroke="#1F2937" stroke-width="1.5" stroke-linecap="round" stroke-linejoin="round"/>
  <path d="M 1335.0,380.0 L 1311.9,379.1 L 1287.1,379.3 L 1262.8,381.4 L 1240.9,381.1 L 1217.2,379.4 L 1193.0,378.5 L 1169.2,380.0 L 1145.0,380.6" fill="none" stroke="#1F2937" stroke-width="1.5" stroke-linecap="round" stroke-linejoin="round"/>
  <path d="M 1145.0,380.0 L 1144.9,363.9 L 1145.8,349.7 L 1146.4,335.0 L 1144.5,320.3" fill="none" stroke="#1F2937" stroke-width="1.5" stroke-linecap="round" stroke-linejoin="round"/>
  <path d="M 1145.0,380.0 L 1145.4,364.9 L 1144.3,348.9 L 1145.4,334.7 L 1144.3,319.8" fill="none" stroke="#1F2937" stroke-width="1.5" stroke-linecap="round" stroke-linejoin="round"/>
  <text x="1155" y="340" font-family='"Caveat", "Indie Flower", "Comic Sans MS", "Marker Felt", "Bradley Hand", sans-serif' font-size="13" font-weight="500" fill="#1F2937" text-anchor="start">debrief.md pinned</text>
  <text x="1240.0" y="460" font-family='"Caveat", "Indie Flower", "Comic Sans MS", "Marker Felt", "Bradley Hand", sans-serif' font-size="12" font-weight="500" fill="#6B7280" text-anchor="middle">written debrief</text>
  <text x="1240.0" y="478" font-family='"Caveat", "Indie Flower", "Comic Sans MS", "Marker Felt", "Bradley Hand", sans-serif' font-size="12" font-weight="500" fill="#6B7280" text-anchor="middle">lead reads it</text>
  <text x="1240.0" y="496" font-family='"Caveat", "Indie Flower", "Comic Sans MS", "Marker Felt", "Bradley Hand", sans-serif' font-size="12" font-weight="500" fill="#6B7280" text-anchor="middle">artefacts pinned</text>
  <rect x="100.0" y="610.0" width="1200.0" height="50.0" fill="#EF4444" fill-opacity="0.05" stroke="none"/>
  <path d="M 100.0,610.0 L 122.3,610.6 L 145.7,610.9 L 166.0,608.9 L 187.7,610.0 L 209.7,610.6 L 234.0,609.1 L 255.7,608.7 L 277.5,609.9 L 299.5,609.8 L 321.7,609.6 L 343.0,611.5 L 367.3,608.6 L 388.7,610.3 L 412.3,608.7 L 434.3,609.1 L 456.8,609.2 L 478.6,610.2 L 501.2,611.2 L 521.1,610.4 L 545.8,610.8 L 568.1,608.6 L 588.2,608.7 L 610.4,609.1 L 633.2,611.4 L 654.5,609.6 L 677.5,609.0 L 699.1,608.8 L 720.9,610.3 L 743.9,609.0 L 768.1,609.0 L 787.6,610.3 L 809.6,610.8 L 832.2,610.2 L 856.7,611.0 L 877.7,609.5 L 901.0,610.2 L 923.2,610.7 L 944.6,608.7 L 966.5,609.9 L 989.2,609.8 L 1011.8,611.3 L 1031.9,609.6 L 1054.6,610.1 L 1077.8,611.1 L 1100.3,610.1 L 1121.0,609.1 L 1144.1,610.4 L 1166.6,611.0 L 1188.7,610.1 L 1212.6,610.4 L 1232.8,609.1 L 1257.0,610.7 L 1276.7,611.4 L 1300.7,610.7" fill="none" stroke="#1F2937" stroke-width="1.4" stroke-linecap="round" stroke-linejoin="round"/>
  <path d="M 100.0,610.0 L 121.1,609.5 L 143.3,610.8 L 166.2,611.1 L 188.8,611.1 L 210.7,609.6 L 233.3,610.5 L 256.3,608.7 L 278.3,608.7 L 298.6,610.4 L 321.2,610.7 L 343.1,610.9 L 366.9,608.8 L 387.8,611.1 L 412.2,611.3 L 434.7,609.0 L 456.6,611.1 L 477.0,610.6 L 499.8,610.9 L 520.8,609.7 L 543.9,610.5 L 565.6,610.9 L 589.1,610.2 L 612.3,609.8 L 632.7,610.8 L 654.6,610.4 L 676.6,608.8 L 700.1,611.0 L 721.8,610.0 L 744.4,609.9 L 766.7,608.7 L 789.6,609.1 L 812.4,610.6 L 832.8,610.5 L 855.2,609.5 L 877.8,609.6 L 898.8,610.3 L 922.1,608.5 L 943.4,609.5 L 965.7,610.1 L 987.4,609.6 L 1010.2,610.8 L 1032.4,611.4 L 1056.1,610.0 L 1076.9,610.0 L 1100.1,609.1 L 1122.3,610.5 L 1143.3,610.2 L 1165.6,609.4 L 1190.2,609.2 L 1212.6,609.2 L 1234.2,610.7 L 1256.4,609.5 L 1278.1,609.5 L 1299.6,609.5" fill="none" stroke="#1F2937" stroke-width="1.4" stroke-linecap="round" stroke-linejoin="round"/>
  <path d="M 1300.0,610.0 L 1299.4,621.6 L 1300.6,636.2 L 1299.3,646.2 L 1300.4,660.4" fill="none" stroke="#1F2937" stroke-width="1.4" stroke-linecap="round" stroke-linejoin="round"/>
  <path d="M 1300.0,610.0 L 1300.7,623.5 L 1300.8,636.1 L 1299.9,649.0 L 1300.7,660.3" fill="none" stroke="#1F2937" stroke-width="1.4" stroke-linecap="round" stroke-linejoin="round"/>
  <path d="M 1300.0,660.0 L 1278.6,660.5 L 1254.3,659.0 L 1234.3,658.9 L 1210.0,661.2 L 1189.7,661.0 L 1165.9,661.1 L 1143.2,659.0 L 1120.8,658.8 L 1099.2,660.8 L 1076.3,660.4 L 1056.7,659.0 L 1033.3,659.9 L 1010.6,659.5 L 988.3,661.0 L 968.1,659.5 L 943.9,659.2 L 922.2,659.4 L 898.7,661.2 L 876.9,659.2 L 855.4,659.2 L 831.9,660.5 L 809.7,658.5 L 789.6,660.2 L 765.9,660.0 L 743.3,659.4 L 723.1,658.9 L 699.2,659.1 L 679.3,658.7 L 655.7,658.8 L 633.9,660.9 L 611.3,660.5 L 588.9,658.7 L 566.0,661.5 L 544.5,660.7 L 521.5,659.3 L 499.6,659.3 L 476.7,660.1 L 456.3,661.3 L 432.1,659.0 L 412.6,659.5 L 388.6,660.2 L 366.0,660.2 L 344.3,659.2 L 322.4,659.5 L 300.4,660.5 L 276.9,660.4 L 254.4,659.9 L 232.6,660.0 L 210.6,659.3 L 187.9,660.5 L 165.2,658.7 L 144.0,660.1 L 121.1,659.4 L 100.1,659.8" fill="none" stroke="#1F2937" stroke-width="1.4" stroke-linecap="round" stroke-linejoin="round"/>
  <path d="M 1300.0,660.0 L 1278.3,660.9 L 1255.8,659.3 L 1233.6,658.9 L 1211.8,660.5 L 1190.0,660.8 L 1165.9,660.2 L 1144.5,658.5 L 1121.8,661.2 L 1100.3,660.0 L 1077.2,659.5 L 1055.4,660.9 L 1033.9,660.7 L 1010.7,661.3 L 988.1,660.1 L 966.9,659.0 L 945.3,660.0 L 921.7,661.2 L 900.7,660.9 L 878.7,659.3 L 854.6,660.6 L 832.5,660.8 L 812.1,658.8 L 787.9,658.6 L 766.1,660.0 L 744.9,658.5 L 721.8,660.5 L 699.9,661.4 L 678.1,660.8 L 655.0,658.8 L 633.0,659.4 L 612.1,660.6 L 588.3,658.7 L 566.6,659.8 L 545.9,658.9 L 522.6,660.9 L 500.3,660.2 L 478.6,661.4 L 455.7,661.1 L 434.1,659.8 L 412.3,659.5 L 390.2,661.4 L 366.2,660.7 L 345.0,661.0 L 322.8,661.3 L 301.2,659.3 L 277.2,660.9 L 254.6,660.4 L 233.0,659.4 L 212.0,660.8 L 189.0,660.3 L 168.0,660.3 L 144.1,660.3 L 121.8,658.8 L 100.4,659.7" fill="none" stroke="#1F2937" stroke-width="1.4" stroke-linecap="round" stroke-linejoin="round"/>
  <path d="M 100.0,660.0 L 101.5,647.9 L 99.6,636.2 L 99.2,621.8 L 100.0,610.0" fill="none" stroke="#1F2937" stroke-width="1.4" stroke-linecap="round" stroke-linejoin="round"/>
  <path d="M 100.0,660.0 L 101.2,648.9 L 99.6,633.6 L 98.8,623.2 L 99.9,610.5" fill="none" stroke="#1F2937" stroke-width="1.4" stroke-linecap="round" stroke-linejoin="round"/>
  <text x="125" y="640" font-family='"Caveat", "Indie Flower", "Comic Sans MS", "Marker Felt", "Bradley Hand", sans-serif' font-size="13" font-weight="700" fill="#EF4444" text-anchor="start">Common failures:</text>
  <text x="310" y="640" font-family='"Caveat", "Indie Flower", "Comic Sans MS", "Marker Felt", "Bradley Hand", sans-serif' font-size="13" font-weight="500" fill="#1F2937" text-anchor="start">✕ advice-only embed</text>
  <text x="560" y="640" font-family='"Caveat", "Indie Flower", "Comic Sans MS", "Marker Felt", "Bradley Hand", sans-serif' font-size="13" font-weight="500" fill="#1F2937" text-anchor="start">✕ no time-box</text>
  <text x="770" y="640" font-family='"Caveat", "Indie Flower", "Comic Sans MS", "Marker Felt", "Bradley Hand", sans-serif' font-size="13" font-weight="500" fill="#1F2937" text-anchor="start">✕ no written debrief</text>
  <text x="1020" y="640" font-family='"Caveat", "Indie Flower", "Comic Sans MS", "Marker Felt", "Bradley Hand", sans-serif' font-size="13" font-weight="500" fill="#1F2937" text-anchor="start">✕ ship-for-not-with</text>
  </svg>
