<svg xmlns="http://www.w3.org/2000/svg" viewBox="0 0 1100 760" role="img" aria-label="Office Hours  —  one 60-minute session">
  <rect width="1100" height="760" fill="#FFFFFF"/>
  <text x="550.0" y="48" font-family='"Caveat", "Indie Flower", "Comic Sans MS", "Marker Felt", "Bradley Hand", sans-serif' font-size="28" font-weight="700" fill="#1F2937" text-anchor="middle">Office Hours  —  one 60-minute session</text>
  <text x="550.0" y="76" font-family='"Caveat", "Indie Flower", "Comic Sans MS", "Marker Felt", "Bradley Hand", sans-serif' font-size="15" font-weight="500" fill="#6B7280" text-anchor="middle">Three days of queue, one hour live, one log entry that compounds.</text>

  <path d="M 520.0,130.0 L 519.8,153.1 L 519.4,174.4 L 519.3,197.3 L 520.6,219.9 L 519.7,242.4 L 519.8,264.9 L 520.0,287.5 L 520.1,308.6 L 520.1,332.0 L 520.2,354.1 L 519.7,376.3 L 519.5,398.2 L 519.2,420.4 L 520.7,443.8 L 520.1,466.0 L 520.2,489.1 L 520.1,511.4 L 520.7,533.2 L 519.2,555.2 L 520.7,578.0 L 519.5,599.7 L 520.0,623.1 L 519.2,645.3 L 520.7,667.7 L 520.0,689.7" fill="none" stroke="#1F2937" stroke-width="2.2" stroke-linecap="round" stroke-linejoin="round"/>
  <path d="M 520.0,130.0 L 520.6,153.2 L 520.6,175.4 L 519.7,197.9 L 520.4,218.8 L 519.4,241.4 L 520.7,265.1 L 519.8,287.0 L 520.1,308.9 L 519.4,331.3 L 520.6,354.1 L 520.5,376.1 L 519.6,398.9 L 519.7,420.8 L 519.4,443.5 L 520.3,466.5 L 520.2,488.3 L 520.7,511.5 L 519.4,533.2 L 520.3,554.9 L 519.8,577.8 L 519.6,600.1 L 520.8,622.1 L 519.3,645.8 L 520.2,668.3 L 519.9,690.1" fill="none" stroke="#1F2937" stroke-width="2.2" stroke-linecap="round" stroke-linejoin="round"/>
  <text x="520" y="152" font-family='"Caveat", "Indie Flower", "Comic Sans MS", "Marker Felt", "Bradley Hand", sans-serif' font-size="13" font-weight="700" fill="#6B7280" text-anchor="middle">3 DAYS BEFORE</text>
  <path d="M 200.0,170.0 L 222.4,170.7 L 247.1,169.6 L 269.7,171.3 L 293.2,170.3 L 318.0,169.6 L 343.1,171.2 L 364.8,171.1 L 389.1,170.2 L 412.8,171.4 L 436.7,169.6 L 460.5,170.0" fill="none" stroke="#1F2937" stroke-width="1.5" stroke-linecap="round" stroke-linejoin="round"/>
  <path d="M 200.0,170.0 L 222.7,169.3 L 247.7,169.7 L 270.0,169.5 L 294.3,169.8 L 318.9,169.3 L 342.6,170.7 L 365.3,170.8 L 389.8,171.4 L 412.4,170.5 L 437.0,170.6 L 460.4,170.6" fill="none" stroke="#1F2937" stroke-width="1.5" stroke-linecap="round" stroke-linejoin="round"/>
  <path d="M 460.0,170.0 L 460.5,192.1 L 460.9,212.6 L 458.6,237.1 L 460.8,259.0 L 459.5,279.3" fill="none" stroke="#1F2937" stroke-width="1.5" stroke-linecap="round" stroke-linejoin="round"/>
  <path d="M 460.0,170.0 L 459.5,193.0 L 460.1,214.9 L 459.7,236.7 L 459.0,258.5 L 460.6,279.7" fill="none" stroke="#1F2937" stroke-width="1.5" stroke-linecap="round" stroke-linejoin="round"/>
  <path d="M 460.0,280.0 L 437.6,278.6 L 413.3,279.7 L 389.1,281.2 L 366.5,279.4 L 342.3,280.5 L 316.7,281.0 L 295.3,279.2 L 270.8,281.1 L 247.0,279.6 L 222.5,280.9 L 200.6,279.8" fill="none" stroke="#1F2937" stroke-width="1.5" stroke-linecap="round" stroke-linejoin="round"/>
  <path d="M 460.0,280.0 L 436.9,281.4 L 413.7,278.9 L 389.3,281.2 L 366.7,279.6 L 342.1,279.0 L 318.8,280.5 L 294.8,280.9 L 271.6,279.8 L 247.1,281.4 L 223.5,279.3 L 199.9,279.8" fill="none" stroke="#1F2937" stroke-width="1.5" stroke-linecap="round" stroke-linejoin="round"/>
  <path d="M 200.0,280.0 L 199.0,256.9 L 201.0,235.4 L 200.7,215.2 L 200.5,193.1 L 199.5,170.7" fill="none" stroke="#1F2937" stroke-width="1.5" stroke-linecap="round" stroke-linejoin="round"/>
  <path d="M 200.0,280.0 L 198.7,258.8 L 200.7,237.1 L 200.0,214.7 L 199.0,193.1 L 200.3,170.7" fill="none" stroke="#1F2937" stroke-width="1.5" stroke-linecap="round" stroke-linejoin="round"/>
  <path d="M 420.0,280.0 L 417.9,283.4 L 415.5,287.1 L 414.0,292.5 L 412.3,296.1" fill="none" stroke="#1F2937" stroke-width="1.5" stroke-linecap="round" stroke-linejoin="round"/>
  <path d="M 412.0,296.0 L 415.1,292.9 L 419.0,288.7 L 423.1,284.6 L 426.3,280.4" fill="none" stroke="#1F2937" stroke-width="1.5" stroke-linecap="round" stroke-linejoin="round"/>
  <text x="210" y="190" font-family='"Caveat", "Indie Flower", "Comic Sans MS", "Marker Felt", "Bradley Hand", sans-serif' font-size="13" font-weight="500" fill="#1F2937" text-anchor="start">@here urgent? not really.</text>
  <text x="210" y="208" font-family='"Caveat", "Indie Flower", "Comic Sans MS", "Marker Felt", "Bradley Hand", sans-serif' font-size="13" font-weight="500" fill="#1F2937" text-anchor="start">anyone seen X error?</text>
  <text x="210" y="226" font-family='"Caveat", "Indie Flower", "Comic Sans MS", "Marker Felt", "Bradley Hand", sans-serif' font-size="13" font-weight="500" fill="#1F2937" text-anchor="start">is Y skill working?</text>
  <text x="210" y="244" font-family='"Caveat", "Indie Flower", "Comic Sans MS", "Marker Felt", "Bradley Hand", sans-serif' font-size="13" font-weight="500" fill="#1F2937" text-anchor="start">(slack thread fills up)</text>
  <text x="700" y="200" font-family='"Caveat", "Indie Flower", "Comic Sans MS", "Marker Felt", "Bradley Hand", sans-serif' font-size="15" font-weight="600" fill="#1F2937" text-anchor="start">queue is the agenda</text>
  <text x="700" y="222" font-family='"Caveat", "Indie Flower", "Comic Sans MS", "Marker Felt", "Bradley Hand", sans-serif' font-size="13" font-weight="500" fill="#6B7280" text-anchor="start">no agenda, no hour</text>
  <text x="520" y="320" font-family='"Caveat", "Indie Flower", "Comic Sans MS", "Marker Felt", "Bradley Hand", sans-serif' font-size="13" font-weight="700" fill="#6B7280" text-anchor="middle">MINUTE 0  —  TRIAGE</text>
  <rect x="200.0" y="340.0" width="260.0" height="130.0" fill="#F59E0B" fill-opacity="0.05" stroke="none"/>
  <path d="M 200.0,340.0 L 225.0,341.2 L 246.6,339.3 L 269.5,339.1 L 294.8,340.3 L 318.6,340.7 L 342.5,341.0 L 366.7,340.8 L 388.4,339.4 L 412.6,339.5 L 435.8,339.3 L 459.6,339.9" fill="none" stroke="#1F2937" stroke-width="1.6" stroke-linecap="round" stroke-linejoin="round"/>
  <path d="M 200.0,340.0 L 224.6,340.8 L 248.2,339.0 L 269.6,339.3 L 295.9,339.3 L 319.7,339.5 L 341.8,339.1 L 366.6,339.7 L 390.4,338.9 L 412.8,340.2 L 435.8,338.9 L 460.4,339.6" fill="none" stroke="#1F2937" stroke-width="1.6" stroke-linecap="round" stroke-linejoin="round"/>
  <path d="M 460.0,340.0 L 458.7,366.9 L 460.8,391.8 L 459.8,418.3 L 460.9,444.7 L 460.6,470.6" fill="none" stroke="#1F2937" stroke-width="1.6" stroke-linecap="round" stroke-linejoin="round"/>
  <path d="M 460.0,340.0 L 461.0,365.7 L 459.8,392.8 L 460.5,417.1 L 459.2,443.8 L 460.1,470.6" fill="none" stroke="#1F2937" stroke-width="1.6" stroke-linecap="round" stroke-linejoin="round"/>
  <path d="M 460.0,470.0 L 435.9,470.1 L 414.0,471.3 L 387.8,471.2 L 364.9,469.1 L 342.3,469.5 L 318.6,469.2 L 295.4,468.6 L 270.2,468.5 L 246.0,470.5 L 223.3,468.7 L 200.7,470.0" fill="none" stroke="#1F2937" stroke-width="1.6" stroke-linecap="round" stroke-linejoin="round"/>
  <path d="M 460.0,470.0 L 436.3,470.0 L 412.8,469.3 L 388.1,470.3 L 364.0,471.2 L 343.3,469.1 L 316.9,470.0 L 293.3,469.4 L 271.6,469.0 L 247.2,468.6 L 222.9,470.2 L 200.3,469.5" fill="none" stroke="#1F2937" stroke-width="1.6" stroke-linecap="round" stroke-linejoin="round"/>
  <path d="M 200.0,470.0 L 201.2,443.3 L 199.3,416.8 L 200.3,391.3 L 199.4,364.7 L 200.2,339.4" fill="none" stroke="#1F2937" stroke-width="1.6" stroke-linecap="round" stroke-linejoin="round"/>
  <path d="M 200.0,470.0 L 199.4,443.9 L 198.6,417.2 L 198.6,392.2 L 200.4,367.2 L 199.7,339.3" fill="none" stroke="#1F2937" stroke-width="1.6" stroke-linecap="round" stroke-linejoin="round"/>
  <text x="330" y="365" font-family='"Caveat", "Indie Flower", "Comic Sans MS", "Marker Felt", "Bradley Hand", sans-serif' font-size="14" font-weight="600" fill="#1F2937" text-anchor="middle">Sort the queue</text>
  <text x="220" y="392" font-family='"Caveat", "Indie Flower", "Comic Sans MS", "Marker Felt", "Bradley Hand", sans-serif' font-size="12" font-weight="500" fill="#1F2937" text-anchor="start">• in-scope → live (10 min each)</text>
  <text x="220" y="412" font-family='"Caveat", "Indie Flower", "Comic Sans MS", "Marker Felt", "Bradley Hand", sans-serif' font-size="12" font-weight="500" fill="#1F2937" text-anchor="start">• out-of-scope → route to owner</text>
  <text x="220" y="432" font-family='"Caveat", "Indie Flower", "Comic Sans MS", "Marker Felt", "Bradley Hand", sans-serif' font-size="12" font-weight="500" fill="#1F2937" text-anchor="start">• already-answered → link back</text>
  <text x="220" y="452" font-family='"Caveat", "Indie Flower", "Comic Sans MS", "Marker Felt", "Bradley Hand", sans-serif' font-size="12" font-weight="500" fill="#1F2937" text-anchor="start">• unclear → ask in 1 line</text>
  <path d="M 572.6,384.4 L 572.0,386.6 L 569.5,387.7 L 568.9,389.7 L 567.2,390.9 L 565.6,392.0 L 563.8,392.9 L 561.8,393.0 L 559.8,394.0 L 558.0,392.7 L 556.1,392.3 L 554.1,391.9 L 551.6,391.7 L 551.1,389.2 L 549.3,388.0 L 548.5,386.0 L 548.1,383.9 L 548.9,381.8 L 547.8,379.7 L 549.4,378.0 L 550.0,376.0 L 550.5,373.8 L 552.2,372.5 L 554.2,371.5 L 555.8,369.9 L 558.1,370.2 L 560.2,369.9 L 562.4,369.7 L 564.7,369.8 L 565.9,372.1 L 567.1,373.8 L 569.5,374.2 L 571.0,375.9 L 572.3,377.7 L 571.3,380.2 L 571.3,382.2 L 570.9,384.1" fill="none" stroke="#1F2937" stroke-width="1.6" stroke-linecap="round" stroke-linejoin="round"/>
  <path d="M 572.6,385.2 L 570.8,386.9 L 570.9,389.4 L 569.0,390.8 L 566.4,390.9 L 565.6,393.6 L 563.1,393.1 L 561.3,394.8 L 559.2,393.2 L 557.1,393.3 L 555.3,392.4 L 553.4,391.6 L 551.8,390.4 L 550.6,388.8 L 548.2,387.7 L 549.0,385.1 L 547.3,383.3 L 548.8,381.2 L 549.2,379.2 L 548.5,376.8 L 550.8,375.8 L 551.0,373.2 L 553.1,372.4 L 555.0,371.6 L 556.9,370.9 L 558.7,369.0 L 561.0,369.3 L 563.2,369.3 L 564.7,371.6 L 566.3,372.8 L 567.6,374.2 L 569.7,375.0 L 570.6,376.9 L 572.6,378.5 L 571.0,380.9 L 573.2,383.0 L 572.2,385.1" fill="none" stroke="#1F2937" stroke-width="1.6" stroke-linecap="round" stroke-linejoin="round"/>
  <path d="M 556.0,385.0 L 556.8,385.9 L 560.0,383.2 L 562.9,385.4 L 564.7,385.0" fill="none" stroke="#1F2937" stroke-width="1.2" stroke-linecap="round" stroke-linejoin="round"/>
  <path d="M 560.0,394.0 L 559.5,401.5 L 560.9,411.4 L 559.7,420.0 L 560.2,427.5" fill="none" stroke="#1F2937" stroke-width="1.6" stroke-linecap="round" stroke-linejoin="round"/>
  <path d="M 560.0,394.0 L 561.7,403.0 L 561.0,410.4 L 560.7,420.1 L 560.9,428.6" fill="none" stroke="#1F2937" stroke-width="1.6" stroke-linecap="round" stroke-linejoin="round"/>
  <path d="M 560.0,402.0 L 555.5,404.3 L 550.2,408.8 L 547.2,413.1 L 544.3,416.0" fill="none" stroke="#1F2937" stroke-width="1.6" stroke-linecap="round" stroke-linejoin="round"/>
  <path d="M 560.0,402.0 L 556.3,406.9 L 550.1,408.8 L 548.8,414.3 L 544.8,415.6" fill="none" stroke="#1F2937" stroke-width="1.6" stroke-linecap="round" stroke-linejoin="round"/>
  <path d="M 560.0,402.0 L 563.9,405.7 L 569.7,407.9 L 573.0,412.0 L 575.9,416.9" fill="none" stroke="#1F2937" stroke-width="1.6" stroke-linecap="round" stroke-linejoin="round"/>
  <path d="M 560.0,402.0 L 565.4,405.6 L 569.0,407.9 L 572.8,411.1 L 576.9,416.2" fill="none" stroke="#1F2937" stroke-width="1.6" stroke-linecap="round" stroke-linejoin="round"/>
  <path d="M 560.0,428.0 L 558.4,431.9 L 554.4,437.4 L 551.6,446.3 L 547.3,450.9" fill="none" stroke="#1F2937" stroke-width="1.6" stroke-linecap="round" stroke-linejoin="round"/>
  <path d="M 560.0,428.0 L 556.6,432.3 L 554.9,439.7 L 549.5,442.5 L 547.7,450.9" fill="none" stroke="#1F2937" stroke-width="1.6" stroke-linecap="round" stroke-linejoin="round"/>
  <path d="M 560.0,428.0 L 564.6,433.9 L 567.5,438.3 L 571.0,442.6 L 571.3,449.3" fill="none" stroke="#1F2937" stroke-width="1.6" stroke-linecap="round" stroke-linejoin="round"/>
  <path d="M 560.0,428.0 L 564.8,433.8 L 565.9,439.8 L 570.7,444.9 L 572.4,449.8" fill="none" stroke="#1F2937" stroke-width="1.6" stroke-linecap="round" stroke-linejoin="round"/>
  <text x="595" y="380" font-family='"Caveat", "Indie Flower", "Comic Sans MS", "Marker Felt", "Bradley Hand", sans-serif' font-size="11" font-weight="500" fill="#6B7280" text-anchor="start">(host)</text>
  <text x="700" y="380" font-family='"Caveat", "Indie Flower", "Comic Sans MS", "Marker Felt", "Bradley Hand", sans-serif' font-size="15" font-weight="600" fill="#1F2937" text-anchor="start">rotation is the legitimacy</text>
  <text x="700" y="402" font-family='"Caveat", "Indie Flower", "Comic Sans MS", "Marker Felt", "Bradley Hand", sans-serif' font-size="13" font-weight="500" fill="#6B7280" text-anchor="start">host rotates monthly</text>
  <text x="520" y="510" font-family='"Caveat", "Indie Flower", "Comic Sans MS", "Marker Felt", "Bradley Hand", sans-serif' font-size="13" font-weight="700" fill="#6B7280" text-anchor="middle">MINUTES 10–55  —  LIVE WORK</text>
  <rect x="200.0" y="530.0" width="260.0" height="90.0" fill="#6B7280" fill-opacity="0.06" stroke="none"/>
  <path d="M 200.0,530.0 L 224.5,530.3 L 246.0,529.1 L 271.9,528.9 L 295.9,530.2 L 319.6,530.2 L 341.8,531.3 L 366.6,528.6 L 389.3,530.1 L 412.3,530.9 L 436.2,529.1 L 459.6,530.6" fill="none" stroke="#1F2937" stroke-width="1.6" stroke-linecap="round" stroke-linejoin="round"/>
  <path d="M 200.0,530.0 L 223.0,530.4 L 247.9,529.0 L 270.3,531.2 L 293.3,530.5 L 318.7,531.2 L 340.9,531.4 L 364.7,528.8 L 390.4,531.1 L 411.6,530.0 L 436.6,529.6 L 460.3,530.5" fill="none" stroke="#1F2937" stroke-width="1.6" stroke-linecap="round" stroke-linejoin="round"/>
  <path d="M 460.0,530.0 L 461.4,551.3 L 459.5,574.8 L 458.7,597.9 L 459.8,620.1" fill="none" stroke="#1F2937" stroke-width="1.6" stroke-linecap="round" stroke-linejoin="round"/>
  <path d="M 460.0,530.0 L 459.6,552.7 L 460.1,574.6 L 460.2,597.1 L 459.6,620.3" fill="none" stroke="#1F2937" stroke-width="1.6" stroke-linecap="round" stroke-linejoin="round"/>
  <path d="M 460.0,620.0 L 435.2,619.7 L 411.7,619.1 L 390.6,621.4 L 365.3,621.1 L 342.6,618.7 L 318.8,620.3 L 293.9,620.5 L 270.4,621.1 L 245.9,618.5 L 222.4,619.5 L 200.5,619.5" fill="none" stroke="#1F2937" stroke-width="1.6" stroke-linecap="round" stroke-linejoin="round"/>
  <path d="M 460.0,620.0 L 437.3,620.6 L 413.5,619.2 L 389.4,621.4 L 364.7,621.1 L 342.9,620.9 L 318.2,620.7 L 295.1,620.7 L 270.3,620.8 L 248.5,618.8 L 224.8,620.4 L 200.2,620.6" fill="none" stroke="#1F2937" stroke-width="1.6" stroke-linecap="round" stroke-linejoin="round"/>
  <path d="M 200.0,620.0 L 199.0,597.9 L 200.3,575.8 L 200.7,552.2 L 199.3,529.3" fill="none" stroke="#1F2937" stroke-width="1.6" stroke-linecap="round" stroke-linejoin="round"/>
  <path d="M 200.0,620.0 L 201.1,596.7 L 200.9,574.3 L 198.6,551.9 L 199.6,530.1" fill="none" stroke="#1F2937" stroke-width="1.6" stroke-linecap="round" stroke-linejoin="round"/>
  <text x="330" y="555" font-family='"Caveat", "Indie Flower", "Comic Sans MS", "Marker Felt", "Bradley Hand", sans-serif' font-size="14" font-weight="600" fill="#1F2937" text-anchor="middle">Pair on each item</text>
  <text x="220" y="580" font-family='"Caveat", "Indie Flower", "Comic Sans MS", "Marker Felt", "Bradley Hand", sans-serif' font-size="12" font-weight="500" fill="#1F2937" text-anchor="start">• demo → critique → decision</text>
  <text x="220" y="600" font-family='"Caveat", "Indie Flower", "Comic Sans MS", "Marker Felt", "Bradley Hand", sans-serif' font-size="12" font-weight="500" fill="#1F2937" text-anchor="start">• timebox 10 min per item</text>
  <path d="M 610.5,552.1 L 609.5,553.8 L 610.2,556.0 L 608.2,557.0 L 606.8,558.1 L 605.8,559.5 L 604.6,561.2 L 602.5,560.6 L 600.9,561.5 L 599.1,561.4 L 597.4,560.6 L 595.3,561.2 L 594.1,559.5 L 593.4,557.7 L 591.4,557.2 L 590.9,555.4 L 590.9,553.6 L 590.6,552.0 L 590.8,550.4 L 590.9,548.8 L 591.8,547.3 L 591.2,545.0 L 593.3,544.5 L 593.6,542.0 L 595.8,542.1 L 597.3,541.1 L 599.0,540.0 L 601.0,540.3 L 602.5,541.9 L 604.8,540.9 L 606.3,542.2 L 607.8,543.5 L 608.7,545.1 L 608.4,547.3 L 609.6,548.7 L 609.1,550.4 L 609.4,552.0" fill="none" stroke="#1F2937" stroke-width="1.6" stroke-linecap="round" stroke-linejoin="round"/>
  <path d="M 610.4,553.5 L 608.8,554.8 L 608.9,556.8 L 607.9,558.4 L 606.6,559.8 L 604.2,559.2 L 602.8,560.0 L 601.3,560.6 L 599.5,562.4 L 598.0,560.3 L 595.7,561.7 L 594.5,559.9 L 593.4,558.4 L 591.1,558.0 L 590.9,556.0 L 589.1,554.6 L 590.0,552.5 L 588.7,550.7 L 590.8,549.2 L 590.1,547.1 L 592.0,546.1 L 592.3,544.2 L 593.5,542.7 L 595.2,541.9 L 597.3,542.6 L 598.8,542.2 L 600.4,540.9 L 602.2,541.4 L 604.0,541.5 L 605.8,542.1 L 607.6,542.9 L 608.4,544.7 L 609.4,546.3 L 609.0,548.4 L 609.7,549.9 L 610.7,551.7 L 610.9,553.6" fill="none" stroke="#1F2937" stroke-width="1.6" stroke-linecap="round" stroke-linejoin="round"/>
  <path d="M 600.0,561.4 L 600.3,567.0 L 599.6,577.0 L 599.9,584.0 L 599.4,590.4" fill="none" stroke="#1F2937" stroke-width="1.6" stroke-linecap="round" stroke-linejoin="round"/>
  <path d="M 600.0,561.4 L 600.6,569.7 L 601.0,577.5 L 601.2,583.9 L 600.8,591.2" fill="none" stroke="#1F2937" stroke-width="1.6" stroke-linecap="round" stroke-linejoin="round"/>
  <path d="M 600.0,568.2 L 597.3,572.7 L 592.7,573.6 L 589.0,578.6 L 586.5,579.1" fill="none" stroke="#1F2937" stroke-width="1.6" stroke-linecap="round" stroke-linejoin="round"/>
  <path d="M 600.0,568.2 L 594.8,569.4 L 592.3,575.6 L 590.0,576.8 L 585.8,581.1" fill="none" stroke="#1F2937" stroke-width="1.6" stroke-linecap="round" stroke-linejoin="round"/>
  <path d="M 600.0,568.2 L 604.9,569.2 L 604.8,574.7 L 608.9,578.7 L 613.9,579.3" fill="none" stroke="#1F2937" stroke-width="1.6" stroke-linecap="round" stroke-linejoin="round"/>
  <path d="M 600.0,568.2 L 602.6,573.0 L 607.9,573.7 L 610.1,577.2 L 613.2,579.2" fill="none" stroke="#1F2937" stroke-width="1.6" stroke-linecap="round" stroke-linejoin="round"/>
  <path d="M 600.0,590.3 L 599.0,595.0 L 596.3,598.8 L 591.7,604.7 L 590.2,609.1" fill="none" stroke="#1F2937" stroke-width="1.6" stroke-linecap="round" stroke-linejoin="round"/>
  <path d="M 600.0,590.3 L 596.1,593.1 L 594.7,599.5 L 593.5,603.1 L 589.9,609.6" fill="none" stroke="#1F2937" stroke-width="1.6" stroke-linecap="round" stroke-linejoin="round"/>
  <path d="M 600.0,590.3 L 600.9,595.6 L 604.1,600.5 L 607.1,604.4 L 610.9,609.5" fill="none" stroke="#1F2937" stroke-width="1.6" stroke-linecap="round" stroke-linejoin="round"/>
  <path d="M 600.0,590.3 L 603.9,596.3 L 605.7,599.2 L 606.3,604.5 L 610.6,609.1" fill="none" stroke="#1F2937" stroke-width="1.6" stroke-linecap="round" stroke-linejoin="round"/>
  <path d="M 649.5,551.5 L 649.7,553.3 L 649.1,554.9 L 647.8,556.1 L 648.2,558.6 L 646.6,559.6 L 645.3,561.3 L 643.5,562.0 L 641.4,560.9 L 639.7,560.4 L 638.0,560.6 L 635.8,561.7 L 634.2,560.4 L 633.6,558.4 L 632.1,557.4 L 631.8,555.6 L 630.7,554.2 L 630.4,552.6 L 629.9,550.8 L 629.6,549.0 L 630.7,547.4 L 632.3,546.4 L 631.8,543.8 L 634.4,544.0 L 635.1,542.0 L 637.1,542.2 L 638.7,542.0 L 640.3,541.9 L 642.4,540.1 L 644.0,541.3 L 646.0,541.7 L 646.3,544.2 L 649.0,544.2 L 649.5,546.1 L 650.6,547.8 L 649.1,549.9 L 650.8,551.6" fill="none" stroke="#1F2937" stroke-width="1.6" stroke-linecap="round" stroke-linejoin="round"/>
  <path d="M 649.5,552.2 L 649.3,553.8 L 648.9,555.5 L 648.2,557.1 L 646.9,558.3 L 645.3,559.0 L 644.4,560.9 L 642.5,561.0 L 640.8,562.4 L 639.0,561.3 L 637.1,561.3 L 635.8,560.0 L 634.6,558.7 L 632.3,558.7 L 632.1,556.6 L 630.0,555.7 L 629.0,554.0 L 630.0,551.9 L 629.5,550.1 L 629.1,548.1 L 631.9,547.3 L 631.0,544.7 L 632.5,543.4 L 634.7,543.4 L 635.5,541.2 L 637.5,541.4 L 639.3,542.1 L 641.0,541.4 L 642.5,542.4 L 644.4,542.1 L 645.9,543.0 L 646.5,544.9 L 649.3,544.9 L 649.5,546.9 L 648.8,549.0 L 649.3,550.5 L 650.3,552.2" fill="none" stroke="#1F2937" stroke-width="1.6" stroke-linecap="round" stroke-linejoin="round"/>
  <path d="M 636.6,553.8 L 638.4,552.0 L 640.4,553.7 L 640.7,553.5 L 643.4,554.3" fill="none" stroke="#1F2937" stroke-width="1.2" stroke-linecap="round" stroke-linejoin="round"/>
  <path d="M 640.0,561.4 L 641.3,570.0 L 638.3,576.7 L 640.2,582.4 L 640.5,590.5" fill="none" stroke="#1F2937" stroke-width="1.6" stroke-linecap="round" stroke-linejoin="round"/>
  <path d="M 640.0,561.4 L 638.3,568.1 L 638.3,576.3 L 638.6,584.7 L 639.1,589.5" fill="none" stroke="#1F2937" stroke-width="1.6" stroke-linecap="round" stroke-linejoin="round"/>
  <path d="M 640.0,568.2 L 637.0,572.3 L 633.7,576.0 L 629.8,575.3 L 626.0,580.0" fill="none" stroke="#1F2937" stroke-width="1.6" stroke-linecap="round" stroke-linejoin="round"/>
  <path d="M 640.0,568.2 L 637.8,570.4 L 632.0,574.9 L 629.5,578.0 L 627.3,580.0" fill="none" stroke="#1F2937" stroke-width="1.6" stroke-linecap="round" stroke-linejoin="round"/>
  <path d="M 640.0,568.2 L 642.5,571.4 L 645.0,574.0 L 651.4,576.7 L 654.1,580.0" fill="none" stroke="#1F2937" stroke-width="1.6" stroke-linecap="round" stroke-linejoin="round"/>
  <path d="M 640.0,568.2 L 642.6,572.4 L 646.4,574.9 L 651.7,576.3 L 653.8,579.7" fill="none" stroke="#1F2937" stroke-width="1.6" stroke-linecap="round" stroke-linejoin="round"/>
  <path d="M 640.0,590.3 L 637.4,596.9 L 633.2,600.4 L 631.7,604.0 L 630.5,608.8" fill="none" stroke="#1F2937" stroke-width="1.6" stroke-linecap="round" stroke-linejoin="round"/>
  <path d="M 640.0,590.3 L 636.5,596.5 L 635.1,598.7 L 632.9,604.3 L 630.4,608.5" fill="none" stroke="#1F2937" stroke-width="1.6" stroke-linecap="round" stroke-linejoin="round"/>
  <path d="M 640.0,590.3 L 642.2,593.9 L 646.4,598.9 L 646.9,604.9 L 649.8,608.1" fill="none" stroke="#1F2937" stroke-width="1.6" stroke-linecap="round" stroke-linejoin="round"/>
  <path d="M 640.0,590.3 L 642.8,593.5 L 643.2,598.4 L 648.7,605.7 L 650.4,609.8" fill="none" stroke="#1F2937" stroke-width="1.6" stroke-linecap="round" stroke-linejoin="round"/>
  <text x="520" y="660" font-family='"Caveat", "Indie Flower", "Comic Sans MS", "Marker Felt", "Bradley Hand", sans-serif' font-size="13" font-weight="700" fill="#6B7280" text-anchor="middle">MINUTE 60  —  LOG</text>
  <rect x="200.0" y="680.0" width="700.0" height="56.0" fill="#10B981" fill-opacity="0.08" stroke="none"/>
  <path d="M 200.0,680.0 L 223.6,680.3 L 244.0,681.5 L 267.5,681.1 L 291.2,680.5 L 311.7,678.7 L 335.8,681.1 L 359.3,681.5 L 380.5,678.6 L 404.4,678.5 L 426.3,679.1 L 449.9,681.4 L 472.3,680.1 L 494.6,680.9 L 516.6,680.1 L 537.6,679.2 L 561.4,679.8 L 584.4,680.3 L 606.4,679.7 L 628.6,680.9 L 650.9,679.7 L 675.0,679.0 L 697.3,680.2 L 719.0,678.5 L 740.7,680.1 L 765.0,681.3 L 786.2,678.8 L 808.2,678.6 L 831.6,679.5 L 854.2,681.2 L 876.4,679.1 L 900.4,680.6" fill="none" stroke="#1F2937" stroke-width="1.6" stroke-linecap="round" stroke-linejoin="round"/>
  <path d="M 200.0,680.0 L 223.1,678.9 L 244.0,680.3 L 268.5,680.0 L 290.8,679.7 L 314.4,680.4 L 336.2,678.9 L 357.2,681.1 L 382.1,681.2 L 404.0,680.8 L 424.8,679.2 L 449.2,680.6 L 469.5,680.9 L 492.1,680.5 L 516.8,678.9 L 538.0,680.7 L 562.1,679.2 L 583.8,679.2 L 606.5,678.7 L 628.2,681.5 L 652.3,681.0 L 672.9,681.0 L 698.1,679.7 L 719.9,681.0 L 742.2,679.0 L 765.0,680.8 L 788.4,680.1 L 809.2,679.3 L 831.5,680.0 L 855.9,680.4 L 878.2,678.5 L 899.4,680.3" fill="none" stroke="#1F2937" stroke-width="1.6" stroke-linecap="round" stroke-linejoin="round"/>
  <path d="M 900.0,680.0 L 900.3,695.5 L 899.5,707.5 L 899.1,723.1 L 899.9,735.5" fill="none" stroke="#1F2937" stroke-width="1.6" stroke-linecap="round" stroke-linejoin="round"/>
  <path d="M 900.0,680.0 L 901.3,692.6 L 899.2,706.6 L 899.9,723.2 L 899.6,735.8" fill="none" stroke="#1F2937" stroke-width="1.6" stroke-linecap="round" stroke-linejoin="round"/>
  <path d="M 900.0,736.0 L 877.7,737.4 L 854.2,735.0 L 833.6,735.5 L 808.8,735.6 L 788.5,736.3 L 764.3,734.7 L 740.5,736.5 L 719.5,736.2 L 697.5,734.9 L 675.5,735.8 L 650.9,734.6 L 627.5,735.8 L 605.0,735.9 L 583.6,735.5 L 560.2,736.0 L 538.9,735.9 L 514.7,735.2 L 492.2,735.5 L 470.4,736.9 L 448.8,735.9 L 427.3,735.3 L 402.5,736.1 L 380.7,737.4 L 356.9,736.6 L 336.5,737.3 L 312.2,735.2 L 290.0,737.1 L 266.3,735.3 L 244.3,736.6 L 221.6,736.9 L 199.5,736.4" fill="none" stroke="#1F2937" stroke-width="1.6" stroke-linecap="round" stroke-linejoin="round"/>
  <path d="M 900.0,736.0 L 876.3,737.3 L 854.6,736.7 L 832.1,734.9 L 808.9,736.7 L 785.7,735.4 L 763.5,735.4 L 741.1,735.3 L 718.4,737.2 L 697.0,736.9 L 674.5,734.8 L 650.7,735.1 L 629.0,736.7 L 606.1,736.5 L 584.9,735.7 L 560.2,734.7 L 537.8,737.2 L 516.6,737.3 L 493.4,735.7 L 472.3,734.7 L 448.2,736.7 L 424.6,734.9 L 402.9,736.7 L 381.2,735.0 L 358.3,737.2 L 334.8,736.9 L 313.4,736.4 L 291.8,735.4 L 269.2,734.8 L 244.6,735.2 L 222.5,734.7 L 200.5,735.8" fill="none" stroke="#1F2937" stroke-width="1.6" stroke-linecap="round" stroke-linejoin="round"/>
  <path d="M 200.0,736.0 L 200.5,721.5 L 199.1,707.1 L 200.1,694.9 L 200.4,679.3" fill="none" stroke="#1F2937" stroke-width="1.6" stroke-linecap="round" stroke-linejoin="round"/>
  <path d="M 200.0,736.0 L 200.5,722.3 L 199.2,708.0 L 199.3,692.8 L 200.1,680.5" fill="none" stroke="#1F2937" stroke-width="1.6" stroke-linecap="round" stroke-linejoin="round"/>
  <text x="220" y="705" font-family='"Caveat", "Indie Flower", "Comic Sans MS", "Marker Felt", "Bradley Hand", sans-serif' font-size="13" font-weight="600" fill="#1F2937" text-anchor="start">Log entry pinned in the channel:</text>
  <text x="220" y="725" font-family='"Caveat", "Indie Flower", "Comic Sans MS", "Marker Felt", "Bradley Hand", sans-serif' font-size="12" font-weight="500" fill="#6B7280" text-anchor="start">what was asked • what we decided • link to the artefact</text>
  </svg>
