<svg xmlns="http://www.w3.org/2000/svg" viewBox="0 0 1200 700" role="img" aria-label="Builder Day 1  →  Builder Day 2">
  <rect width="1200" height="700" fill="#FFFFFF"/>
  <text x="600.0" y="48" font-family='"Caveat", "Indie Flower", "Comic Sans MS", "Marker Felt", "Bradley Hand", sans-serif' font-size="28" font-weight="700" fill="#1F2937" text-anchor="middle">Builder Day 1  →  Builder Day 2</text>
  <text x="600.0" y="76" font-family='"Caveat", "Indie Flower", "Comic Sans MS", "Marker Felt", "Bradley Hand", sans-serif' font-size="15" font-weight="500" fill="#6B7280" text-anchor="middle">Setup friction was the lesson. Layer 0 became the floor.</text>

  <text x="280" y="124" font-family='"Caveat", "Indie Flower", "Comic Sans MS", "Marker Felt", "Bradley Hand", sans-serif' font-size="18" font-weight="700" fill="#F59E0B" text-anchor="middle">BUILDER DAY 1</text>
  <rect x="80.0" y="140.0" width="400.0" height="420.0" fill="#F59E0B" fill-opacity="0.05" stroke="none"/>
  <path d="M 80.0,140.0 L 102.3,141.3 L 123.0,140.0 L 145.8,139.4 L 170.3,139.2 L 192.6,138.6 L 212.5,139.5 L 236.2,139.7 L 257.1,138.8 L 279.7,139.0 L 302.2,138.8 L 323.0,139.9 L 347.0,140.3 L 368.0,139.7 L 390.3,139.7 L 412.7,139.3 L 436.7,140.0 L 458.9,139.2 L 479.5,140.3" fill="none" stroke="#1F2937" stroke-width="1.6" stroke-linecap="round" stroke-linejoin="round"/>
  <path d="M 80.0,140.0 L 102.3,138.6 L 123.6,141.2 L 148.1,139.5 L 169.5,139.4 L 190.4,141.0 L 214.6,140.1 L 236.0,141.1 L 256.5,141.3 L 279.8,139.4 L 301.6,139.7 L 323.8,141.3 L 346.3,141.2 L 369.6,138.9 L 391.3,140.0 L 413.9,139.9 L 434.9,138.6 L 456.5,140.1 L 479.9,139.3" fill="none" stroke="#1F2937" stroke-width="1.6" stroke-linecap="round" stroke-linejoin="round"/>
  <path d="M 480.0,140.0 L 479.8,161.7 L 480.6,183.2 L 479.7,207.5 L 478.7,228.8 L 481.5,251.6 L 480.3,273.1 L 480.2,293.5 L 479.0,316.9 L 479.8,338.9 L 478.8,359.8 L 479.7,382.1 L 478.7,405.9 L 480.9,427.8 L 479.6,450.3 L 479.0,472.4 L 480.1,493.5 L 480.0,515.1 L 479.7,538.4 L 479.4,560.6" fill="none" stroke="#1F2937" stroke-width="1.6" stroke-linecap="round" stroke-linejoin="round"/>
  <path d="M 480.0,140.0 L 479.7,161.2 L 481.0,185.4 L 479.3,207.8 L 480.0,227.2 L 479.5,251.6 L 479.7,273.9 L 478.5,295.6 L 480.7,317.7 L 480.8,340.1 L 480.2,360.5 L 481.4,384.0 L 478.6,406.6 L 480.3,426.6 L 478.5,450.2 L 479.9,472.9 L 480.3,494.9 L 478.7,514.8 L 479.9,537.2 L 480.2,560.3" fill="none" stroke="#1F2937" stroke-width="1.6" stroke-linecap="round" stroke-linejoin="round"/>
  <path d="M 480.0,560.0 L 457.6,560.0 L 436.2,559.8 L 413.6,558.8 L 390.7,561.4 L 367.8,559.2 L 347.9,559.5 L 323.4,558.8 L 301.9,559.8 L 280.8,558.5 L 258.6,560.1 L 234.3,558.6 L 213.5,560.5 L 192.1,558.9 L 169.4,560.0 L 148.1,560.0 L 123.2,560.5 L 102.5,559.7 L 80.2,560.7" fill="none" stroke="#1F2937" stroke-width="1.6" stroke-linecap="round" stroke-linejoin="round"/>
  <path d="M 480.0,560.0 L 458.5,559.9 L 435.7,559.8 L 412.0,559.1 L 390.8,560.9 L 368.8,560.1 L 346.5,561.1 L 324.7,559.1 L 302.9,561.5 L 280.8,559.1 L 257.7,560.3 L 235.5,558.8 L 212.6,559.6 L 190.9,560.4 L 169.5,561.5 L 145.9,561.2 L 123.5,561.0 L 101.9,561.3 L 80.4,559.4" fill="none" stroke="#1F2937" stroke-width="1.6" stroke-linecap="round" stroke-linejoin="round"/>
  <path d="M 80.0,560.0 L 79.2,537.6 L 79.3,514.5 L 80.3,492.2 L 80.3,470.9 L 78.6,450.7 L 78.6,426.5 L 80.8,405.8 L 80.0,382.9 L 81.5,359.8 L 79.5,338.4 L 79.3,316.0 L 78.8,293.9 L 80.2,272.6 L 80.1,251.1 L 78.9,227.7 L 78.8,204.9 L 79.3,185.7 L 81.0,163.0 L 79.6,140.7" fill="none" stroke="#1F2937" stroke-width="1.6" stroke-linecap="round" stroke-linejoin="round"/>
  <path d="M 80.0,560.0 L 79.1,537.4 L 79.2,514.8 L 79.3,494.4 L 79.0,470.8 L 78.8,450.4 L 80.0,426.2 L 80.1,405.1 L 79.4,383.5 L 79.1,359.7 L 81.2,338.5 L 79.6,315.5 L 79.2,295.5 L 78.8,272.8 L 79.7,249.4 L 81.1,228.4 L 79.6,206.0 L 78.9,184.7 L 80.0,161.9 L 79.7,139.4" fill="none" stroke="#1F2937" stroke-width="1.6" stroke-linecap="round" stroke-linejoin="round"/>
  <path d="M 180.0,200.0 L 203.2,198.9 L 229.1,201.1 L 251.1,198.8 L 275.0,200.8 L 300.3,200.3" fill="none" stroke="#1F2937" stroke-width="1.6" stroke-linecap="round" stroke-linejoin="round"/>
  <path d="M 180.0,200.0 L 205.5,198.9 L 228.1,201.0 L 252.9,198.9 L 274.9,198.8 L 300.7,199.8" fill="none" stroke="#1F2937" stroke-width="1.6" stroke-linecap="round" stroke-linejoin="round"/>
  <path d="M 300.0,200.0 L 300.8,219.3 L 298.8,236.9 L 298.8,255.0 L 299.5,272.5" fill="none" stroke="#1F2937" stroke-width="1.6" stroke-linecap="round" stroke-linejoin="round"/>
  <path d="M 300.0,200.0 L 301.2,216.5 L 300.1,237.3 L 301.0,255.3 L 300.5,271.8" fill="none" stroke="#1F2937" stroke-width="1.6" stroke-linecap="round" stroke-linejoin="round"/>
  <path d="M 300.0,272.0 L 275.7,271.5 L 252.7,271.9 L 229.0,273.1 L 205.3,272.3 L 180.7,271.4" fill="none" stroke="#1F2937" stroke-width="1.6" stroke-linecap="round" stroke-linejoin="round"/>
  <path d="M 300.0,272.0 L 277.2,273.2 L 253.5,272.3 L 229.4,271.6 L 204.7,270.8 L 179.8,271.7" fill="none" stroke="#1F2937" stroke-width="1.6" stroke-linecap="round" stroke-linejoin="round"/>
  <path d="M 180.0,272.0 L 179.6,255.2 L 180.2,236.5 L 181.5,217.7 L 180.2,200.0" fill="none" stroke="#1F2937" stroke-width="1.6" stroke-linecap="round" stroke-linejoin="round"/>
  <path d="M 180.0,272.0 L 179.9,253.6 L 178.7,235.7 L 178.9,217.7 L 180.2,200.4" fill="none" stroke="#1F2937" stroke-width="1.6" stroke-linecap="round" stroke-linejoin="round"/>
  <path d="M 168.0,272.0 L 192.7,272.2 L 216.4,272.9 L 238.2,272.0 L 265.6,271.9 L 288.2,270.9 L 312.7,271.8" fill="none" stroke="#1F2937" stroke-width="1.6" stroke-linecap="round" stroke-linejoin="round"/>
  <path d="M 168.0,272.0 L 191.4,273.7 L 217.2,270.2 L 239.8,270.1 L 262.7,271.6 L 286.2,271.3 L 312.9,271.8" fill="none" stroke="#1F2937" stroke-width="1.6" stroke-linecap="round" stroke-linejoin="round"/>
  <path d="M 168.0,276.0 L 192.8,276.0 L 216.7,276.0 L 238.2,277.7 L 262.8,274.3 L 287.0,275.1 L 313.0,276.5" fill="none" stroke="#1F2937" stroke-width="1.4" stroke-linecap="round" stroke-linejoin="round"/>
  <path d="M 168.0,276.0 L 192.1,275.5 L 217.1,275.8 L 241.1,274.6 L 263.5,277.6 L 288.0,277.1 L 312.4,276.6" fill="none" stroke="#1F2937" stroke-width="1.4" stroke-linecap="round" stroke-linejoin="round"/>
  <path d="M 188.0,212.0 L 216.0,213.4 L 240.7,212.9 L 266.0,213.2 L 292.8,212.5" fill="none" stroke="#EF4444" stroke-width="1.4" stroke-linecap="round" stroke-linejoin="round"/>
  <path d="M 188.0,224.0 L 212.3,225.7 L 234.1,225.3 L 259.4,225.1 L 282.3,224.3" fill="none" stroke="#EF4444" stroke-width="1.4" stroke-linecap="round" stroke-linejoin="round"/>
  <path d="M 291.8,260.6 L 292.7,261.8 L 291.9,262.8 L 290.2,263.0 L 289.4,263.5 L 289.2,264.6 L 288.7,266.0 L 287.6,266.1 L 286.4,264.8 L 285.5,265.4 L 284.7,264.7 L 283.7,264.9 L 282.1,265.5 L 281.1,264.8 L 281.5,263.1 L 281.4,262.1 L 279.9,261.6 L 279.2,260.5 L 281.1,259.5 L 281.0,258.6 L 280.2,257.3 L 280.7,256.2 L 281.4,255.4 L 282.1,254.4 L 283.3,254.0 L 284.4,254.0 L 285.5,253.9 L 286.6,253.8 L 287.9,253.2 L 288.4,255.0 L 289.1,255.6 L 290.1,256.0 L 291.3,256.4 L 290.9,257.8 L 291.8,258.5 L 293.1,259.4 L 291.7,260.5" fill="none" stroke="#EF4444" stroke-width="2.4" stroke-linecap="round" stroke-linejoin="round"/>
  <path d="M 292.8,261.5 L 290.7,261.9 L 290.9,263.1 L 289.7,263.4 L 290.4,265.7 L 288.2,264.3 L 287.9,266.0 L 286.7,265.4 L 285.8,265.9 L 284.9,265.2 L 283.9,265.0 L 282.7,265.3 L 282.8,263.5 L 280.5,264.2 L 280.8,262.7 L 279.3,262.1 L 280.4,260.7 L 281.1,259.8 L 279.6,258.6 L 280.5,257.7 L 281.7,257.3 L 281.7,256.0 L 282.4,255.4 L 283.6,255.5 L 284.5,255.2 L 285.3,254.8 L 286.2,254.2 L 287.1,254.8 L 288.4,254.2 L 289.7,254.1 L 290.8,254.7 L 290.2,256.8 L 290.7,257.5 L 291.1,258.4 L 291.2,259.3 L 291.3,260.2 L 291.1,261.1" fill="none" stroke="#EF4444" stroke-width="2.4" stroke-linecap="round" stroke-linejoin="round"/>
  <path d="M 282.1,256.1 L 284.4,257.6 L 286.6,259.9 L 287.9,261.5 L 289.8,264.1" fill="none" stroke="#EF4444" stroke-width="2.4" stroke-linecap="round" stroke-linejoin="round"/>
  <path d="M 282.1,263.9 L 284.4,262.3 L 286.4,260.2 L 288.3,258.2 L 289.7,256.4" fill="none" stroke="#EF4444" stroke-width="2.4" stroke-linecap="round" stroke-linejoin="round"/>
  <path d="M 393.5,231.5 L 392.8,233.8 L 391.4,235.7 L 390.5,237.9 L 387.9,238.5 L 386.9,240.9 L 384.6,241.7 L 382.5,243.0 L 380.1,242.1 L 377.6,243.1 L 375.7,241.3 L 373.8,240.0 L 372.1,238.7 L 369.7,238.0 L 369.0,235.6 L 367.8,233.7 L 366.6,231.6 L 367.3,229.3 L 366.1,226.8 L 366.5,224.4 L 368.1,222.4 L 369.0,220.1 L 372.0,219.8 L 373.4,217.9 L 375.0,215.7 L 377.6,215.9 L 379.9,215.2 L 382.2,216.3 L 384.5,216.6 L 386.5,217.7 L 388.9,218.5 L 389.3,221.3 L 392.3,222.0 L 392.8,224.5 L 392.5,226.9 L 392.6,229.1 L 392.0,231.2" fill="none" stroke="#1F2937" stroke-width="1.6" stroke-linecap="round" stroke-linejoin="round"/>
  <path d="M 393.5,232.0 L 391.2,233.6 L 390.7,235.8 L 390.7,238.7 L 388.3,239.7 L 386.6,241.4 L 383.8,240.6 L 381.8,241.4 L 379.6,243.2 L 377.5,241.5 L 375.3,241.0 L 373.4,239.9 L 371.8,238.4 L 369.0,237.9 L 367.7,235.9 L 366.5,233.7 L 367.0,231.1 L 366.7,228.8 L 368.2,226.8 L 368.7,224.7 L 368.0,221.9 L 370.3,220.6 L 371.8,218.8 L 373.3,216.9 L 375.9,217.0 L 378.0,215.9 L 380.4,215.4 L 382.5,217.2 L 385.2,216.1 L 387.2,217.4 L 388.9,219.2 L 391.2,220.3 L 392.5,222.4 L 391.6,225.3 L 393.2,227.2 L 392.2,229.5 L 393.0,231.9" fill="none" stroke="#1F2937" stroke-width="1.6" stroke-linecap="round" stroke-linejoin="round"/>
  <path d="M 375.6,233.6 L 379.4,232.2 L 379.2,235.6 L 381.6,233.9 L 384.0,235.1" fill="none" stroke="#1F2937" stroke-width="1.2" stroke-linecap="round" stroke-linejoin="round"/>
  <path d="M 373.4,222.6 L 372.7,223.8 L 374.5,223.2 L 376.3,223.2 L 377.4,224.6" fill="none" stroke="#1F2937" stroke-width="1.2" stroke-linecap="round" stroke-linejoin="round"/>
  <path d="M 382.2,224.8 L 384.1,223.1 L 384.6,224.5 L 385.5,223.7 L 385.7,223.1" fill="none" stroke="#1F2937" stroke-width="1.2" stroke-linecap="round" stroke-linejoin="round"/>
  <path d="M 380.0,242.4 L 378.8,252.8 L 379.8,260.4 L 378.5,272.0 L 379.0,280.3" fill="none" stroke="#1F2937" stroke-width="1.6" stroke-linecap="round" stroke-linejoin="round"/>
  <path d="M 380.0,242.4 L 379.6,253.4 L 378.8,262.2 L 380.4,269.3 L 380.0,280.4" fill="none" stroke="#1F2937" stroke-width="1.6" stroke-linecap="round" stroke-linejoin="round"/>
  <path d="M 380.0,251.2 L 377.5,256.5 L 371.0,259.3 L 364.9,262.1 L 362.1,266.2" fill="none" stroke="#1F2937" stroke-width="1.6" stroke-linecap="round" stroke-linejoin="round"/>
  <path d="M 380.0,251.2 L 374.4,253.8 L 371.1,259.3 L 367.1,261.2 L 362.0,266.1" fill="none" stroke="#1F2937" stroke-width="1.6" stroke-linecap="round" stroke-linejoin="round"/>
  <path d="M 380.0,251.2 L 383.9,255.0 L 390.7,257.0 L 394.9,263.7 L 397.0,266.1" fill="none" stroke="#1F2937" stroke-width="1.6" stroke-linecap="round" stroke-linejoin="round"/>
  <path d="M 380.0,251.2 L 384.2,257.0 L 389.7,257.3 L 392.6,262.5 L 397.3,267.3" fill="none" stroke="#1F2937" stroke-width="1.6" stroke-linecap="round" stroke-linejoin="round"/>
  <path d="M 380.0,279.8 L 375.0,286.1 L 374.6,290.3 L 370.4,296.5 L 367.3,303.1" fill="none" stroke="#1F2937" stroke-width="1.6" stroke-linecap="round" stroke-linejoin="round"/>
  <path d="M 380.0,279.8 L 377.1,285.4 L 372.6,292.2 L 370.2,299.7 L 366.4,304.4" fill="none" stroke="#1F2937" stroke-width="1.6" stroke-linecap="round" stroke-linejoin="round"/>
  <path d="M 380.0,279.8 L 382.6,286.7 L 388.3,290.0 L 391.0,297.2 L 392.3,304.3" fill="none" stroke="#1F2937" stroke-width="1.6" stroke-linecap="round" stroke-linejoin="round"/>
  <path d="M 380.0,279.8 L 384.4,286.3 L 388.6,291.4 L 388.1,297.6 L 394.0,304.5" fill="none" stroke="#1F2937" stroke-width="1.6" stroke-linecap="round" stroke-linejoin="round"/>
  <path d="M 110.0,360.0 L 133.7,359.5 L 156.9,360.8 L 177.7,360.6 L 200.5,360.7 L 224.1,359.1 L 248.5,361.4 L 268.5,359.2 L 294.1,359.4 L 315.5,359.4 L 339.3,360.5 L 360.4,360.0 L 383.8,361.0 L 406.3,360.2 L 430.5,360.4" fill="none" stroke="#1F2937" stroke-width="1.5" stroke-linecap="round" stroke-linejoin="round"/>
  <path d="M 110.0,360.0 L 132.2,360.3 L 154.3,359.2 L 178.5,358.7 L 200.2,359.4 L 225.3,361.4 L 247.0,361.3 L 269.5,358.9 L 293.6,359.6 L 314.8,360.7 L 338.0,360.1 L 361.9,358.8 L 383.6,359.3 L 407.5,359.3 L 429.6,360.1" fill="none" stroke="#1F2937" stroke-width="1.5" stroke-linecap="round" stroke-linejoin="round"/>
  <path d="M 430.0,360.0 L 430.0,385.1 L 429.7,408.3 L 430.4,432.3 L 430.3,457.8 L 430.5,481.0 L 428.9,506.4 L 429.4,530.1" fill="none" stroke="#1F2937" stroke-width="1.5" stroke-linecap="round" stroke-linejoin="round"/>
  <path d="M 430.0,360.0 L 430.9,385.0 L 428.9,409.3 L 429.5,431.4 L 430.2,456.0 L 428.9,480.0 L 428.6,505.7 L 430.6,530.3" fill="none" stroke="#1F2937" stroke-width="1.5" stroke-linecap="round" stroke-linejoin="round"/>
  <path d="M 430.0,530.0 L 407.0,528.9 L 384.2,530.3 L 362.8,529.0 L 339.0,528.6 L 316.5,529.7 L 292.4,529.8 L 269.7,531.2 L 247.3,530.1 L 225.4,531.2 L 202.2,529.8 L 178.9,529.4 L 155.1,528.6 L 133.5,529.1 L 109.8,530.5" fill="none" stroke="#1F2937" stroke-width="1.5" stroke-linecap="round" stroke-linejoin="round"/>
  <path d="M 430.0,530.0 L 406.1,528.7 L 384.8,531.4 L 361.5,531.2 L 339.1,530.6 L 315.5,529.3 L 292.5,531.5 L 270.2,530.3 L 246.2,528.6 L 224.0,531.5 L 200.4,529.1 L 178.8,530.1 L 156.6,529.8 L 131.4,528.6 L 110.4,529.5" fill="none" stroke="#1F2937" stroke-width="1.5" stroke-linecap="round" stroke-linejoin="round"/>
  <path d="M 110.0,530.0 L 109.9,506.2 L 109.2,481.0 L 111.3,456.9 L 110.7,433.7 L 111.4,409.9 L 110.8,384.0 L 109.9,360.4" fill="none" stroke="#1F2937" stroke-width="1.5" stroke-linecap="round" stroke-linejoin="round"/>
  <path d="M 110.0,530.0 L 111.1,507.0 L 109.8,480.7 L 108.7,455.9 L 110.1,431.8 L 111.4,408.0 L 108.5,384.6 L 109.8,359.3" fill="none" stroke="#1F2937" stroke-width="1.5" stroke-linecap="round" stroke-linejoin="round"/>
  <path d="M 300.0,530.0 L 298.4,534.6 L 295.5,537.5 L 293.6,543.0 L 292.2,545.8" fill="none" stroke="#1F2937" stroke-width="1.5" stroke-linecap="round" stroke-linejoin="round"/>
  <path d="M 292.0,546.0 L 294.9,541.5 L 299.4,537.1 L 303.1,534.2 L 306.2,530.3" fill="none" stroke="#1F2937" stroke-width="1.5" stroke-linecap="round" stroke-linejoin="round"/>
  <text x="120" y="380" font-family='"Caveat", "Indie Flower", "Comic Sans MS", "Marker Felt", "Bradley Hand", sans-serif' font-size="13" font-weight="500" fill="#1F2937" text-anchor="start">admin lock won't budge</text>
  <text x="120" y="398" font-family='"Caveat", "Indie Flower", "Comic Sans MS", "Marker Felt", "Bradley Hand", sans-serif' font-size="13" font-weight="500" fill="#1F2937" text-anchor="start">Node? what's Node?</text>
  <text x="120" y="416" font-family='"Caveat", "Indie Flower", "Comic Sans MS", "Marker Felt", "Bradley Hand", sans-serif' font-size="13" font-weight="500" fill="#1F2937" text-anchor="start">Git never configured</text>
  <text x="120" y="434" font-family='"Caveat", "Indie Flower", "Comic Sans MS", "Marker Felt", "Bradley Hand", sans-serif' font-size="13" font-weight="500" fill="#1F2937" text-anchor="start">model access denied</text>
  <text x="120" y="452" font-family='"Caveat", "Indie Flower", "Comic Sans MS", "Marker Felt", "Bradley Hand", sans-serif' font-size="13" font-weight="500" fill="#1F2937" text-anchor="start">...features shipped: 0</text>
  <text x="900" y="124" font-family='"Caveat", "Indie Flower", "Comic Sans MS", "Marker Felt", "Bradley Hand", sans-serif' font-size="18" font-weight="700" fill="#10B981" text-anchor="middle">BUILDER DAY 2</text>
  <rect x="720.0" y="140.0" width="400.0" height="420.0" fill="#10B981" fill-opacity="0.05" stroke="none"/>
  <path d="M 720.0,140.0 L 741.6,138.6 L 764.7,140.4 L 787.8,140.0 L 808.6,141.0 L 830.0,141.5 L 853.0,140.8 L 874.9,139.8 L 898.5,140.6 L 920.8,139.0 L 940.9,139.7 L 965.8,139.1 L 987.0,140.1 L 1010.2,138.7 L 1030.1,139.8 L 1052.5,139.2 L 1076.9,139.4 L 1097.6,141.3 L 1119.6,139.4" fill="none" stroke="#1F2937" stroke-width="1.6" stroke-linecap="round" stroke-linejoin="round"/>
  <path d="M 720.0,140.0 L 741.6,140.7 L 764.7,139.8 L 787.1,141.0 L 808.3,140.3 L 830.0,139.4 L 852.4,138.9 L 875.1,140.7 L 899.1,141.5 L 918.7,141.0 L 941.5,138.7 L 964.7,138.7 L 988.0,140.3 L 1008.0,140.7 L 1031.9,141.5 L 1053.5,140.9 L 1076.1,140.4 L 1097.2,139.5 L 1120.7,140.3" fill="none" stroke="#1F2937" stroke-width="1.6" stroke-linecap="round" stroke-linejoin="round"/>
  <path d="M 1120.0,140.0 L 1121.4,161.0 L 1118.6,184.2 L 1120.2,205.0 L 1121.0,228.9 L 1120.6,250.1 L 1119.2,272.6 L 1119.1,294.7 L 1121.2,316.1 L 1121.4,339.2 L 1120.1,362.0 L 1120.0,382.7 L 1119.0,405.3 L 1121.1,427.4 L 1119.2,448.1 L 1119.1,470.2 L 1119.2,493.9 L 1120.8,514.9 L 1121.5,539.3 L 1120.3,560.7" fill="none" stroke="#1F2937" stroke-width="1.6" stroke-linecap="round" stroke-linejoin="round"/>
  <path d="M 1120.0,140.0 L 1121.2,162.8 L 1119.9,184.2 L 1119.2,206.7 L 1120.3,227.7 L 1118.8,250.1 L 1120.5,272.1 L 1119.2,296.2 L 1119.0,316.7 L 1120.5,338.4 L 1120.3,361.7 L 1118.9,383.7 L 1121.0,404.2 L 1119.8,428.7 L 1119.0,448.6 L 1118.7,471.3 L 1120.9,492.8 L 1121.2,514.8 L 1121.2,538.7 L 1119.7,559.4" fill="none" stroke="#1F2937" stroke-width="1.6" stroke-linecap="round" stroke-linejoin="round"/>
  <path d="M 1120.0,560.0 L 1097.5,561.1 L 1075.3,560.6 L 1052.7,558.6 L 1031.8,560.1 L 1009.9,560.8 L 986.4,561.3 L 964.1,558.6 L 943.4,560.0 L 919.2,561.1 L 897.7,559.8 L 875.7,560.3 L 854.8,560.4 L 830.7,561.0 L 808.9,560.1 L 785.6,559.4 L 765.8,560.6 L 743.1,560.9 L 720.7,560.2" fill="none" stroke="#1F2937" stroke-width="1.6" stroke-linecap="round" stroke-linejoin="round"/>
  <path d="M 1120.0,560.0 L 1097.2,559.9 L 1074.2,561.0 L 1052.0,559.8 L 1030.1,559.7 L 1009.7,558.6 L 985.3,559.0 L 963.9,559.1 L 941.5,558.7 L 919.3,560.5 L 896.7,560.5 L 874.3,559.6 L 853.6,560.1 L 829.8,559.0 L 809.6,558.6 L 785.4,561.3 L 764.0,558.6 L 741.6,558.8 L 720.1,560.1" fill="none" stroke="#1F2937" stroke-width="1.6" stroke-linecap="round" stroke-linejoin="round"/>
  <path d="M 720.0,560.0 L 719.5,538.3 L 719.5,517.0 L 720.1,494.4 L 719.4,472.6 L 721.3,448.3 L 721.4,427.7 L 719.6,404.6 L 720.6,384.1 L 721.3,359.9 L 720.8,338.1 L 719.6,315.8 L 718.7,296.1 L 719.7,273.9 L 720.4,251.2 L 721.1,229.3 L 719.4,207.6 L 720.7,184.2 L 720.1,161.4 L 720.3,140.1" fill="none" stroke="#1F2937" stroke-width="1.6" stroke-linecap="round" stroke-linejoin="round"/>
  <path d="M 720.0,560.0 L 719.8,536.7 L 720.7,515.1 L 719.4,493.4 L 719.4,472.2 L 718.9,448.1 L 718.8,427.6 L 720.1,406.0 L 721.3,382.6 L 719.4,361.0 L 719.6,340.3 L 719.7,315.8 L 718.8,295.6 L 718.6,273.1 L 719.3,249.1 L 720.3,228.1 L 719.9,206.5 L 720.1,184.4 L 719.6,161.6 L 720.7,140.1" fill="none" stroke="#1F2937" stroke-width="1.6" stroke-linecap="round" stroke-linejoin="round"/>
  <path d="M 820.0,200.0 L 842.7,199.8 L 869.1,199.7 L 891.8,200.7 L 915.0,201.3 L 940.0,200.2" fill="none" stroke="#1F2937" stroke-width="1.6" stroke-linecap="round" stroke-linejoin="round"/>
  <path d="M 820.0,200.0 L 843.6,199.8 L 868.4,199.3 L 892.7,201.1 L 916.7,201.3 L 939.8,199.9" fill="none" stroke="#1F2937" stroke-width="1.6" stroke-linecap="round" stroke-linejoin="round"/>
  <path d="M 940.0,200.0 L 941.0,218.5 L 938.9,236.0 L 940.8,255.2 L 939.8,272.2" fill="none" stroke="#1F2937" stroke-width="1.6" stroke-linecap="round" stroke-linejoin="round"/>
  <path d="M 940.0,200.0 L 939.2,217.3 L 939.5,235.6 L 939.6,253.9 L 939.9,272.5" fill="none" stroke="#1F2937" stroke-width="1.6" stroke-linecap="round" stroke-linejoin="round"/>
  <path d="M 940.0,272.0 L 916.6,271.3 L 890.6,271.7 L 867.4,273.2 L 844.9,271.0 L 819.5,271.7" fill="none" stroke="#1F2937" stroke-width="1.6" stroke-linecap="round" stroke-linejoin="round"/>
  <path d="M 940.0,272.0 L 917.3,272.8 L 892.7,271.5 L 869.1,273.4 L 844.3,272.4 L 819.4,271.9" fill="none" stroke="#1F2937" stroke-width="1.6" stroke-linecap="round" stroke-linejoin="round"/>
  <path d="M 820.0,272.0 L 820.3,253.4 L 819.9,235.5 L 819.1,217.8 L 819.9,199.3" fill="none" stroke="#1F2937" stroke-width="1.6" stroke-linecap="round" stroke-linejoin="round"/>
  <path d="M 820.0,272.0 L 821.1,254.9 L 821.4,235.6 L 821.2,218.6 L 819.9,199.6" fill="none" stroke="#1F2937" stroke-width="1.6" stroke-linecap="round" stroke-linejoin="round"/>
  <path d="M 808.0,272.0 L 831.5,273.6 L 854.4,273.3 L 879.9,271.1 L 904.2,270.8 L 928.6,271.6 L 952.2,271.4" fill="none" stroke="#1F2937" stroke-width="1.6" stroke-linecap="round" stroke-linejoin="round"/>
  <path d="M 808.0,272.0 L 833.4,272.9 L 854.3,272.5 L 880.9,272.7 L 905.6,271.5 L 927.2,272.3 L 951.8,271.8" fill="none" stroke="#1F2937" stroke-width="1.6" stroke-linecap="round" stroke-linejoin="round"/>
  <path d="M 808.0,276.0 L 830.5,275.4 L 854.2,277.9 L 879.1,276.9 L 902.1,277.5 L 928.6,277.4 L 951.0,276.1" fill="none" stroke="#1F2937" stroke-width="1.4" stroke-linecap="round" stroke-linejoin="round"/>
  <path d="M 808.0,276.0 L 831.0,274.7 L 856.3,276.3 L 880.9,278.0 L 902.7,276.7 L 928.6,275.6 L 952.5,275.9" fill="none" stroke="#1F2937" stroke-width="1.4" stroke-linecap="round" stroke-linejoin="round"/>
  <path d="M 828.0,212.0 L 853.9,213.7 L 879.5,213.8 L 906.1,212.5 L 931.4,211.3" fill="none" stroke="#10B981" stroke-width="1.4" stroke-linecap="round" stroke-linejoin="round"/>
  <path d="M 828.0,224.0 L 849.9,223.1 L 875.4,225.0 L 898.5,225.9 L 919.6,223.9" fill="none" stroke="#6B7280" stroke-width="1.2" stroke-linecap="round" stroke-linejoin="round"/>
  <path d="M 933.0,261.2 L 930.7,261.7 L 931.3,263.0 L 931.3,264.4 L 930.3,265.1 L 929.6,266.1 L 927.8,264.9 L 927.2,266.8 L 926.0,267.0 L 924.8,266.8 L 923.6,266.6 L 923.0,265.3 L 922.4,264.4 L 921.2,264.1 L 920.1,263.5 L 921.1,261.8 L 920.2,261.1 L 919.6,260.0 L 919.7,258.9 L 920.6,258.1 L 921.0,257.1 L 921.3,256.1 L 921.9,255.1 L 923.4,255.6 L 923.8,254.1 L 925.0,254.5 L 926.0,254.6 L 927.1,253.7 L 928.2,254.0 L 928.6,255.5 L 929.8,255.4 L 929.9,256.7 L 931.7,256.7 L 932.1,257.7 L 931.6,259.0 L 933.1,260.0 L 931.3,260.9" fill="none" stroke="#10B981" stroke-width="2.4" stroke-linecap="round" stroke-linejoin="round"/>
  <path d="M 931.3,260.1 L 932.5,261.3 L 930.7,261.8 L 930.7,262.9 L 931.4,264.7 L 930.4,265.4 L 928.9,265.3 L 927.8,265.3 L 926.7,264.9 L 925.8,266.6 L 924.7,266.3 L 924.0,265.0 L 923.3,264.4 L 922.8,263.7 L 920.8,264.2 L 920.2,263.2 L 919.3,262.3 L 921.2,260.7 L 920.5,259.9 L 919.2,258.6 L 920.1,257.7 L 920.2,256.4 L 922.2,256.7 L 922.7,255.9 L 922.7,253.9 L 923.8,253.6 L 925.2,254.6 L 926.1,253.8 L 927.1,254.7 L 928.6,253.4 L 929.5,254.2 L 930.5,254.9 L 929.9,256.9 L 931.9,256.8 L 930.7,258.4 L 932.6,259.0 L 931.2,260.1" fill="none" stroke="#10B981" stroke-width="2.4" stroke-linecap="round" stroke-linejoin="round"/>
  <path d="M 923.0,260.0 L 924.0,260.4 L 924.2,261.4 L 924.4,261.3 L 925.4,261.9" fill="none" stroke="#10B981" stroke-width="2.4" stroke-linecap="round" stroke-linejoin="round"/>
  <path d="M 925.4,262.1 L 926.3,261.2 L 927.0,259.7 L 928.8,258.7 L 929.5,257.7" fill="none" stroke="#10B981" stroke-width="2.4" stroke-linecap="round" stroke-linejoin="round"/>
  <path d="M 1034.0,232.4 L 1031.7,234.1 L 1031.4,236.5 L 1029.0,237.5 L 1028.1,239.8 L 1026.0,241.0 L 1023.7,241.2 L 1021.6,241.5 L 1019.4,241.9 L 1017.0,242.4 L 1015.0,241.1 L 1012.9,240.3 L 1010.5,239.5 L 1008.6,237.9 L 1007.4,235.7 L 1006.7,233.3 L 1007.0,230.8 L 1007.6,228.6 L 1006.5,226.1 L 1007.5,223.9 L 1008.9,222.1 L 1009.9,219.8 L 1011.3,217.8 L 1014.4,218.3 L 1016.2,216.8 L 1018.4,216.8 L 1020.6,216.4 L 1022.9,216.2 L 1025.0,217.3 L 1027.0,218.4 L 1028.4,220.1 L 1029.9,221.7 L 1030.8,223.6 L 1031.5,225.6 L 1033.3,227.5 L 1033.9,229.9 L 1032.6,232.1" fill="none" stroke="#1F2937" stroke-width="1.6" stroke-linecap="round" stroke-linejoin="round"/>
  <path d="M 1032.1,231.3 L 1033.3,234.1 L 1031.4,235.8 L 1029.2,236.9 L 1028.2,239.0 L 1027.1,241.5 L 1024.3,241.2 L 1022.3,242.2 L 1020.0,242.9 L 1017.9,241.3 L 1015.1,242.5 L 1013.5,240.4 L 1010.9,240.0 L 1010.1,237.5 L 1007.7,236.3 L 1008.3,233.4 L 1008.0,231.3 L 1005.7,229.2 L 1006.3,226.8 L 1007.3,224.6 L 1008.6,222.6 L 1010.6,221.3 L 1011.6,219.2 L 1013.4,217.7 L 1015.5,216.9 L 1017.7,216.2 L 1020.0,215.2 L 1022.2,217.0 L 1024.3,217.5 L 1026.4,218.1 L 1028.8,218.8 L 1030.0,220.8 L 1031.4,222.6 L 1032.6,224.6 L 1033.8,226.8 L 1032.2,229.2 L 1033.6,231.6" fill="none" stroke="#1F2937" stroke-width="1.6" stroke-linecap="round" stroke-linejoin="round"/>
  <path d="M 1015.6,232.5 L 1016.1,232.7 L 1018.9,230.9 L 1023.7,231.3 L 1024.8,232.7" fill="none" stroke="#1F2937" stroke-width="1.2" stroke-linecap="round" stroke-linejoin="round"/>
  <path d="M 1020.0,242.4 L 1019.6,250.0 L 1020.5,261.9 L 1019.6,269.9 L 1020.6,279.9" fill="none" stroke="#1F2937" stroke-width="1.6" stroke-linecap="round" stroke-linejoin="round"/>
  <path d="M 1020.0,242.4 L 1020.6,253.0 L 1019.8,262.9 L 1020.4,270.3 L 1019.0,280.2" fill="none" stroke="#1F2937" stroke-width="1.6" stroke-linecap="round" stroke-linejoin="round"/>
  <path d="M 1020.0,251.2 L 1015.9,256.2 L 1009.3,260.6 L 1008.3,264.7 L 1001.9,265.7" fill="none" stroke="#1F2937" stroke-width="1.6" stroke-linecap="round" stroke-linejoin="round"/>
  <path d="M 1020.0,251.2 L 1016.4,253.3 L 1010.1,259.6 L 1007.9,261.4 L 1003.3,267.3" fill="none" stroke="#1F2937" stroke-width="1.6" stroke-linecap="round" stroke-linejoin="round"/>
  <path d="M 1020.0,251.2 L 1024.2,257.0 L 1029.1,260.2 L 1034.2,263.2 L 1037.3,266.0" fill="none" stroke="#1F2937" stroke-width="1.6" stroke-linecap="round" stroke-linejoin="round"/>
  <path d="M 1020.0,251.2 L 1026.0,255.9 L 1030.5,260.6 L 1033.7,264.2 L 1037.3,266.4" fill="none" stroke="#1F2937" stroke-width="1.6" stroke-linecap="round" stroke-linejoin="round"/>
  <path d="M 1020.0,279.8 L 1018.2,285.7 L 1015.2,291.6 L 1011.9,299.8 L 1007.5,303.5" fill="none" stroke="#1F2937" stroke-width="1.6" stroke-linecap="round" stroke-linejoin="round"/>
  <path d="M 1020.0,279.8 L 1015.5,286.8 L 1013.0,291.5 L 1009.4,298.2 L 1007.1,303.7" fill="none" stroke="#1F2937" stroke-width="1.6" stroke-linecap="round" stroke-linejoin="round"/>
  <path d="M 1020.0,279.8 L 1022.6,284.0 L 1026.5,290.7 L 1028.2,297.9 L 1032.8,303.1" fill="none" stroke="#1F2937" stroke-width="1.6" stroke-linecap="round" stroke-linejoin="round"/>
  <path d="M 1020.0,279.8 L 1021.5,286.1 L 1024.9,291.2 L 1028.7,299.1 L 1033.3,303.4" fill="none" stroke="#1F2937" stroke-width="1.6" stroke-linecap="round" stroke-linejoin="round"/>
  <path d="M 750.0,360.0 L 773.1,359.2 L 796.0,359.3 L 819.0,358.8 L 840.7,360.9 L 863.4,360.3 L 887.3,360.6 L 908.7,359.3 L 932.8,359.3 L 953.1,358.9 L 976.2,359.9 L 998.5,359.6 L 1023.2,359.7 L 1044.5,361.4 L 1066.6,358.7 L 1089.9,359.5" fill="none" stroke="#1F2937" stroke-width="1.5" stroke-linecap="round" stroke-linejoin="round"/>
  <path d="M 750.0,360.0 L 771.9,360.4 L 794.0,359.8 L 816.6,358.5 L 840.5,360.8 L 863.2,359.3 L 885.6,359.2 L 907.4,359.9 L 930.2,360.6 L 954.1,361.1 L 975.3,358.6 L 999.1,358.7 L 1020.6,360.1 L 1043.6,360.8 L 1067.8,359.5 L 1090.7,359.3" fill="none" stroke="#1F2937" stroke-width="1.5" stroke-linecap="round" stroke-linejoin="round"/>
  <path d="M 1090.0,360.0 L 1090.7,384.8 L 1088.6,408.4 L 1091.3,433.4 L 1089.5,456.8 L 1090.2,482.0 L 1090.4,504.5 L 1089.8,530.7" fill="none" stroke="#1F2937" stroke-width="1.5" stroke-linecap="round" stroke-linejoin="round"/>
  <path d="M 1090.0,360.0 L 1090.0,384.9 L 1089.3,409.0 L 1090.7,432.1 L 1089.9,455.7 L 1089.9,480.2 L 1088.9,504.4 L 1090.2,530.2" fill="none" stroke="#1F2937" stroke-width="1.5" stroke-linecap="round" stroke-linejoin="round"/>
  <path d="M 1090.0,530.0 L 1066.9,530.3 L 1045.0,528.8 L 1022.2,531.1 L 1000.5,528.9 L 975.5,529.8 L 954.1,529.9 L 932.5,530.6 L 909.1,529.4 L 886.6,529.4 L 864.2,529.4 L 840.8,528.7 L 816.7,530.0 L 795.9,531.2 L 772.1,529.5 L 750.4,529.7" fill="none" stroke="#1F2937" stroke-width="1.5" stroke-linecap="round" stroke-linejoin="round"/>
  <path d="M 1090.0,530.0 L 1067.4,530.2 L 1044.7,530.2 L 1021.0,530.8 L 999.2,529.8 L 975.2,530.3 L 953.0,529.1 L 931.7,528.9 L 909.3,529.4 L 886.5,531.4 L 862.7,528.6 L 839.6,530.1 L 818.9,528.6 L 795.4,530.9 L 774.0,530.4 L 750.5,530.5" fill="none" stroke="#1F2937" stroke-width="1.5" stroke-linecap="round" stroke-linejoin="round"/>
  <path d="M 750.0,530.0 L 750.1,506.7 L 749.7,479.9 L 750.7,456.3 L 748.7,432.9 L 749.7,408.0 L 749.6,384.8 L 750.6,360.3" fill="none" stroke="#1F2937" stroke-width="1.5" stroke-linecap="round" stroke-linejoin="round"/>
  <path d="M 750.0,530.0 L 750.1,505.1 L 749.3,481.5 L 750.7,456.4 L 750.8,432.5 L 749.7,409.4 L 749.0,384.7 L 750.1,359.6" fill="none" stroke="#1F2937" stroke-width="1.5" stroke-linecap="round" stroke-linejoin="round"/>
  <path d="M 940.0,530.0 L 937.3,534.5 L 935.9,537.6 L 933.8,541.4 L 931.7,545.8" fill="none" stroke="#1F2937" stroke-width="1.5" stroke-linecap="round" stroke-linejoin="round"/>
  <path d="M 932.0,546.0 L 934.6,542.6 L 939.8,538.7 L 942.6,534.2 L 946.5,530.0" fill="none" stroke="#1F2937" stroke-width="1.5" stroke-linecap="round" stroke-linejoin="round"/>
  <text x="760" y="380" font-family='"Caveat", "Indie Flower", "Comic Sans MS", "Marker Felt", "Bradley Hand", sans-serif' font-size="13" font-weight="500" fill="#1F2937" text-anchor="start">setup-verify ran GREEN</text>
  <text x="760" y="398" font-family='"Caveat", "Indie Flower", "Comic Sans MS", "Marker Felt", "Bradley Hand", sans-serif' font-size="13" font-weight="500" fill="#1F2937" text-anchor="start">plugin checksum matches</text>
  <text x="760" y="416" font-family='"Caveat", "Indie Flower", "Comic Sans MS", "Marker Felt", "Bradley Hand", sans-serif' font-size="13" font-weight="500" fill="#1F2937" text-anchor="start">office hours 3x/week</text>
  <text x="760" y="434" font-family='"Caveat", "Indie Flower", "Comic Sans MS", "Marker Felt", "Bradley Hand", sans-serif' font-size="13" font-weight="500" fill="#1F2937" text-anchor="start">right-sized projects</text>
  <text x="760" y="452" font-family='"Caveat", "Indie Flower", "Comic Sans MS", "Marker Felt", "Bradley Hand", sans-serif' font-size="13" font-weight="500" fill="#1F2937" text-anchor="start">dozens of commits in 2 days</text>
  <path d="M 490.0,340.0 L 510.1,341.0 L 533.4,339.9 L 557.0,339.0 L 579.7,341.5 L 599.2,339.8 L 621.1,340.1 L 642.0,338.9 L 667.0,340.2 L 689.9,338.0 L 710.0,340.1" fill="none" stroke="#1F2937" stroke-width="2.4" stroke-linecap="round" stroke-linejoin="round"/>
  <path d="M 490.0,340.0 L 511.4,339.8 L 532.2,338.6 L 555.6,341.5 L 578.9,339.1 L 600.0,341.8 L 623.4,339.6 L 642.3,338.3 L 666.2,341.1 L 687.1,339.1 L 710.1,341.0" fill="none" stroke="#1F2937" stroke-width="2.4" stroke-linecap="round" stroke-linejoin="round"/>
  <path d="M 710.0,340.0 L 705.2,341.5 L 702.7,344.0 L 697.2,345.8 L 693.4,348.0" fill="none" stroke="#1F2937" stroke-width="2.4" stroke-linecap="round" stroke-linejoin="round"/>
  <path d="M 710.0,340.0 L 706.5,338.0 L 702.4,336.1 L 697.9,334.8 L 694.0,332.1" fill="none" stroke="#1F2937" stroke-width="2.4" stroke-linecap="round" stroke-linejoin="round"/>
  <text x="600" y="308" font-family='"Caveat", "Indie Flower", "Comic Sans MS", "Marker Felt", "Bradley Hand", sans-serif' font-size="14" font-weight="600" fill="#1F2937" text-anchor="middle">validation gate</text>
  <text x="600" y="326" font-family='"Caveat", "Indie Flower", "Comic Sans MS", "Marker Felt", "Bradley Hand", sans-serif' font-size="13" font-weight="500" fill="#6B7280" text-anchor="middle">GREEN / YELLOW / RED triage</text>
  <text x="600" y="356" font-family='"Caveat", "Indie Flower", "Comic Sans MS", "Marker Felt", "Bradley Hand", sans-serif' font-size="13" font-weight="500" fill="#6B7280" text-anchor="middle">right-sized projects</text>
  <path d="M 200.0,620.0 L 222.0,620.6 L 244.3,620.4 L 266.8,620.4 L 289.5,620.7 L 311.8,620.1 L 333.8,619.7 L 356.0,619.5 L 377.7,619.4 L 399.5,619.3 L 422.7,620.2 L 444.8,620.5 L 466.9,619.5 L 489.6,619.6 L 510.5,619.8 L 532.8,620.3 L 556.0,619.5 L 578.1,619.5 L 600.3,619.3 L 623.0,619.8 L 644.9,619.2 L 666.4,620.8 L 689.0,619.6 L 711.6,619.5 L 732.6,620.6 L 755.4,619.8 L 777.5,619.8 L 799.6,620.0 L 822.9,619.6 L 844.7,620.0 L 866.0,620.1 L 889.5,619.7 L 910.8,619.2 L 933.9,619.4 L 955.6,620.6 L 977.3,619.8 L 999.9,620.2" fill="none" stroke="#6B7280" stroke-width="1.2" stroke-linecap="round" stroke-linejoin="round"/>
  <text x="600" y="660" font-family='"Caveat", "Indie Flower", "Comic Sans MS", "Marker Felt", "Bradley Hand", sans-serif' font-size="18" font-weight="600" fill="#1F2937" text-anchor="middle">The lesson: setup friction isn't an appendix — it's Layer 0.</text>
  </svg>
