<svg xmlns="http://www.w3.org/2000/svg" viewBox="0 0 1100 760" role="img" aria-label="RFC anti-patterns">
  <rect width="1100" height="760" fill="#FFFFFF"/>
  <text x="550.0" y="48" font-family='"Caveat", "Indie Flower", "Comic Sans MS", "Marker Felt", "Bradley Hand", sans-serif' font-size="28" font-weight="700" fill="#1F2937" text-anchor="middle">RFC anti-patterns</text>
  <text x="550.0" y="76" font-family='"Caveat", "Indie Flower", "Comic Sans MS", "Marker Felt", "Bradley Hand", sans-serif' font-size="15" font-weight="500" fill="#6B7280" text-anchor="middle">Four shapes that look like RFCs and don't merge as ones.</text>

  <rect x="70.0" y="130.0" width="460.0" height="270.0" fill="#EF4444" fill-opacity="0.04" stroke="none"/>
  <path d="M 70.0,130.0 L 92.0,129.5 L 117.0,129.4 L 138.5,131.4 L 162.4,130.3 L 184.9,129.9 L 207.7,130.9 L 231.2,129.9 L 254.6,129.0 L 278.2,131.0 L 298.8,130.4 L 323.6,129.3 L 344.6,130.6 L 369.9,130.1 L 392.5,128.6 L 416.3,131.0 L 439.3,130.4 L 462.0,131.2 L 484.0,131.5 L 505.6,130.3 L 529.3,130.1" fill="none" stroke="#1F2937" stroke-width="1.8" stroke-linecap="round" stroke-linejoin="round"/>
  <path d="M 70.0,130.0 L 92.2,129.6 L 115.6,129.5 L 139.1,131.2 L 161.3,131.2 L 186.2,130.9 L 206.6,131.3 L 231.6,129.1 L 254.0,131.4 L 276.2,129.0 L 300.0,129.6 L 321.6,130.4 L 346.6,128.9 L 369.9,128.9 L 391.6,131.0 L 415.9,130.2 L 437.5,128.5 L 459.6,129.7 L 482.7,129.9 L 508.4,130.1 L 530.3,129.3" fill="none" stroke="#1F2937" stroke-width="1.8" stroke-linecap="round" stroke-linejoin="round"/>
  <path d="M 530.0,130.0 L 529.4,151.5 L 531.2,174.8 L 529.7,197.9 L 531.4,219.7 L 531.5,243.3 L 529.2,264.0 L 531.4,287.7 L 531.3,310.1 L 530.1,333.9 L 530.5,354.7 L 529.9,376.2 L 529.6,400.7" fill="none" stroke="#1F2937" stroke-width="1.8" stroke-linecap="round" stroke-linejoin="round"/>
  <path d="M 530.0,130.0 L 529.5,152.6 L 530.6,176.0 L 529.9,196.8 L 529.1,218.8 L 529.0,241.2 L 530.8,265.2 L 530.3,286.0 L 530.9,310.9 L 529.5,333.1 L 531.0,355.4 L 530.4,377.5 L 530.0,400.0" fill="none" stroke="#1F2937" stroke-width="1.8" stroke-linecap="round" stroke-linejoin="round"/>
  <path d="M 530.0,400.0 L 506.6,399.9 L 485.1,399.5 L 460.2,400.3 L 438.3,400.7 L 415.3,399.8 L 391.3,400.0 L 368.9,399.9 L 346.1,399.8 L 323.0,401.0 L 299.8,401.2 L 275.8,399.8 L 254.2,398.9 L 230.6,400.4 L 207.6,401.1 L 184.6,399.5 L 161.8,400.3 L 138.9,399.5 L 115.6,400.7 L 94.3,398.7 L 69.5,400.4" fill="none" stroke="#1F2937" stroke-width="1.8" stroke-linecap="round" stroke-linejoin="round"/>
  <path d="M 530.0,400.0 L 508.4,401.5 L 484.3,401.0 L 462.4,399.8 L 436.9,398.9 L 415.5,400.8 L 391.7,398.6 L 368.7,400.1 L 344.6,400.2 L 322.3,400.7 L 301.0,398.7 L 275.6,400.1 L 253.9,400.5 L 229.5,399.0 L 207.3,400.0 L 185.7,399.1 L 161.3,398.8 L 139.9,399.2 L 114.5,398.7 L 92.9,398.5 L 70.2,400.4" fill="none" stroke="#1F2937" stroke-width="1.8" stroke-linecap="round" stroke-linejoin="round"/>
  <path d="M 70.0,400.0 L 69.2,376.4 L 68.9,356.1 L 68.7,334.0 L 68.6,309.8 L 68.7,286.5 L 68.9,264.7 L 68.9,243.2 L 71.0,220.9 L 69.0,198.6 L 70.8,174.2 L 71.1,151.6 L 70.1,130.7" fill="none" stroke="#1F2937" stroke-width="1.8" stroke-linecap="round" stroke-linejoin="round"/>
  <path d="M 70.0,400.0 L 69.3,377.7 L 71.5,353.5 L 69.1,333.6 L 70.3,310.4 L 69.4,288.5 L 69.8,265.4 L 71.1,242.0 L 70.5,220.3 L 70.9,196.6 L 70.5,175.1 L 69.5,152.9 L 69.4,130.4" fill="none" stroke="#1F2937" stroke-width="1.8" stroke-linecap="round" stroke-linejoin="round"/>
  <text x="94.0" y="162" font-family='"Caveat", "Indie Flower", "Comic Sans MS", "Marker Felt", "Bradley Hand", sans-serif' font-size="18" font-weight="700" fill="#EF4444" text-anchor="start">Recommendation-first writing</text>
  <path d="M 514.3,167.2 L 513.1,170.5 L 512.9,174.2 L 511.1,177.3 L 509.1,180.3 L 505.5,181.4 L 503.0,183.9 L 500.0,186.1 L 496.3,185.8 L 492.8,185.8 L 489.2,186.1 L 486.0,184.5 L 482.5,183.4 L 480.3,180.5 L 478.4,177.6 L 475.2,175.4 L 475.2,171.6 L 474.3,168.3 L 473.2,164.8 L 474.6,161.4 L 475.9,158.2 L 478.0,155.4 L 479.5,152.3 L 482.5,150.5 L 485.0,148.0 L 488.0,146.0 L 491.7,146.0 L 495.2,145.8 L 498.9,145.5 L 502.1,147.2 L 505.4,148.7 L 508.4,150.8 L 510.3,153.9 L 510.8,157.6 L 513.0,160.3 L 514.8,163.6 L 513.8,167.2" fill="none" stroke="#EF4444" stroke-width="2.4" stroke-linecap="round" stroke-linejoin="round"/>
  <path d="M 512.9,167.0 L 514.3,170.6 L 513.0,174.0 L 511.8,177.5 L 507.9,178.9 L 506.4,182.5 L 502.7,183.0 L 499.5,184.0 L 496.4,185.3 L 493.0,186.4 L 489.3,186.6 L 485.9,185.3 L 483.6,182.0 L 479.6,181.5 L 478.3,177.9 L 475.5,175.5 L 474.1,172.1 L 473.2,168.6 L 474.5,165.0 L 473.7,161.4 L 476.0,158.4 L 478.2,155.8 L 478.9,152.0 L 482.5,150.7 L 484.6,147.7 L 488.4,147.8 L 491.5,146.1 L 495.0,146.0 L 498.4,146.9 L 501.4,148.5 L 505.2,148.7 L 507.0,152.1 L 510.1,153.9 L 512.3,156.6 L 513.6,160.0 L 512.8,163.7 L 514.9,167.1" fill="none" stroke="#EF4444" stroke-width="2.4" stroke-linecap="round" stroke-linejoin="round"/>
  <path d="M 481.0,153.0 L 487.5,159.2 L 493.9,166.3 L 500.9,172.1 L 507.2,179.3" fill="none" stroke="#EF4444" stroke-width="2.4" stroke-linecap="round" stroke-linejoin="round"/>
  <path d="M 481.0,179.0 L 487.5,172.9 L 494.3,166.3 L 500.7,159.0 L 507.2,153.3" fill="none" stroke="#EF4444" stroke-width="2.4" stroke-linecap="round" stroke-linejoin="round"/>
  <text x="94.0" y="210" font-family='"Caveat", "Indie Flower", "Comic Sans MS", "Marker Felt", "Bradley Hand", sans-serif' font-size="13" font-weight="500" fill="#1F2937" text-anchor="start">the answer is at the top.</text>
  <text x="94.0" y="232" font-family='"Caveat", "Indie Flower", "Comic Sans MS", "Marker Felt", "Bradley Hand", sans-serif' font-size="13" font-weight="500" fill="#1F2937" text-anchor="start">the problem is at the bottom</text>
  <text x="94.0" y="254" font-family='"Caveat", "Indie Flower", "Comic Sans MS", "Marker Felt", "Bradley Hand", sans-serif' font-size="13" font-weight="500" fill="#1F2937" text-anchor="start">in tiny text.</text>
  <text x="94.0" y="276" font-family='"Caveat", "Indie Flower", "Comic Sans MS", "Marker Felt", "Bradley Hand", sans-serif' font-size="13" font-weight="500" fill="#1F2937" text-anchor="start"></text>
  <text x="94.0" y="298" font-family='"Caveat", "Indie Flower", "Comic Sans MS", "Marker Felt", "Bradley Hand", sans-serif' font-size="13" font-weight="500" fill="#1F2937" text-anchor="start">(reviewers don't know what</text>
  <text x="94.0" y="320" font-family='"Caveat", "Indie Flower", "Comic Sans MS", "Marker Felt", "Bradley Hand", sans-serif' font-size="13" font-weight="500" fill="#1F2937" text-anchor="start">they are agreeing to.)</text>
  <rect x="570.0" y="130.0" width="460.0" height="270.0" fill="#EF4444" fill-opacity="0.04" stroke="none"/>
  <path d="M 570.0,130.0 L 594.0,130.3 L 615.2,128.6 L 637.9,131.4 L 662.0,130.0 L 685.5,128.6 L 708.2,130.2 L 729.9,130.7 L 753.1,129.7 L 777.0,129.9 L 800.2,128.5 L 823.1,128.9 L 847.3,129.8 L 869.1,130.3 L 892.4,129.2 L 916.0,128.8 L 939.0,130.6 L 959.5,131.4 L 982.6,131.1 L 1005.8,130.9 L 1030.7,130.2" fill="none" stroke="#1F2937" stroke-width="1.8" stroke-linecap="round" stroke-linejoin="round"/>
  <path d="M 570.0,130.0 L 593.6,128.7 L 616.3,129.7 L 640.2,129.5 L 661.2,129.3 L 684.8,130.0 L 709.3,130.9 L 731.3,129.8 L 752.7,128.9 L 775.8,128.6 L 798.6,130.1 L 822.4,129.5 L 845.5,130.0 L 867.7,129.4 L 890.5,130.2 L 914.1,129.7 L 936.5,130.5 L 961.3,130.4 L 985.1,130.5 L 1007.0,129.0 L 1029.8,130.5" fill="none" stroke="#1F2937" stroke-width="1.8" stroke-linecap="round" stroke-linejoin="round"/>
  <path d="M 1030.0,130.0 L 1029.0,151.2 L 1030.0,175.2 L 1030.7,198.1 L 1029.3,219.4 L 1029.4,243.1 L 1029.4,266.2 L 1031.1,286.2 L 1029.6,311.4 L 1029.3,333.9 L 1030.4,354.5 L 1029.0,376.9 L 1030.5,400.6" fill="none" stroke="#1F2937" stroke-width="1.8" stroke-linecap="round" stroke-linejoin="round"/>
  <path d="M 1030.0,130.0 L 1031.2,153.1 L 1031.5,175.2 L 1030.4,198.5 L 1030.8,219.9 L 1029.0,242.5 L 1031.1,264.4 L 1031.4,286.9 L 1031.4,311.3 L 1030.2,333.8 L 1031.2,355.2 L 1029.8,377.5 L 1029.3,400.5" fill="none" stroke="#1F2937" stroke-width="1.8" stroke-linecap="round" stroke-linejoin="round"/>
  <path d="M 1030.0,400.0 L 1008.0,400.3 L 983.7,400.1 L 960.0,400.0 L 938.2,400.9 L 915.0,400.5 L 893.1,399.9 L 869.6,401.2 L 845.5,398.9 L 823.5,401.3 L 800.2,398.7 L 775.6,401.5 L 754.3,399.0 L 731.1,399.0 L 709.1,400.4 L 683.7,398.9 L 660.7,398.9 L 638.8,401.0 L 617.0,399.7 L 593.9,399.5 L 569.4,399.5" fill="none" stroke="#1F2937" stroke-width="1.8" stroke-linecap="round" stroke-linejoin="round"/>
  <path d="M 1030.0,400.0 L 1006.8,400.1 L 983.5,399.4 L 960.7,401.4 L 938.8,399.6 L 916.0,400.2 L 892.5,398.7 L 869.3,399.8 L 844.6,401.1 L 822.2,398.5 L 798.7,398.5 L 778.0,399.8 L 753.1,399.0 L 730.6,400.1 L 706.9,399.9 L 685.2,399.2 L 663.4,399.4 L 639.7,401.5 L 615.4,398.9 L 593.1,398.6 L 569.8,400.3" fill="none" stroke="#1F2937" stroke-width="1.8" stroke-linecap="round" stroke-linejoin="round"/>
  <path d="M 570.0,400.0 L 570.1,378.7 L 571.0,354.3 L 568.7,333.2 L 568.9,310.0 L 570.1,288.7 L 569.8,265.0 L 569.5,241.4 L 568.6,218.6 L 571.0,196.8 L 568.8,174.8 L 569.4,153.6 L 570.7,130.1" fill="none" stroke="#1F2937" stroke-width="1.8" stroke-linecap="round" stroke-linejoin="round"/>
  <path d="M 570.0,400.0 L 569.6,378.1 L 571.2,354.2 L 570.6,334.0 L 571.1,309.4 L 571.3,286.9 L 569.1,263.9 L 570.1,241.5 L 570.5,218.5 L 569.7,197.5 L 571.4,175.9 L 569.2,153.9 L 570.2,129.9" fill="none" stroke="#1F2937" stroke-width="1.8" stroke-linecap="round" stroke-linejoin="round"/>
  <text x="594.0" y="162" font-family='"Caveat", "Indie Flower", "Comic Sans MS", "Marker Felt", "Bradley Hand", sans-serif' font-size="18" font-weight="700" fill="#EF4444" text-anchor="start">Strawman options</text>
  <path d="M 1014.8,168.4 L 1013.4,171.8 L 1011.1,174.6 L 1009.9,177.8 L 1007.0,179.8 L 1004.4,181.9 L 1001.7,183.8 L 998.8,186.3 L 995.2,185.7 L 991.7,185.4 L 988.0,186.0 L 985.5,182.9 L 982.1,182.1 L 980.0,179.2 L 978.2,176.4 L 974.7,174.3 L 974.8,170.6 L 973.9,167.2 L 974.7,163.8 L 975.6,160.5 L 975.3,156.6 L 978.7,154.6 L 979.6,150.8 L 983.6,150.3 L 986.4,148.3 L 989.2,145.8 L 992.8,145.7 L 996.2,146.7 L 999.6,147.3 L 1003.3,147.6 L 1005.3,150.8 L 1008.1,152.7 L 1009.8,155.6 L 1011.5,158.4 L 1013.1,161.5 L 1013.8,164.8 L 1013.6,168.3" fill="none" stroke="#EF4444" stroke-width="2.4" stroke-linecap="round" stroke-linejoin="round"/>
  <path d="M 1013.4,169.7 L 1012.7,173.1 L 1011.5,176.4 L 1008.5,178.5 L 1006.3,181.0 L 1003.8,183.5 L 1000.9,185.8 L 997.4,186.7 L 993.7,186.6 L 990.3,185.5 L 986.6,185.5 L 984.3,182.3 L 980.8,181.4 L 979.3,178.0 L 976.3,175.9 L 974.3,172.9 L 974.8,169.1 L 973.2,165.7 L 973.4,162.1 L 974.7,158.7 L 977.8,156.3 L 978.9,153.0 L 980.8,149.8 L 984.4,148.8 L 987.5,147.2 L 990.7,145.7 L 994.3,145.6 L 997.9,145.7 L 1001.2,147.0 L 1003.7,149.8 L 1006.7,151.3 L 1008.7,154.0 L 1011.3,156.4 L 1012.5,159.6 L 1013.6,162.8 L 1013.0,166.3 L 1012.7,169.6" fill="none" stroke="#EF4444" stroke-width="2.4" stroke-linecap="round" stroke-linejoin="round"/>
  <path d="M 981.0,153.0 L 987.8,159.1 L 994.0,166.2 L 1000.2,172.6 L 1006.7,179.0" fill="none" stroke="#EF4444" stroke-width="2.4" stroke-linecap="round" stroke-linejoin="round"/>
  <path d="M 981.0,179.0 L 988.1,173.0 L 994.2,166.6 L 1000.4,159.9 L 1007.0,152.9" fill="none" stroke="#EF4444" stroke-width="2.4" stroke-linecap="round" stroke-linejoin="round"/>
  <text x="594.0" y="210" font-family='"Caveat", "Indie Flower", "Comic Sans MS", "Marker Felt", "Bradley Hand", sans-serif' font-size="13" font-weight="500" fill="#1F2937" text-anchor="start">Option A: the answer.</text>
  <text x="594.0" y="232" font-family='"Caveat", "Indie Flower", "Comic Sans MS", "Marker Felt", "Bradley Hand", sans-serif' font-size="13" font-weight="500" fill="#1F2937" text-anchor="start">Option B: obviously bad.</text>
  <text x="594.0" y="254" font-family='"Caveat", "Indie Flower", "Comic Sans MS", "Marker Felt", "Bradley Hand", sans-serif' font-size="13" font-weight="500" fill="#1F2937" text-anchor="start">Option C: also obviously bad.</text>
  <text x="594.0" y="276" font-family='"Caveat", "Indie Flower", "Comic Sans MS", "Marker Felt", "Bradley Hand", sans-serif' font-size="13" font-weight="500" fill="#1F2937" text-anchor="start"></text>
  <text x="594.0" y="298" font-family='"Caveat", "Indie Flower", "Comic Sans MS", "Marker Felt", "Bradley Hand", sans-serif' font-size="13" font-weight="500" fill="#1F2937" text-anchor="start">(this isn't options. this is a</text>
  <text x="594.0" y="320" font-family='"Caveat", "Indie Flower", "Comic Sans MS", "Marker Felt", "Bradley Hand", sans-serif' font-size="13" font-weight="500" fill="#1F2937" text-anchor="start">decision dressed as one.)</text>
  <rect x="70.0" y="440.0" width="460.0" height="270.0" fill="#EF4444" fill-opacity="0.04" stroke="none"/>
  <path d="M 70.0,440.0 L 93.5,440.4 L 116.4,439.2 L 139.6,438.7 L 162.7,441.1 L 184.4,439.8 L 209.4,439.1 L 230.5,439.4 L 253.7,439.1 L 278.3,440.4 L 299.9,439.9 L 321.7,438.8 L 347.0,440.7 L 367.7,438.9 L 393.4,441.0 L 415.5,439.4 L 437.9,440.7 L 461.7,438.8 L 483.3,441.2 L 508.4,440.3 L 529.7,440.3" fill="none" stroke="#1F2937" stroke-width="1.8" stroke-linecap="round" stroke-linejoin="round"/>
  <path d="M 70.0,440.0 L 92.5,440.3 L 115.1,440.7 L 140.1,439.4 L 161.0,441.5 L 186.4,440.1 L 209.2,441.1 L 232.4,439.2 L 254.2,439.4 L 276.7,439.7 L 300.9,441.4 L 322.7,439.7 L 347.0,439.5 L 367.9,440.9 L 391.5,438.7 L 415.1,438.7 L 436.9,439.3 L 461.8,439.8 L 484.0,440.0 L 508.2,441.3 L 529.8,439.6" fill="none" stroke="#1F2937" stroke-width="1.8" stroke-linecap="round" stroke-linejoin="round"/>
  <path d="M 530.0,440.0 L 530.8,461.4 L 530.5,485.1 L 530.5,507.0 L 529.0,529.8 L 531.4,552.6 L 528.6,575.8 L 530.3,596.2 L 529.7,619.3 L 529.7,641.6 L 529.4,664.6 L 529.1,688.4 L 530.4,709.3" fill="none" stroke="#1F2937" stroke-width="1.8" stroke-linecap="round" stroke-linejoin="round"/>
  <path d="M 530.0,440.0 L 530.2,463.9 L 529.9,484.7 L 529.2,506.2 L 530.2,531.2 L 531.1,551.1 L 531.3,574.7 L 529.9,598.7 L 529.3,619.4 L 528.6,641.3 L 531.4,664.6 L 528.8,687.1 L 529.9,710.4" fill="none" stroke="#1F2937" stroke-width="1.8" stroke-linecap="round" stroke-linejoin="round"/>
  <path d="M 530.0,710.0 L 507.2,710.8 L 485.4,710.6 L 461.3,710.3 L 436.6,710.7 L 413.8,709.4 L 391.7,709.7 L 369.7,709.5 L 347.0,709.1 L 322.9,710.5 L 300.5,710.3 L 278.2,708.6 L 253.4,710.2 L 230.0,710.1 L 209.0,710.9 L 186.1,709.8 L 162.3,710.3 L 137.6,710.1 L 117.3,711.5 L 93.7,710.8 L 69.9,710.2" fill="none" stroke="#1F2937" stroke-width="1.8" stroke-linecap="round" stroke-linejoin="round"/>
  <path d="M 530.0,710.0 L 507.4,711.2 L 482.5,711.1 L 460.5,709.4 L 438.7,709.1 L 415.3,709.7 L 392.6,708.8 L 370.3,709.0 L 345.2,709.7 L 321.9,711.2 L 300.5,708.5 L 277.4,709.9 L 255.2,710.8 L 231.5,711.4 L 207.6,709.1 L 185.2,709.3 L 163.3,709.9 L 139.4,710.0 L 115.4,708.8 L 93.5,711.1 L 70.3,710.0" fill="none" stroke="#1F2937" stroke-width="1.8" stroke-linecap="round" stroke-linejoin="round"/>
  <path d="M 70.0,710.0 L 70.0,686.3 L 69.1,666.3 L 69.2,642.1 L 68.7,619.5 L 70.2,598.0 L 69.0,575.3 L 69.8,553.6 L 71.0,528.9 L 69.1,506.8 L 70.8,485.8 L 70.3,461.0 L 70.2,440.1" fill="none" stroke="#1F2937" stroke-width="1.8" stroke-linecap="round" stroke-linejoin="round"/>
  <path d="M 70.0,710.0 L 70.5,688.4 L 68.6,664.4 L 68.9,641.3 L 70.3,620.3 L 69.8,598.5 L 70.7,575.5 L 69.3,552.9 L 70.5,531.0 L 69.7,507.0 L 68.6,485.7 L 68.9,462.7 L 69.6,440.5" fill="none" stroke="#1F2937" stroke-width="1.8" stroke-linecap="round" stroke-linejoin="round"/>
  <text x="94.0" y="472" font-family='"Caveat", "Indie Flower", "Comic Sans MS", "Marker Felt", "Bradley Hand", sans-serif' font-size="18" font-weight="700" fill="#EF4444" text-anchor="start">No success metric</text>
  <path d="M 514.1,476.7 L 513.6,480.1 L 512.0,483.3 L 510.4,486.2 L 509.3,489.7 L 506.1,491.4 L 503.0,492.8 L 500.5,496.1 L 497.0,496.9 L 493.4,495.0 L 489.9,495.4 L 486.9,493.6 L 483.8,492.3 L 480.2,491.4 L 478.7,488.0 L 476.0,485.6 L 474.3,482.4 L 474.2,478.8 L 475.2,475.4 L 473.6,471.7 L 475.3,468.5 L 477.6,465.8 L 479.9,463.4 L 481.1,459.5 L 485.0,459.2 L 487.6,456.3 L 491.2,455.9 L 494.7,455.7 L 498.4,455.3 L 501.2,458.1 L 504.1,459.8 L 507.4,461.0 L 509.5,463.9 L 511.7,466.6 L 514.1,469.5 L 514.0,473.2 L 512.9,476.6" fill="none" stroke="#EF4444" stroke-width="2.4" stroke-linecap="round" stroke-linejoin="round"/>
  <path d="M 514.8,477.3 L 513.9,480.8 L 511.7,483.8 L 509.8,486.5 L 508.7,490.0 L 506.5,493.0 L 502.8,493.8 L 499.8,495.8 L 496.1,494.7 L 492.7,495.7 L 489.5,494.6 L 486.3,493.5 L 482.7,492.9 L 479.7,491.0 L 478.2,487.6 L 475.1,485.4 L 474.3,481.8 L 473.9,478.2 L 474.8,474.8 L 473.8,471.1 L 476.0,468.1 L 476.9,464.6 L 478.9,461.6 L 482.4,460.3 L 485.4,458.6 L 488.2,456.0 L 491.8,456.5 L 495.3,456.5 L 498.6,457.2 L 502.3,457.1 L 505.3,459.0 L 507.7,461.6 L 509.9,464.3 L 511.7,467.3 L 513.5,470.3 L 514.5,473.7 L 512.9,477.2" fill="none" stroke="#EF4444" stroke-width="2.4" stroke-linecap="round" stroke-linejoin="round"/>
  <path d="M 481.0,463.0 L 487.0,469.4 L 494.2,476.1 L 501.1,482.6 L 507.2,489.0" fill="none" stroke="#EF4444" stroke-width="2.4" stroke-linecap="round" stroke-linejoin="round"/>
  <path d="M 481.0,489.0 L 488.1,482.1 L 493.4,476.3 L 500.6,470.1 L 507.2,463.0" fill="none" stroke="#EF4444" stroke-width="2.4" stroke-linecap="round" stroke-linejoin="round"/>
  <text x="94.0" y="520" font-family='"Caveat", "Indie Flower", "Comic Sans MS", "Marker Felt", "Bradley Hand", sans-serif' font-size="13" font-weight="500" fill="#1F2937" text-anchor="start">## Success criteria</text>
  <text x="94.0" y="542" font-family='"Caveat", "Indie Flower", "Comic Sans MS", "Marker Felt", "Bradley Hand", sans-serif' font-size="13" font-weight="500" fill="#1F2937" text-anchor="start"></text>
  <text x="94.0" y="564" font-family='"Caveat", "Indie Flower", "Comic Sans MS", "Marker Felt", "Bradley Hand", sans-serif' font-size="13" font-weight="500" fill="#1F2937" text-anchor="start">‘we'll know it worked.’</text>
  <text x="94.0" y="586" font-family='"Caveat", "Indie Flower", "Comic Sans MS", "Marker Felt", "Bradley Hand", sans-serif' font-size="13" font-weight="500" fill="#1F2937" text-anchor="start"></text>
  <text x="94.0" y="608" font-family='"Caveat", "Indie Flower", "Comic Sans MS", "Marker Felt", "Bradley Hand", sans-serif' font-size="13" font-weight="500" fill="#1F2937" text-anchor="start">(if you can't measure it,</text>
  <text x="94.0" y="630" font-family='"Caveat", "Indie Flower", "Comic Sans MS", "Marker Felt", "Bradley Hand", sans-serif' font-size="13" font-weight="500" fill="#1F2937" text-anchor="start">you can't review it.)</text>
  <rect x="570.0" y="440.0" width="460.0" height="270.0" fill="#EF4444" fill-opacity="0.04" stroke="none"/>
  <path d="M 570.0,440.0 L 593.9,438.9 L 616.2,440.3 L 639.8,440.9 L 662.8,440.1 L 684.3,439.0 L 708.3,441.0 L 732.4,440.1 L 753.8,438.7 L 775.7,438.8 L 800.7,440.8 L 821.7,440.6 L 845.0,438.9 L 868.6,439.8 L 891.0,439.1 L 916.1,440.6 L 936.6,440.5 L 961.0,441.2 L 984.9,438.7 L 1006.3,438.6 L 1029.6,439.6" fill="none" stroke="#1F2937" stroke-width="1.8" stroke-linecap="round" stroke-linejoin="round"/>
  <path d="M 570.0,440.0 L 593.1,440.2 L 617.4,441.1 L 639.4,441.5 L 661.6,440.5 L 686.1,438.5 L 708.5,439.1 L 730.6,440.8 L 755.2,440.3 L 777.3,441.0 L 799.8,441.0 L 824.4,441.2 L 845.6,440.5 L 868.0,439.0 L 893.0,439.0 L 915.0,439.3 L 938.8,441.1 L 959.6,440.9 L 983.2,440.0 L 1005.5,441.3 L 1030.2,440.6" fill="none" stroke="#1F2937" stroke-width="1.8" stroke-linecap="round" stroke-linejoin="round"/>
  <path d="M 1030.0,440.0 L 1029.0,462.5 L 1030.0,486.3 L 1031.0,507.8 L 1028.7,530.2 L 1030.3,551.6 L 1029.9,575.7 L 1030.9,596.9 L 1030.8,620.8 L 1030.8,642.2 L 1030.2,666.1 L 1029.4,686.6 L 1029.5,709.3" fill="none" stroke="#1F2937" stroke-width="1.8" stroke-linecap="round" stroke-linejoin="round"/>
  <path d="M 1030.0,440.0 L 1029.5,461.0 L 1030.7,484.7 L 1028.5,507.7 L 1031.3,530.4 L 1029.7,553.9 L 1031.4,575.9 L 1029.6,596.3 L 1030.0,620.3 L 1031.1,641.8 L 1029.9,664.2 L 1031.4,686.4 L 1030.7,710.7" fill="none" stroke="#1F2937" stroke-width="1.8" stroke-linecap="round" stroke-linejoin="round"/>
  <path d="M 1030.0,710.0 L 1006.9,709.0 L 982.6,709.7 L 960.3,708.6 L 936.5,710.5 L 915.9,709.5 L 891.5,710.7 L 870.0,709.4 L 846.5,710.0 L 823.5,710.7 L 800.3,710.6 L 778.0,711.1 L 754.4,711.1 L 731.1,709.8 L 706.6,708.6 L 684.6,709.2 L 662.8,709.2 L 640.4,709.3 L 614.9,710.1 L 591.5,710.3 L 570.6,709.7" fill="none" stroke="#1F2937" stroke-width="1.8" stroke-linecap="round" stroke-linejoin="round"/>
  <path d="M 1030.0,710.0 L 1007.0,710.3 L 983.6,709.7 L 960.6,710.1 L 938.2,710.8 L 914.7,709.5 L 891.0,711.1 L 869.6,709.6 L 845.0,710.9 L 822.7,709.1 L 798.9,710.3 L 777.7,708.9 L 753.1,708.5 L 730.5,709.8 L 708.0,710.0 L 686.0,709.0 L 663.3,709.6 L 638.7,710.8 L 617.2,709.4 L 591.7,710.9 L 570.3,710.4" fill="none" stroke="#1F2937" stroke-width="1.8" stroke-linecap="round" stroke-linejoin="round"/>
  <path d="M 570.0,710.0 L 570.8,688.7 L 569.2,665.3 L 569.5,643.2 L 570.8,618.7 L 570.0,597.3 L 570.9,576.5 L 568.6,552.1 L 571.4,530.3 L 569.6,506.7 L 570.4,485.3 L 569.2,462.5 L 570.0,440.6" fill="none" stroke="#1F2937" stroke-width="1.8" stroke-linecap="round" stroke-linejoin="round"/>
  <path d="M 570.0,710.0 L 571.0,686.7 L 570.3,664.6 L 571.4,641.5 L 569.3,619.5 L 569.5,597.1 L 570.9,574.7 L 569.0,551.0 L 569.5,529.5 L 569.4,508.3 L 571.5,486.3 L 569.5,462.9 L 570.0,439.7" fill="none" stroke="#1F2937" stroke-width="1.8" stroke-linecap="round" stroke-linejoin="round"/>
  <text x="594.0" y="472" font-family='"Caveat", "Indie Flower", "Comic Sans MS", "Marker Felt", "Bradley Hand", sans-serif' font-size="18" font-weight="700" fill="#EF4444" text-anchor="start">No rollback plan</text>
  <path d="M 1012.3,480.6 L 1011.7,483.9 L 1010.9,487.3 L 1008.9,490.4 L 1005.2,491.3 L 1003.0,494.3 L 999.2,494.2 L 996.1,496.1 L 992.7,495.4 L 989.4,494.4 L 985.6,494.9 L 982.4,493.2 L 979.7,490.8 L 976.9,488.5 L 975.0,485.3 L 974.2,481.7 L 973.0,478.2 L 974.0,474.6 L 973.8,471.0 L 975.2,467.6 L 978.2,465.4 L 979.8,462.3 L 981.9,459.3 L 985.2,458.1 L 988.6,457.3 L 991.9,456.1 L 995.4,455.6 L 998.6,457.3 L 1002.5,456.8 L 1004.7,460.1 L 1007.2,462.3 L 1010.0,464.4 L 1011.5,467.4 L 1014.3,470.1 L 1013.5,473.9 L 1014.6,477.4 L 1012.9,480.7" fill="none" stroke="#EF4444" stroke-width="2.4" stroke-linecap="round" stroke-linejoin="round"/>
  <path d="M 1012.5,480.6 L 1011.5,483.8 L 1010.4,487.0 L 1008.1,489.6 L 1005.9,492.4 L 1002.9,494.3 L 999.3,494.5 L 996.0,495.0 L 992.6,495.3 L 989.2,495.1 L 986.1,493.7 L 982.3,493.3 L 979.9,490.6 L 978.7,487.1 L 976.6,484.5 L 973.7,481.8 L 973.8,478.1 L 973.5,474.6 L 975.2,471.3 L 975.3,467.6 L 977.9,465.1 L 980.0,462.4 L 982.8,460.6 L 985.5,458.6 L 988.7,457.6 L 992.0,457.0 L 995.5,455.2 L 998.7,457.3 L 1002.1,457.8 L 1005.2,459.4 L 1008.6,460.9 L 1009.8,464.5 L 1012.7,466.9 L 1014.3,470.2 L 1012.9,474.0 L 1013.3,477.4 L 1013.3,480.8" fill="none" stroke="#EF4444" stroke-width="2.4" stroke-linecap="round" stroke-linejoin="round"/>
  <path d="M 981.0,463.0 L 987.0,469.9 L 994.3,476.6 L 1000.1,482.8 L 1007.1,489.0" fill="none" stroke="#EF4444" stroke-width="2.4" stroke-linecap="round" stroke-linejoin="round"/>
  <path d="M 981.0,489.0 L 987.5,482.4 L 994.2,476.3 L 1000.7,469.9 L 1007.1,463.1" fill="none" stroke="#EF4444" stroke-width="2.4" stroke-linecap="round" stroke-linejoin="round"/>
  <text x="594.0" y="520" font-family='"Caveat", "Indie Flower", "Comic Sans MS", "Marker Felt", "Bradley Hand", sans-serif' font-size="13" font-weight="500" fill="#1F2937" text-anchor="start">## Rollback</text>
  <text x="594.0" y="542" font-family='"Caveat", "Indie Flower", "Comic Sans MS", "Marker Felt", "Bradley Hand", sans-serif' font-size="13" font-weight="500" fill="#1F2937" text-anchor="start"></text>
  <text x="594.0" y="564" font-family='"Caveat", "Indie Flower", "Comic Sans MS", "Marker Felt", "Bradley Hand", sans-serif' font-size="13" font-weight="500" fill="#1F2937" text-anchor="start">(section is empty.)</text>
  <text x="594.0" y="586" font-family='"Caveat", "Indie Flower", "Comic Sans MS", "Marker Felt", "Bradley Hand", sans-serif' font-size="13" font-weight="500" fill="#1F2937" text-anchor="start"></text>
  <text x="594.0" y="608" font-family='"Caveat", "Indie Flower", "Comic Sans MS", "Marker Felt", "Bradley Hand", sans-serif' font-size="13" font-weight="500" fill="#1F2937" text-anchor="start">(if it fails in prod, the</text>
  <text x="594.0" y="630" font-family='"Caveat", "Indie Flower", "Comic Sans MS", "Marker Felt", "Bradley Hand", sans-serif' font-size="13" font-weight="500" fill="#1F2937" text-anchor="start">plan is panic.)</text>
  <path d="M 120.0,700.0 L 141.3,699.4 L 164.3,699.6 L 185.7,699.3 L 207.6,699.6 L 230.0,699.9 L 252.0,700.4 L 273.8,699.5 L 295.8,700.8 L 318.7,700.1 L 340.7,699.8 L 362.5,700.3 L 384.8,700.5 L 407.0,699.3 L 428.9,700.5 L 450.2,699.9 L 473.4,699.4 L 494.3,700.1 L 517.4,700.7 L 539.8,699.3 L 561.0,700.2 L 583.6,699.9 L 605.5,699.8 L 626.7,699.4 L 649.6,700.1 L 670.6,700.7 L 693.9,700.8 L 715.5,700.6 L 737.1,699.5 L 760.3,700.3 L 781.3,699.9 L 803.4,699.4 L 825.2,700.6 L 848.3,700.1 L 869.0,699.7 L 891.9,700.0 L 913.9,699.9 L 935.5,700.0 L 957.3,699.8 L 980.4,699.9" fill="none" stroke="#6B7280" stroke-width="1.2" stroke-linecap="round" stroke-linejoin="round"/>
  <text x="550.0" y="738" font-family='"Caveat", "Indie Flower", "Comic Sans MS", "Marker Felt", "Bradley Hand", sans-serif' font-size="15" font-weight="600" fill="#1F2937" text-anchor="middle">An RFC merges when reviewers can name what would change and how to measure it.</text>
  </svg>
