<svg xmlns="http://www.w3.org/2000/svg" viewBox="0 0 1300 680" role="img" aria-label="White Belt  —  the first-day map">
  <rect width="1300" height="680" fill="#FFFFFF"/>
  <text x="650.0" y="48" font-family='"Caveat", "Indie Flower", "Comic Sans MS", "Marker Felt", "Bradley Hand", sans-serif' font-size="28" font-weight="700" fill="#1F2937" text-anchor="middle">White Belt  —  the first-day map</text>
  <text x="650.0" y="76" font-family='"Caveat", "Indie Flower", "Comic Sans MS", "Marker Felt", "Bradley Hand", sans-serif' font-size="15" font-weight="500" fill="#6B7280" text-anchor="middle">Setup script → verify → likely YELLOW → one-line fix → GREEN.</text>

  <path d="M 110.0,380.0 L 132.7,379.7 L 154.7,380.1 L 176.5,380.1 L 197.7,379.5 L 219.9,380.9 L 242.2,379.6 L 263.8,379.8 L 286.5,379.7 L 308.1,379.0 L 330.8,379.0 L 352.8,379.3 L 374.1,380.1 L 396.0,379.1 L 417.8,380.1 L 439.8,379.2 L 462.9,380.0 L 484.5,380.3 L 505.8,380.3 L 529.7,380.3 L 551.3,379.3 L 572.7,379.3 L 594.5,380.0 L 617.8,379.0 L 639.8,380.5 L 660.6,379.6 L 682.1,379.0 L 705.6,380.5 L 727.2,380.6 L 749.8,380.0 L 770.3,379.7 L 792.7,379.6 L 815.9,380.6 L 837.1,379.0 L 859.0,380.1 L 881.0,380.6 L 903.7,379.6 L 924.7,380.6 L 948.2,380.3 L 969.7,380.8 L 991.0,380.3 L 1012.7,379.0 L 1036.7,379.7 L 1057.7,380.1 L 1079.9,379.3 L 1102.2,379.7 L 1124.5,380.3 L 1145.3,379.8 L 1168.9,379.7 L 1189.7,379.6" fill="none" stroke="#1F2937" stroke-width="2.4" stroke-linecap="round" stroke-linejoin="round"/>
  <path d="M 110.0,380.0 L 132.1,380.2 L 154.7,379.6 L 176.7,379.2 L 198.5,379.3 L 220.9,379.0 L 242.6,380.5 L 263.6,379.9 L 286.6,380.4 L 307.7,380.3 L 331.1,379.7 L 352.1,379.3 L 374.8,379.0 L 396.2,380.6 L 418.1,380.2 L 440.1,380.3 L 463.0,380.9 L 485.3,380.2 L 506.1,379.2 L 529.6,379.7 L 550.4,380.9 L 573.0,379.9 L 595.9,380.7 L 616.5,380.2 L 638.5,380.2 L 661.1,380.8 L 682.9,379.9 L 704.5,380.3 L 727.5,379.4 L 749.6,380.6 L 771.8,379.4 L 793.3,380.2 L 814.5,379.6 L 837.7,379.0 L 858.5,380.7 L 881.2,380.2 L 904.4,380.8 L 925.1,381.0 L 948.2,379.5 L 969.5,379.8 L 991.9,379.9 L 1012.9,379.4 L 1036.6,380.8 L 1057.9,379.0 L 1079.7,380.0 L 1101.4,380.4 L 1124.1,380.8 L 1145.5,379.6 L 1168.7,380.2 L 1190.1,380.1" fill="none" stroke="#1F2937" stroke-width="2.4" stroke-linecap="round" stroke-linejoin="round"/>
  <circle cx="160.0" cy="380.0" r="14.0" fill="#FFFFFF" stroke="none"/>
  <path d="M 173.2,380.2 L 173.0,382.5 L 172.6,384.8 L 171.1,386.6 L 170.5,389.0 L 169.6,391.7 L 166.6,391.7 L 164.8,393.6 L 162.2,393.4 L 159.8,393.9 L 157.6,392.8 L 155.0,393.1 L 152.3,392.9 L 150.4,391.1 L 149.0,389.0 L 148.2,386.6 L 146.3,384.8 L 147.1,382.1 L 145.7,379.8 L 146.2,377.4 L 146.2,374.8 L 147.1,372.3 L 150.1,371.4 L 150.7,368.7 L 153.0,367.5 L 155.3,366.6 L 157.9,366.9 L 160.2,365.0 L 162.6,366.1 L 164.9,367.0 L 167.2,367.9 L 169.5,368.9 L 171.8,370.4 L 173.3,372.6 L 173.9,375.2 L 173.5,377.8 L 173.7,380.2" fill="none" stroke="#1F2937" stroke-width="2.0" stroke-linecap="round" stroke-linejoin="round"/>
  <path d="M 174.6,383.0 L 172.4,385.0 L 171.5,387.1 L 170.7,389.5 L 168.8,391.2 L 166.2,391.6 L 164.6,393.9 L 161.9,393.2 L 159.6,393.6 L 157.3,393.1 L 154.5,393.8 L 152.2,392.7 L 151.4,389.7 L 149.1,388.6 L 146.8,387.1 L 146.9,384.3 L 145.0,382.2 L 146.6,379.6 L 145.4,377.0 L 147.2,374.9 L 147.5,372.3 L 150.0,371.1 L 151.7,369.4 L 153.5,367.8 L 155.5,366.3 L 158.0,366.0 L 160.4,365.8 L 162.7,367.3 L 165.0,367.4 L 167.3,368.2 L 169.7,369.1 L 170.7,371.6 L 172.4,373.3 L 172.7,375.8 L 172.8,378.1 L 175.1,380.5 L 174.7,383.1" fill="none" stroke="#1F2937" stroke-width="2.0" stroke-linecap="round" stroke-linejoin="round"/>
  <path d="M 170.9,225.2 L 170.8,227.1 L 170.8,229.2 L 169.2,230.6 L 168.6,232.6 L 166.9,233.6 L 164.6,233.6 L 163.6,236.1 L 161.5,235.8 L 159.6,235.0 L 157.9,234.6 L 155.5,235.7 L 153.7,234.9 L 153.3,232.2 L 152.1,230.9 L 149.8,230.2 L 149.6,228.1 L 150.1,226.2 L 149.6,224.4 L 150.6,222.8 L 149.2,220.4 L 151.7,219.6 L 151.5,217.1 L 153.6,216.5 L 155.2,215.6 L 156.7,214.4 L 158.5,213.6 L 160.4,214.6 L 162.3,214.3 L 164.0,215.1 L 166.3,214.8 L 167.1,216.9 L 169.5,217.5 L 168.7,220.2 L 170.3,221.5 L 170.9,223.3 L 170.9,225.2" fill="none" stroke="#1F2937" stroke-width="1.6" stroke-linecap="round" stroke-linejoin="round"/>
  <path d="M 170.3,226.8 L 170.3,228.8 L 170.2,230.9 L 169.0,232.6 L 166.6,233.0 L 165.3,234.4 L 163.9,236.0 L 161.7,235.7 L 159.8,235.7 L 158.2,234.3 L 155.9,235.6 L 154.5,233.9 L 152.3,233.7 L 151.9,231.4 L 151.5,229.5 L 150.3,228.1 L 148.8,226.6 L 149.1,224.6 L 148.8,222.6 L 148.8,220.5 L 150.6,219.1 L 152.0,217.9 L 152.6,215.7 L 154.8,215.4 L 156.6,215.0 L 158.2,213.3 L 160.2,214.4 L 162.2,213.6 L 163.5,215.6 L 165.8,215.2 L 167.7,216.0 L 168.8,217.7 L 168.4,220.1 L 170.0,221.4 L 170.1,223.2 L 170.9,225.0 L 171.8,227.1" fill="none" stroke="#1F2937" stroke-width="1.6" stroke-linecap="round" stroke-linejoin="round"/>
  <path d="M 160.0,235.6 L 159.6,243.1 L 158.6,252.6 L 159.3,258.8 L 159.5,265.3" fill="none" stroke="#1F2937" stroke-width="1.6" stroke-linecap="round" stroke-linejoin="round"/>
  <path d="M 160.0,235.6 L 158.9,244.8 L 160.5,250.5 L 161.1,260.5 L 160.3,265.4" fill="none" stroke="#1F2937" stroke-width="1.6" stroke-linecap="round" stroke-linejoin="round"/>
  <path d="M 160.0,242.8 L 154.5,246.1 L 152.8,249.0 L 149.2,250.7 L 145.8,255.8" fill="none" stroke="#1F2937" stroke-width="1.6" stroke-linecap="round" stroke-linejoin="round"/>
  <path d="M 160.0,242.8 L 157.3,247.3 L 153.6,249.4 L 147.4,252.2 L 145.4,255.7" fill="none" stroke="#1F2937" stroke-width="1.6" stroke-linecap="round" stroke-linejoin="round"/>
  <path d="M 160.0,242.8 L 163.0,247.3 L 167.5,247.3 L 171.4,251.9 L 173.9,254.6" fill="none" stroke="#1F2937" stroke-width="1.6" stroke-linecap="round" stroke-linejoin="round"/>
  <path d="M 160.0,242.8 L 162.6,247.0 L 166.2,247.7 L 172.3,251.8 L 173.5,255.7" fill="none" stroke="#1F2937" stroke-width="1.6" stroke-linecap="round" stroke-linejoin="round"/>
  <path d="M 160.0,266.2 L 156.2,272.1 L 155.0,274.4 L 153.6,279.7 L 148.4,285.8" fill="none" stroke="#1F2937" stroke-width="1.6" stroke-linecap="round" stroke-linejoin="round"/>
  <path d="M 160.0,266.2 L 158.1,271.3 L 154.8,277.9 L 153.0,280.1 L 148.9,286.6" fill="none" stroke="#1F2937" stroke-width="1.6" stroke-linecap="round" stroke-linejoin="round"/>
  <path d="M 160.0,266.2 L 163.8,272.3 L 166.5,275.9 L 168.2,281.2 L 170.1,285.9" fill="none" stroke="#1F2937" stroke-width="1.6" stroke-linecap="round" stroke-linejoin="round"/>
  <path d="M 160.0,266.2 L 163.9,272.5 L 163.6,277.1 L 166.6,281.7 L 170.9,285.5" fill="none" stroke="#1F2937" stroke-width="1.6" stroke-linecap="round" stroke-linejoin="round"/>
  <text x="160" y="180" font-family='"Caveat", "Indie Flower", "Comic Sans MS", "Marker Felt", "Bradley Hand", sans-serif' font-size="13" font-weight="600" fill="#1F2937" text-anchor="middle">fresh</text>
  <text x="160" y="198" font-family='"Caveat", "Indie Flower", "Comic Sans MS", "Marker Felt", "Bradley Hand", sans-serif' font-size="13" font-weight="600" fill="#1F2937" text-anchor="middle">laptop</text>
  <circle cx="380.0" cy="380.0" r="14.0" fill="#FFFFFF" stroke="none"/>
  <path d="M 394.1,382.7 L 393.1,384.9 L 391.0,386.5 L 390.5,389.0 L 388.6,390.5 L 386.8,392.1 L 384.5,392.7 L 382.4,394.7 L 379.8,394.1 L 377.5,393.5 L 375.1,393.0 L 372.7,392.4 L 371.2,390.3 L 368.6,389.4 L 368.7,386.4 L 365.9,384.9 L 365.7,382.4 L 365.1,379.8 L 365.3,377.2 L 367.0,375.1 L 367.8,372.8 L 369.9,371.4 L 371.0,369.1 L 373.0,367.5 L 375.2,366.4 L 377.7,366.1 L 380.1,367.0 L 382.6,366.1 L 385.0,366.6 L 387.5,367.3 L 388.6,370.0 L 390.1,371.7 L 391.4,373.6 L 394.0,375.1 L 394.1,377.7 L 394.0,380.2 L 394.4,382.7" fill="none" stroke="#1F2937" stroke-width="2.0" stroke-linecap="round" stroke-linejoin="round"/>
  <path d="M 394.5,383.1 L 393.3,385.4 L 391.5,387.2 L 390.4,389.4 L 389.1,391.6 L 386.7,392.7 L 384.4,393.5 L 381.8,392.9 L 379.5,394.1 L 376.9,394.8 L 374.7,393.3 L 372.3,392.4 L 371.2,389.8 L 368.4,389.1 L 368.1,386.3 L 365.9,384.6 L 367.1,381.8 L 364.9,379.5 L 366.5,377.1 L 366.8,374.7 L 368.3,372.7 L 370.2,371.2 L 370.7,368.1 L 373.4,367.6 L 375.9,367.5 L 377.9,365.4 L 380.5,365.3 L 382.9,366.4 L 385.4,366.7 L 387.7,367.7 L 388.6,370.4 L 390.3,372.0 L 393.0,373.1 L 393.3,375.7 L 393.4,378.1 L 393.4,380.5 L 392.8,382.7" fill="none" stroke="#1F2937" stroke-width="2.0" stroke-linecap="round" stroke-linejoin="round"/>
  <path d="M 391.2,226.5 L 390.9,228.5 L 389.2,229.8 L 387.6,230.9 L 386.7,232.4 L 385.8,234.3 L 384.0,235.1 L 382.0,234.8 L 380.3,235.5 L 378.5,234.5 L 376.5,235.3 L 374.8,234.3 L 372.9,233.7 L 372.7,231.2 L 369.8,231.0 L 369.7,228.8 L 369.7,226.9 L 369.8,225.0 L 370.4,223.3 L 370.3,221.5 L 371.5,220.2 L 372.3,218.6 L 372.3,216.1 L 374.5,215.8 L 376.0,214.6 L 378.0,214.8 L 379.8,214.7 L 381.7,213.9 L 383.8,213.4 L 384.8,216.0 L 386.8,216.3 L 388.6,217.2 L 388.4,219.7 L 389.2,221.2 L 391.1,222.6 L 391.8,224.5 L 390.5,226.4" fill="none" stroke="#1F2937" stroke-width="1.6" stroke-linecap="round" stroke-linejoin="round"/>
  <path d="M 391.0,227.6 L 389.3,228.9 L 389.3,231.1 L 388.2,232.7 L 387.0,234.5 L 385.0,235.0 L 382.8,234.5 L 381.1,235.5 L 379.3,234.6 L 377.2,236.1 L 375.3,235.3 L 374.2,233.4 L 371.8,233.3 L 371.8,230.7 L 369.7,229.8 L 369.8,227.7 L 370.1,225.8 L 368.7,224.0 L 370.1,222.3 L 371.0,220.8 L 370.7,218.5 L 372.6,217.6 L 374.1,216.7 L 375.7,216.0 L 377.0,214.3 L 378.8,212.9 L 380.7,214.6 L 382.7,213.9 L 384.8,214.1 L 386.7,214.9 L 388.2,216.3 L 388.6,218.6 L 390.4,219.7 L 390.3,221.8 L 391.4,223.6 L 392.0,225.6 L 391.1,227.6" fill="none" stroke="#1F2937" stroke-width="1.6" stroke-linecap="round" stroke-linejoin="round"/>
  <path d="M 380.0,235.6 L 378.0,244.5 L 381.3,251.4 L 380.6,259.6 L 379.7,265.7" fill="none" stroke="#1F2937" stroke-width="1.6" stroke-linecap="round" stroke-linejoin="round"/>
  <path d="M 380.0,235.6 L 378.9,242.8 L 378.3,252.9 L 381.8,257.7 L 380.8,265.2" fill="none" stroke="#1F2937" stroke-width="1.6" stroke-linecap="round" stroke-linejoin="round"/>
  <path d="M 380.0,242.8 L 374.7,246.4 L 373.8,247.2 L 368.1,251.4 L 365.5,255.3" fill="none" stroke="#1F2937" stroke-width="1.6" stroke-linecap="round" stroke-linejoin="round"/>
  <path d="M 380.0,242.8 L 374.9,245.7 L 371.3,248.5 L 367.2,252.9 L 365.6,255.5" fill="none" stroke="#1F2937" stroke-width="1.6" stroke-linecap="round" stroke-linejoin="round"/>
  <path d="M 380.0,242.8 L 384.8,247.8 L 387.8,249.6 L 391.9,253.1 L 393.7,255.3" fill="none" stroke="#1F2937" stroke-width="1.6" stroke-linecap="round" stroke-linejoin="round"/>
  <path d="M 380.0,242.8 L 385.2,245.0 L 385.5,247.5 L 391.7,250.4 L 393.7,256.3" fill="none" stroke="#1F2937" stroke-width="1.6" stroke-linecap="round" stroke-linejoin="round"/>
  <path d="M 380.0,266.2 L 377.7,272.9 L 375.0,277.7 L 371.4,281.9 L 369.7,285.3" fill="none" stroke="#1F2937" stroke-width="1.6" stroke-linecap="round" stroke-linejoin="round"/>
  <path d="M 380.0,266.2 L 378.7,270.3 L 372.6,277.7 L 373.5,279.3 L 369.8,286.9" fill="none" stroke="#1F2937" stroke-width="1.6" stroke-linecap="round" stroke-linejoin="round"/>
  <path d="M 380.0,266.2 L 380.9,273.1 L 385.4,277.6 L 386.9,282.6 L 390.8,285.7" fill="none" stroke="#1F2937" stroke-width="1.6" stroke-linecap="round" stroke-linejoin="round"/>
  <path d="M 380.0,266.2 L 384.1,272.5 L 386.6,276.4 L 387.6,281.2 L 391.4,285.6" fill="none" stroke="#1F2937" stroke-width="1.6" stroke-linecap="round" stroke-linejoin="round"/>
  <text x="380" y="180" font-family='"Caveat", "Indie Flower", "Comic Sans MS", "Marker Felt", "Bradley Hand", sans-serif' font-size="13" font-weight="600" fill="#1F2937" text-anchor="middle">run setup</text>
  <text x="380" y="198" font-family='"Caveat", "Indie Flower", "Comic Sans MS", "Marker Felt", "Bradley Hand", sans-serif' font-size="13" font-weight="600" fill="#1F2937" text-anchor="middle">script</text>
  <circle cx="640.0" cy="380.0" r="14.0" fill="#FFFFFF" stroke="none"/>
  <path d="M 655.2,380.2 L 654.2,382.7 L 652.2,384.6 L 651.4,386.8 L 651.0,389.5 L 649.5,391.5 L 647.3,392.9 L 644.5,392.8 L 642.5,395.0 L 639.9,393.2 L 637.5,393.6 L 634.9,393.5 L 632.8,392.1 L 630.7,390.8 L 628.8,389.2 L 628.4,386.5 L 626.8,384.7 L 627.0,382.1 L 626.0,379.8 L 627.1,377.6 L 626.6,375.0 L 628.9,373.4 L 629.6,371.1 L 631.7,369.9 L 633.4,368.2 L 635.6,367.5 L 637.5,365.1 L 640.2,365.2 L 642.6,366.2 L 644.8,367.1 L 646.7,368.7 L 648.5,370.1 L 651.4,370.7 L 651.5,373.5 L 653.8,375.1 L 654.7,377.6 L 653.8,380.1" fill="none" stroke="#1F2937" stroke-width="2.0" stroke-linecap="round" stroke-linejoin="round"/>
  <path d="M 654.7,380.8 L 652.5,383.0 L 652.1,385.2 L 652.3,388.1 L 650.7,390.1 L 647.8,390.5 L 646.6,393.1 L 644.2,393.8 L 641.6,393.2 L 639.2,394.8 L 636.8,393.4 L 634.7,392.4 L 632.7,391.2 L 630.1,390.6 L 629.7,387.7 L 626.7,386.7 L 626.4,384.1 L 626.6,381.6 L 626.1,379.2 L 627.0,376.9 L 627.5,374.6 L 627.4,371.7 L 629.1,369.8 L 632.0,369.3 L 633.3,366.7 L 635.7,365.6 L 638.3,365.9 L 640.8,366.4 L 643.4,365.3 L 645.8,366.4 L 647.8,368.1 L 649.7,369.7 L 651.4,371.5 L 652.2,373.9 L 652.9,376.1 L 654.9,378.2 L 655.0,380.8" fill="none" stroke="#1F2937" stroke-width="2.0" stroke-linecap="round" stroke-linejoin="round"/>
  <path d="M 651.1,225.8 L 650.4,227.6 L 649.1,229.1 L 649.4,231.5 L 648.2,233.1 L 646.5,234.2 L 644.1,233.8 L 642.7,235.2 L 640.9,235.6 L 639.1,234.5 L 637.1,235.5 L 635.9,233.5 L 634.0,233.3 L 631.9,232.8 L 631.3,230.9 L 629.3,229.7 L 629.9,227.4 L 628.8,225.7 L 628.5,223.7 L 630.3,222.2 L 629.2,219.7 L 631.4,218.7 L 632.8,217.5 L 633.3,215.1 L 635.9,216.0 L 637.3,214.7 L 639.1,214.2 L 641.1,213.2 L 642.7,214.8 L 644.2,215.9 L 646.3,215.9 L 647.2,217.7 L 649.8,218.0 L 650.2,220.1 L 651.3,221.8 L 651.7,223.8 L 650.2,225.7" fill="none" stroke="#1F2937" stroke-width="1.6" stroke-linecap="round" stroke-linejoin="round"/>
  <path d="M 650.7,226.6 L 650.5,228.6 L 648.5,229.7 L 649.0,232.2 L 647.3,233.5 L 646.0,235.1 L 644.1,236.0 L 642.1,236.2 L 640.0,235.4 L 638.1,235.6 L 636.3,235.2 L 634.8,233.9 L 633.7,232.4 L 631.9,231.7 L 629.8,230.7 L 629.6,228.6 L 630.0,226.6 L 628.3,224.9 L 629.9,223.1 L 628.7,220.8 L 629.8,219.0 L 632.0,218.1 L 633.8,217.4 L 635.0,216.2 L 636.4,215.1 L 638.1,214.5 L 640.0,214.5 L 642.0,213.1 L 644.0,213.7 L 644.8,216.3 L 647.2,216.2 L 648.4,217.6 L 649.5,219.2 L 649.6,221.3 L 650.9,222.8 L 650.9,224.7 L 650.9,226.7" fill="none" stroke="#1F2937" stroke-width="1.6" stroke-linecap="round" stroke-linejoin="round"/>
  <path d="M 636.4,228.4 L 638.4,229.3 L 640.3,229.0 L 642.8,230.5 L 643.2,230.1" fill="none" stroke="#1F2937" stroke-width="1.2" stroke-linecap="round" stroke-linejoin="round"/>
  <path d="M 634.6,219.4 L 636.9,221.2 L 634.7,218.3 L 638.4,221.2 L 637.6,220.3" fill="none" stroke="#1F2937" stroke-width="1.2" stroke-linecap="round" stroke-linejoin="round"/>
  <path d="M 641.8,221.2 L 641.3,219.1 L 643.8,220.4 L 645.7,221.3 L 646.1,219.7" fill="none" stroke="#1F2937" stroke-width="1.2" stroke-linecap="round" stroke-linejoin="round"/>
  <path d="M 640.0,235.6 L 640.5,244.1 L 641.0,249.2 L 638.2,257.6 L 639.2,265.3" fill="none" stroke="#1F2937" stroke-width="1.6" stroke-linecap="round" stroke-linejoin="round"/>
  <path d="M 640.0,235.6 L 638.1,242.6 L 639.0,250.7 L 638.3,258.6 L 640.8,266.6" fill="none" stroke="#1F2937" stroke-width="1.6" stroke-linecap="round" stroke-linejoin="round"/>
  <path d="M 640.0,242.8 L 634.6,244.7 L 631.4,247.3 L 627.3,252.8 L 625.1,255.5" fill="none" stroke="#1F2937" stroke-width="1.6" stroke-linecap="round" stroke-linejoin="round"/>
  <path d="M 640.0,242.8 L 638.3,244.4 L 632.9,247.9 L 630.5,251.8 L 625.5,254.7" fill="none" stroke="#1F2937" stroke-width="1.6" stroke-linecap="round" stroke-linejoin="round"/>
  <path d="M 640.0,242.8 L 643.1,246.0 L 645.6,249.8 L 651.7,253.7 L 653.7,255.6" fill="none" stroke="#1F2937" stroke-width="1.6" stroke-linecap="round" stroke-linejoin="round"/>
  <path d="M 640.0,242.8 L 643.6,247.7 L 647.0,248.9 L 650.4,251.8 L 654.5,256.2" fill="none" stroke="#1F2937" stroke-width="1.6" stroke-linecap="round" stroke-linejoin="round"/>
  <path d="M 640.0,266.2 L 639.2,269.4 L 635.6,276.1 L 630.1,281.9 L 629.8,285.7" fill="none" stroke="#1F2937" stroke-width="1.6" stroke-linecap="round" stroke-linejoin="round"/>
  <path d="M 640.0,266.2 L 636.7,273.0 L 636.3,275.4 L 630.6,281.6 L 628.9,285.2" fill="none" stroke="#1F2937" stroke-width="1.6" stroke-linecap="round" stroke-linejoin="round"/>
  <path d="M 640.0,266.2 L 642.8,269.7 L 644.7,277.6 L 647.3,279.9 L 650.9,285.3" fill="none" stroke="#1F2937" stroke-width="1.6" stroke-linecap="round" stroke-linejoin="round"/>
  <path d="M 640.0,266.2 L 641.4,270.2 L 644.9,275.0 L 649.5,281.1 L 651.4,286.2" fill="none" stroke="#1F2937" stroke-width="1.6" stroke-linecap="round" stroke-linejoin="round"/>
  <text x="640" y="180" font-family='"Caveat", "Indie Flower", "Comic Sans MS", "Marker Felt", "Bradley Hand", sans-serif' font-size="13" font-weight="600" fill="#1F2937" text-anchor="middle">setup-verify</text>
  <text x="640" y="198" font-family='"Caveat", "Indie Flower", "Comic Sans MS", "Marker Felt", "Bradley Hand", sans-serif' font-size="13" font-weight="600" fill="#1F2937" text-anchor="middle">first run</text>
  <circle cx="920.0" cy="380.0" r="14.0" fill="#FFFFFF" stroke="none"/>
  <path d="M 934.7,383.0 L 932.7,385.0 L 932.0,387.3 L 930.1,388.9 L 928.3,390.4 L 926.9,392.7 L 924.1,392.2 L 922.1,393.9 L 919.6,395.1 L 917.1,394.3 L 914.7,393.5 L 913.0,391.5 L 911.1,390.1 L 908.2,389.4 L 907.7,386.7 L 907.8,384.1 L 906.8,382.0 L 905.4,379.6 L 905.9,377.2 L 907.3,375.0 L 907.8,372.5 L 908.8,370.1 L 910.8,368.5 L 912.9,367.0 L 915.7,367.4 L 917.9,366.4 L 920.3,366.9 L 922.9,365.6 L 925.4,366.1 L 927.8,367.2 L 928.8,370.1 L 930.9,371.3 L 932.2,373.4 L 933.9,375.3 L 933.9,377.9 L 934.4,380.4 L 933.8,382.8" fill="none" stroke="#1F2937" stroke-width="2.0" stroke-linecap="round" stroke-linejoin="round"/>
  <path d="M 934.4,381.2 L 933.7,383.6 L 933.5,386.2 L 931.7,388.1 L 930.6,390.5 L 928.5,392.0 L 925.7,392.1 L 923.7,393.5 L 921.3,393.8 L 918.9,392.8 L 916.3,394.1 L 914.0,393.1 L 911.8,391.9 L 910.4,389.7 L 909.5,387.4 L 907.3,386.0 L 905.7,383.9 L 905.5,381.3 L 906.1,378.9 L 905.8,376.3 L 906.6,373.8 L 908.1,371.8 L 910.3,370.4 L 912.1,368.9 L 914.4,368.1 L 916.6,367.5 L 918.7,365.7 L 921.2,365.7 L 923.8,365.6 L 925.9,367.1 L 928.6,367.6 L 930.4,369.5 L 931.0,372.2 L 932.0,374.3 L 933.0,376.4 L 934.7,378.6 L 933.9,381.1" fill="none" stroke="#1F2937" stroke-width="2.0" stroke-linecap="round" stroke-linejoin="round"/>
  <path d="M 930.2,224.9 L 929.5,226.6 L 929.9,228.5 L 929.0,230.1 L 928.9,232.4 L 926.7,232.9 L 925.3,234.1 L 923.9,235.9 L 921.7,234.8 L 919.9,235.5 L 917.9,236.1 L 915.9,235.8 L 915.1,233.2 L 913.0,233.0 L 912.5,231.0 L 909.9,230.5 L 910.8,228.1 L 909.9,226.5 L 908.7,224.7 L 909.1,222.8 L 910.3,221.2 L 910.1,218.9 L 912.7,218.6 L 913.7,217.1 L 914.3,214.8 L 916.8,215.8 L 918.3,214.8 L 920.1,213.2 L 922.2,213.2 L 923.6,215.3 L 924.9,216.5 L 926.7,216.9 L 928.7,217.6 L 928.5,220.0 L 929.3,221.5 L 930.6,223.0 L 931.2,224.9" fill="none" stroke="#1F2937" stroke-width="1.6" stroke-linecap="round" stroke-linejoin="round"/>
  <path d="M 931.7,225.4 L 930.3,227.2 L 929.4,228.8 L 928.9,230.5 L 927.6,231.8 L 926.9,233.9 L 924.6,233.9 L 923.0,234.6 L 921.3,235.5 L 919.4,236.8 L 917.6,235.0 L 915.7,235.0 L 913.7,234.5 L 913.0,232.3 L 911.4,231.3 L 911.0,229.4 L 908.7,228.3 L 910.2,226.0 L 909.7,224.3 L 909.1,222.3 L 910.8,220.9 L 910.6,218.7 L 912.6,217.9 L 914.1,217.0 L 915.5,216.1 L 917.1,215.3 L 918.7,214.0 L 920.6,213.1 L 922.2,215.4 L 924.2,214.9 L 925.2,216.7 L 926.6,217.8 L 927.8,218.9 L 929.7,219.9 L 929.3,222.0 L 930.3,223.5 L 931.7,225.4" fill="none" stroke="#1F2937" stroke-width="1.6" stroke-linecap="round" stroke-linejoin="round"/>
  <path d="M 920.0,235.6 L 918.2,245.0 L 918.7,251.6 L 920.8,257.1 L 920.0,265.5" fill="none" stroke="#1F2937" stroke-width="1.6" stroke-linecap="round" stroke-linejoin="round"/>
  <path d="M 920.0,235.6 L 919.8,241.8 L 919.7,249.9 L 919.6,259.3 L 920.1,266.1" fill="none" stroke="#1F2937" stroke-width="1.6" stroke-linecap="round" stroke-linejoin="round"/>
  <path d="M 920.0,242.8 L 915.1,244.6 L 912.2,249.5 L 910.1,250.9 L 905.0,255.9" fill="none" stroke="#1F2937" stroke-width="1.6" stroke-linecap="round" stroke-linejoin="round"/>
  <path d="M 920.0,242.8 L 915.9,245.5 L 914.8,248.5 L 908.2,253.5 L 905.0,254.9" fill="none" stroke="#1F2937" stroke-width="1.6" stroke-linecap="round" stroke-linejoin="round"/>
  <path d="M 920.0,242.8 L 922.4,246.7 L 927.4,250.7 L 931.0,252.5 L 934.9,256.4" fill="none" stroke="#1F2937" stroke-width="1.6" stroke-linecap="round" stroke-linejoin="round"/>
  <path d="M 920.0,242.8 L 921.8,247.4 L 927.2,250.1 L 931.8,252.0 L 934.1,255.1" fill="none" stroke="#1F2937" stroke-width="1.6" stroke-linecap="round" stroke-linejoin="round"/>
  <path d="M 920.0,266.2 L 916.3,270.5 L 915.7,276.4 L 910.7,279.8 L 909.3,285.0" fill="none" stroke="#1F2937" stroke-width="1.6" stroke-linecap="round" stroke-linejoin="round"/>
  <path d="M 920.0,266.2 L 916.5,269.2 L 913.2,277.6 L 912.8,282.1 L 908.9,285.4" fill="none" stroke="#1F2937" stroke-width="1.6" stroke-linecap="round" stroke-linejoin="round"/>
  <path d="M 920.0,266.2 L 920.9,269.7 L 926.9,277.6 L 928.8,283.0 L 931.7,286.0" fill="none" stroke="#1F2937" stroke-width="1.6" stroke-linecap="round" stroke-linejoin="round"/>
  <path d="M 920.0,266.2 L 923.3,269.2 L 925.2,276.1 L 928.2,282.7 L 931.7,285.1" fill="none" stroke="#1F2937" stroke-width="1.6" stroke-linecap="round" stroke-linejoin="round"/>
  <text x="920" y="180" font-family='"Caveat", "Indie Flower", "Comic Sans MS", "Marker Felt", "Bradley Hand", sans-serif' font-size="13" font-weight="600" fill="#1F2937" text-anchor="middle">fix</text>
  <text x="920" y="198" font-family='"Caveat", "Indie Flower", "Comic Sans MS", "Marker Felt", "Bradley Hand", sans-serif' font-size="13" font-weight="600" fill="#1F2937" text-anchor="middle">(one line)</text>
  <circle cx="1170.0" cy="380.0" r="14.0" fill="#FFFFFF" stroke="none"/>
  <path d="M 1182.6,382.8 L 1183.0,385.4 L 1182.7,388.1 L 1179.6,388.8 L 1179.1,391.8 L 1176.8,393.0 L 1174.5,394.2 L 1171.8,393.5 L 1169.4,393.6 L 1167.1,393.0 L 1164.6,393.1 L 1162.3,392.0 L 1160.8,390.1 L 1158.2,389.0 L 1158.4,386.0 L 1155.8,384.5 L 1156.4,381.8 L 1155.0,379.4 L 1156.7,377.1 L 1157.1,374.7 L 1157.8,372.2 L 1159.0,369.9 L 1160.8,368.0 L 1164.0,368.5 L 1166.0,367.2 L 1168.2,366.5 L 1170.6,365.0 L 1173.0,366.4 L 1175.4,367.1 L 1177.6,368.0 L 1178.7,370.5 L 1180.7,371.8 L 1183.5,373.0 L 1184.4,375.5 L 1183.0,378.3 L 1184.8,380.6 L 1182.7,382.8" fill="none" stroke="#1F2937" stroke-width="2.0" stroke-linecap="round" stroke-linejoin="round"/>
  <path d="M 1183.2,381.4 L 1183.3,383.8 L 1182.3,386.0 L 1181.5,388.3 L 1178.9,389.2 L 1178.0,391.8 L 1176.2,393.8 L 1173.5,394.0 L 1170.9,392.8 L 1168.6,393.5 L 1166.4,392.7 L 1164.2,391.9 L 1162.2,390.8 L 1160.1,389.6 L 1157.4,388.5 L 1158.2,385.3 L 1157.4,383.2 L 1156.1,381.0 L 1155.0,378.5 L 1156.5,376.1 L 1158.1,374.2 L 1158.2,371.5 L 1160.0,369.7 L 1162.6,369.0 L 1164.1,366.8 L 1166.5,366.1 L 1168.9,364.9 L 1171.4,366.5 L 1173.9,366.4 L 1176.1,367.5 L 1178.5,368.2 L 1179.4,370.9 L 1182.0,371.9 L 1182.9,374.2 L 1183.7,376.6 L 1184.0,379.0 L 1185.1,381.6" fill="none" stroke="#1F2937" stroke-width="2.0" stroke-linecap="round" stroke-linejoin="round"/>
  <path d="M 1180.9,225.7 L 1180.8,227.7 L 1179.1,229.0 L 1179.1,231.1 L 1177.0,231.7 L 1176.8,234.5 L 1174.4,234.1 L 1173.1,236.3 L 1170.9,234.6 L 1169.1,235.4 L 1167.1,235.7 L 1165.9,233.7 L 1164.1,233.4 L 1162.6,232.2 L 1161.7,230.7 L 1159.2,229.9 L 1160.2,227.5 L 1159.4,225.8 L 1158.5,223.8 L 1159.0,221.9 L 1160.9,220.6 L 1160.7,218.4 L 1162.6,217.5 L 1163.9,216.2 L 1165.8,216.0 L 1167.2,214.7 L 1169.0,214.3 L 1171.0,212.9 L 1172.5,215.3 L 1174.4,215.3 L 1176.1,216.0 L 1177.4,217.4 L 1179.6,218.0 L 1180.0,220.1 L 1179.9,222.1 L 1180.7,223.8 L 1181.9,225.8" fill="none" stroke="#1F2937" stroke-width="1.6" stroke-linecap="round" stroke-linejoin="round"/>
  <path d="M 1181.5,226.0 L 1181.4,228.0 L 1180.6,229.9 L 1177.9,230.5 L 1176.7,231.7 L 1176.3,234.1 L 1174.5,234.9 L 1172.7,235.5 L 1170.7,235.2 L 1168.9,235.0 L 1167.1,235.1 L 1165.7,233.6 L 1163.9,233.2 L 1162.8,231.7 L 1160.8,231.1 L 1160.6,229.0 L 1158.5,227.7 L 1160.4,225.5 L 1158.3,223.6 L 1159.3,221.8 L 1159.3,219.6 L 1162.0,219.0 L 1162.6,217.2 L 1163.4,215.0 L 1165.6,214.9 L 1167.2,213.8 L 1169.3,214.8 L 1171.2,213.4 L 1172.9,214.7 L 1174.3,216.0 L 1176.4,215.9 L 1177.0,218.0 L 1178.0,219.4 L 1180.3,220.2 L 1180.4,222.2 L 1179.7,224.1 L 1179.7,225.8" fill="none" stroke="#1F2937" stroke-width="1.6" stroke-linecap="round" stroke-linejoin="round"/>
  <path d="M 1166.4,227.5 L 1169.8,227.8 L 1169.7,228.8 L 1171.1,229.4 L 1173.2,228.5" fill="none" stroke="#1F2937" stroke-width="1.2" stroke-linecap="round" stroke-linejoin="round"/>
  <path d="M 1170.0,235.6 L 1169.2,242.0 L 1171.7,251.5 L 1170.2,258.2 L 1169.6,265.5" fill="none" stroke="#1F2937" stroke-width="1.6" stroke-linecap="round" stroke-linejoin="round"/>
  <path d="M 1170.0,235.6 L 1169.1,242.4 L 1169.3,248.9 L 1168.5,260.1 L 1170.7,266.3" fill="none" stroke="#1F2937" stroke-width="1.6" stroke-linecap="round" stroke-linejoin="round"/>
  <path d="M 1170.0,242.8 L 1168.0,245.2 L 1161.0,249.1 L 1161.1,250.7 L 1155.5,256.0" fill="none" stroke="#1F2937" stroke-width="1.6" stroke-linecap="round" stroke-linejoin="round"/>
  <path d="M 1170.0,242.8 L 1166.7,247.0 L 1163.4,249.5 L 1158.5,251.6 L 1155.1,254.7" fill="none" stroke="#1F2937" stroke-width="1.6" stroke-linecap="round" stroke-linejoin="round"/>
  <path d="M 1170.0,242.8 L 1172.2,246.9 L 1176.9,250.4 L 1181.9,253.6 L 1184.6,255.9" fill="none" stroke="#1F2937" stroke-width="1.6" stroke-linecap="round" stroke-linejoin="round"/>
  <path d="M 1170.0,242.8 L 1175.0,245.3 L 1176.0,247.6 L 1182.1,253.0 L 1184.4,254.5" fill="none" stroke="#1F2937" stroke-width="1.6" stroke-linecap="round" stroke-linejoin="round"/>
  <path d="M 1170.0,266.2 L 1167.9,270.2 L 1163.6,276.7 L 1160.3,282.0 L 1158.5,286.1" fill="none" stroke="#1F2937" stroke-width="1.6" stroke-linecap="round" stroke-linejoin="round"/>
  <path d="M 1170.0,266.2 L 1165.4,271.1 L 1165.4,278.1 L 1161.9,282.1 L 1158.3,286.4" fill="none" stroke="#1F2937" stroke-width="1.6" stroke-linecap="round" stroke-linejoin="round"/>
  <path d="M 1170.0,266.2 L 1174.1,272.6 L 1175.5,277.9 L 1177.3,281.1 L 1180.2,286.5" fill="none" stroke="#1F2937" stroke-width="1.6" stroke-linecap="round" stroke-linejoin="round"/>
  <path d="M 1170.0,266.2 L 1173.1,272.1 L 1177.2,275.8 L 1178.4,283.0 L 1180.5,285.3" fill="none" stroke="#1F2937" stroke-width="1.6" stroke-linecap="round" stroke-linejoin="round"/>
  <text x="1170" y="180" font-family='"Caveat", "Indie Flower", "Comic Sans MS", "Marker Felt", "Bradley Hand", sans-serif' font-size="13" font-weight="600" fill="#1F2937" text-anchor="middle">GREEN</text>
  <text x="1170" y="198" font-family='"Caveat", "Indie Flower", "Comic Sans MS", "Marker Felt", "Bradley Hand", sans-serif' font-size="13" font-weight="600" fill="#1F2937" text-anchor="middle">Quest W-0</text>
  <path d="M 182.0,380.0 L 202.5,381.7 L 224.3,380.3 L 246.5,380.0 L 269.3,380.5 L 291.2,380.2 L 314.8,381.8 L 335.3,378.1 L 358.0,380.7" fill="none" stroke="#1F2937" stroke-width="2.0" stroke-linecap="round" stroke-linejoin="round"/>
  <path d="M 182.0,380.0 L 206.0,381.9 L 224.4,380.8 L 248.0,379.4 L 269.5,380.4 L 292.0,378.8 L 315.3,379.7 L 336.1,380.4 L 358.6,379.8" fill="none" stroke="#1F2937" stroke-width="2.0" stroke-linecap="round" stroke-linejoin="round"/>
  <path d="M 358.0,380.0 L 354.5,381.1 L 351.7,383.1 L 348.8,385.3 L 345.4,385.7" fill="none" stroke="#1F2937" stroke-width="2.0" stroke-linecap="round" stroke-linejoin="round"/>
  <path d="M 358.0,380.0 L 354.9,378.2 L 352.0,377.5 L 347.8,376.1 L 345.5,374.0" fill="none" stroke="#1F2937" stroke-width="2.0" stroke-linecap="round" stroke-linejoin="round"/>
  <path d="M 402.0,380.0 L 425.8,378.5 L 449.7,379.3 L 475.4,381.9 L 498.0,380.7 L 521.1,379.3 L 545.4,381.1 L 571.5,379.0 L 595.3,379.8 L 617.2,380.6" fill="none" stroke="#1F2937" stroke-width="2.0" stroke-linecap="round" stroke-linejoin="round"/>
  <path d="M 402.0,380.0 L 424.8,380.8 L 449.9,378.9 L 475.7,378.3 L 496.2,379.2 L 522.8,378.7 L 547.3,381.6 L 571.9,381.7 L 592.2,379.0 L 618.5,379.8" fill="none" stroke="#1F2937" stroke-width="2.0" stroke-linecap="round" stroke-linejoin="round"/>
  <path d="M 618.0,380.0 L 614.4,382.2 L 612.4,383.4 L 609.1,384.3 L 605.6,386.2" fill="none" stroke="#1F2937" stroke-width="2.0" stroke-linecap="round" stroke-linejoin="round"/>
  <path d="M 618.0,380.0 L 614.9,379.0 L 610.9,377.1 L 607.7,376.2 L 605.4,373.5" fill="none" stroke="#1F2937" stroke-width="2.0" stroke-linecap="round" stroke-linejoin="round"/>
  <path d="M 662.0,380.0 L 684.8,381.8 L 709.2,381.7 L 733.5,380.4 L 756.9,379.6 L 781.8,379.7 L 803.8,379.5 L 828.4,378.1 L 849.5,380.0 L 873.8,379.7 L 898.0,380.2" fill="none" stroke="#1F2937" stroke-width="2.0" stroke-linecap="round" stroke-linejoin="round"/>
  <path d="M 662.0,380.0 L 685.5,380.5 L 710.1,380.3 L 731.0,381.6 L 757.3,378.3 L 779.3,378.3 L 804.5,378.1 L 828.8,381.1 L 849.9,381.2 L 875.1,378.9 L 898.7,380.1" fill="none" stroke="#1F2937" stroke-width="2.0" stroke-linecap="round" stroke-linejoin="round"/>
  <path d="M 898.0,380.0 L 895.6,382.1 L 891.0,382.7 L 887.9,384.1 L 885.5,386.1" fill="none" stroke="#1F2937" stroke-width="2.0" stroke-linecap="round" stroke-linejoin="round"/>
  <path d="M 898.0,380.0 L 895.0,379.0 L 892.0,376.3 L 889.2,374.9 L 885.2,374.3" fill="none" stroke="#1F2937" stroke-width="2.0" stroke-linecap="round" stroke-linejoin="round"/>
  <path d="M 942.0,380.0 L 965.9,380.3 L 987.6,379.2 L 1010.2,379.3 L 1035.4,381.5 L 1056.2,380.2 L 1080.1,381.0 L 1103.9,378.2 L 1125.1,381.1 L 1148.6,379.2" fill="none" stroke="#1F2937" stroke-width="2.0" stroke-linecap="round" stroke-linejoin="round"/>
  <path d="M 942.0,380.0 L 966.5,380.6 L 987.5,378.4 L 1009.4,382.0 L 1032.5,379.7 L 1056.0,378.2 L 1079.1,378.7 L 1102.1,379.5 L 1124.1,379.9 L 1147.6,379.0" fill="none" stroke="#1F2937" stroke-width="2.0" stroke-linecap="round" stroke-linejoin="round"/>
  <path d="M 1148.0,380.0 L 1145.0,382.3 L 1142.4,382.3 L 1138.0,385.1 L 1135.5,386.4" fill="none" stroke="#1F2937" stroke-width="2.0" stroke-linecap="round" stroke-linejoin="round"/>
  <path d="M 1148.0,380.0 L 1145.0,378.7 L 1141.6,377.4 L 1138.9,376.1 L 1135.3,374.1" fill="none" stroke="#1F2937" stroke-width="2.0" stroke-linecap="round" stroke-linejoin="round"/>
  <rect x="360.0" y="460.0" width="200.0" height="80.0" fill="#EF4444" fill-opacity="0.06" stroke="none"/>
  <path d="M 360.0,460.0 L 381.9,459.2 L 403.3,459.7 L 426.2,459.2 L 449.2,459.9 L 471.6,459.7 L 494.3,458.5 L 517.0,460.8 L 538.6,459.1 L 559.4,459.8" fill="none" stroke="#1F2937" stroke-width="1.4" stroke-linecap="round" stroke-linejoin="round"/>
  <path d="M 360.0,460.0 L 382.6,460.5 L 404.8,459.3 L 426.5,459.9 L 447.8,459.7 L 472.1,460.3 L 493.5,460.9 L 515.7,459.5 L 536.7,459.6 L 560.6,459.9" fill="none" stroke="#1F2937" stroke-width="1.4" stroke-linecap="round" stroke-linejoin="round"/>
  <path d="M 560.0,460.0 L 559.7,480.7 L 558.5,500.6 L 559.5,518.9 L 560.3,540.2" fill="none" stroke="#1F2937" stroke-width="1.4" stroke-linecap="round" stroke-linejoin="round"/>
  <path d="M 560.0,460.0 L 561.4,478.6 L 559.7,501.1 L 561.0,519.8 L 560.6,540.2" fill="none" stroke="#1F2937" stroke-width="1.4" stroke-linecap="round" stroke-linejoin="round"/>
  <path d="M 560.0,540.0 L 538.8,541.3 L 515.7,540.5 L 494.5,540.5 L 471.0,539.6 L 447.7,541.4 L 426.8,538.7 L 404.5,539.5 L 380.9,539.1 L 359.6,540.4" fill="none" stroke="#1F2937" stroke-width="1.4" stroke-linecap="round" stroke-linejoin="round"/>
  <path d="M 560.0,540.0 L 536.5,540.0 L 516.3,539.1 L 493.8,540.4 L 471.4,538.6 L 449.0,539.1 L 427.1,539.9 L 404.3,538.6 L 380.8,538.7 L 359.9,539.3" fill="none" stroke="#1F2937" stroke-width="1.4" stroke-linecap="round" stroke-linejoin="round"/>
  <path d="M 360.0,540.0 L 358.6,518.8 L 359.4,501.4 L 360.6,481.3 L 359.3,460.4" fill="none" stroke="#1F2937" stroke-width="1.4" stroke-linecap="round" stroke-linejoin="round"/>
  <path d="M 360.0,540.0 L 360.1,520.1 L 360.1,500.8 L 360.8,480.6 L 360.3,460.5" fill="none" stroke="#1F2937" stroke-width="1.4" stroke-linecap="round" stroke-linejoin="round"/>
  <text x="460" y="482" font-family='"Caveat", "Indie Flower", "Comic Sans MS", "Marker Felt", "Bradley Hand", sans-serif' font-size="13" font-weight="700" fill="#EF4444" text-anchor="middle">cert not trusted</text>
  <text x="460" y="502" font-family='"Caveat", "Indie Flower", "Comic Sans MS", "Marker Felt", "Bradley Hand", sans-serif' font-size="12" font-weight="500" fill="#1F2937" text-anchor="middle">trust the cert</text>
  <text x="460" y="518" font-family='"Caveat", "Indie Flower", "Comic Sans MS", "Marker Felt", "Bradley Hand", sans-serif' font-size="12" font-weight="500" fill="#1F2937" text-anchor="middle">in Keychain</text>
  <path d="M 640.0,394.0 L 618.4,401.4 L 594.9,410.4 L 572.3,418.6 L 549.9,426.1 L 528.4,436.2 L 505.3,442.6 L 482.9,452.6 L 459.6,460.1" fill="none" stroke="#6B7280" stroke-width="1.4" stroke-linecap="round" stroke-linejoin="round"/>
  <rect x="560.0" y="460.0" width="200.0" height="80.0" fill="#EF4444" fill-opacity="0.06" stroke="none"/>
  <path d="M 560.0,460.0 L 581.4,458.7 L 605.9,459.0 L 625.7,458.7 L 647.4,458.6 L 670.6,459.7 L 693.0,461.0 L 714.4,459.2 L 738.2,459.5 L 760.2,459.9" fill="none" stroke="#1F2937" stroke-width="1.4" stroke-linecap="round" stroke-linejoin="round"/>
  <path d="M 560.0,460.0 L 581.4,459.1 L 603.4,458.6 L 625.9,461.4 L 648.6,460.4 L 672.3,460.3 L 694.3,458.5 L 715.8,461.1 L 739.0,458.6 L 760.3,460.5" fill="none" stroke="#1F2937" stroke-width="1.4" stroke-linecap="round" stroke-linejoin="round"/>
  <path d="M 760.0,460.0 L 760.6,478.8 L 760.3,500.4 L 759.8,520.7 L 760.1,539.5" fill="none" stroke="#1F2937" stroke-width="1.4" stroke-linecap="round" stroke-linejoin="round"/>
  <path d="M 760.0,460.0 L 759.7,481.3 L 759.3,501.1 L 759.1,520.1 L 760.2,540.4" fill="none" stroke="#1F2937" stroke-width="1.4" stroke-linecap="round" stroke-linejoin="round"/>
  <path d="M 760.0,540.0 L 737.8,539.8 L 715.9,539.5 L 692.4,539.0 L 672.4,540.3 L 648.8,541.0 L 627.0,539.6 L 605.2,538.9 L 580.8,541.0 L 560.0,540.6" fill="none" stroke="#1F2937" stroke-width="1.4" stroke-linecap="round" stroke-linejoin="round"/>
  <path d="M 760.0,540.0 L 738.9,540.0 L 714.8,540.4 L 692.0,541.2 L 670.1,540.8 L 649.9,539.8 L 626.3,540.8 L 605.1,539.4 L 582.0,540.5 L 560.6,540.3" fill="none" stroke="#1F2937" stroke-width="1.4" stroke-linecap="round" stroke-linejoin="round"/>
  <path d="M 560.0,540.0 L 559.2,520.3 L 558.6,500.1 L 559.7,479.9 L 560.0,459.3" fill="none" stroke="#1F2937" stroke-width="1.4" stroke-linecap="round" stroke-linejoin="round"/>
  <path d="M 560.0,540.0 L 559.1,521.4 L 559.6,500.6 L 559.7,479.3 L 559.7,459.9" fill="none" stroke="#1F2937" stroke-width="1.4" stroke-linecap="round" stroke-linejoin="round"/>
  <text x="660" y="482" font-family='"Caveat", "Indie Flower", "Comic Sans MS", "Marker Felt", "Bradley Hand", sans-serif' font-size="13" font-weight="700" fill="#EF4444" text-anchor="middle">checksum mismatch</text>
  <text x="660" y="502" font-family='"Caveat", "Indie Flower", "Comic Sans MS", "Marker Felt", "Bradley Hand", sans-serif' font-size="12" font-weight="500" fill="#1F2937" text-anchor="middle">re-download the</text>
  <text x="660" y="518" font-family='"Caveat", "Indie Flower", "Comic Sans MS", "Marker Felt", "Bradley Hand", sans-serif' font-size="12" font-weight="500" fill="#1F2937" text-anchor="middle">plugin from registry</text>
  <path d="M 640.0,394.0 L 645.2,410.9 L 650.5,427.8 L 654.8,443.3 L 659.8,459.9" fill="none" stroke="#6B7280" stroke-width="1.4" stroke-linecap="round" stroke-linejoin="round"/>
  <rect x="760.0" y="460.0" width="200.0" height="80.0" fill="#EF4444" fill-opacity="0.06" stroke="none"/>
  <path d="M 760.0,460.0 L 782.1,460.7 L 805.8,459.7 L 825.9,458.7 L 849.7,459.6 L 871.3,461.4 L 894.4,460.7 L 915.0,459.1 L 938.2,458.5 L 959.4,459.6" fill="none" stroke="#1F2937" stroke-width="1.4" stroke-linecap="round" stroke-linejoin="round"/>
  <path d="M 760.0,460.0 L 782.8,461.4 L 804.4,460.9 L 825.7,460.2 L 849.2,459.7 L 870.7,459.2 L 892.4,458.5 L 916.4,458.6 L 938.4,461.0 L 959.6,460.1" fill="none" stroke="#1F2937" stroke-width="1.4" stroke-linecap="round" stroke-linejoin="round"/>
  <path d="M 960.0,460.0 L 959.4,480.4 L 960.3,501.0 L 959.3,521.3 L 959.5,539.7" fill="none" stroke="#1F2937" stroke-width="1.4" stroke-linecap="round" stroke-linejoin="round"/>
  <path d="M 960.0,460.0 L 960.2,479.3 L 959.0,499.1 L 958.5,519.4 L 959.5,540.4" fill="none" stroke="#1F2937" stroke-width="1.4" stroke-linecap="round" stroke-linejoin="round"/>
  <path d="M 960.0,540.0 L 937.2,540.7 L 914.3,538.9 L 894.5,539.8 L 870.4,540.6 L 847.5,539.9 L 827.7,540.0 L 804.5,539.3 L 782.2,538.8 L 759.4,540.1" fill="none" stroke="#1F2937" stroke-width="1.4" stroke-linecap="round" stroke-linejoin="round"/>
  <path d="M 960.0,540.0 L 937.2,538.6 L 914.1,540.9 L 892.4,541.2 L 871.1,540.2 L 848.0,538.9 L 827.2,540.8 L 804.1,539.8 L 782.8,539.6 L 759.7,539.3" fill="none" stroke="#1F2937" stroke-width="1.4" stroke-linecap="round" stroke-linejoin="round"/>
  <path d="M 760.0,540.0 L 760.2,519.5 L 761.2,501.5 L 760.3,481.4 L 759.4,460.3" fill="none" stroke="#1F2937" stroke-width="1.4" stroke-linecap="round" stroke-linejoin="round"/>
  <path d="M 760.0,540.0 L 759.7,520.4 L 760.0,500.0 L 759.2,479.2 L 759.6,460.1" fill="none" stroke="#1F2937" stroke-width="1.4" stroke-linecap="round" stroke-linejoin="round"/>
  <text x="860" y="482" font-family='"Caveat", "Indie Flower", "Comic Sans MS", "Marker Felt", "Bradley Hand", sans-serif' font-size="13" font-weight="700" fill="#EF4444" text-anchor="middle">stale Vertex env</text>
  <text x="860" y="502" font-family='"Caveat", "Indie Flower", "Comic Sans MS", "Marker Felt", "Bradley Hand", sans-serif' font-size="12" font-weight="500" fill="#1F2937" text-anchor="middle">remove Vertex</text>
  <text x="860" y="518" font-family='"Caveat", "Indie Flower", "Comic Sans MS", "Marker Felt", "Bradley Hand", sans-serif' font-size="12" font-weight="500" fill="#1F2937" text-anchor="middle">env vars</text>
  <path d="M 640.0,394.0 L 661.4,401.6 L 684.5,407.6 L 706.2,413.0 L 727.5,420.1 L 750.6,427.1 L 772.8,434.3 L 793.4,440.6 L 815.1,447.6 L 837.1,453.5 L 859.9,459.7" fill="none" stroke="#6B7280" stroke-width="1.4" stroke-linecap="round" stroke-linejoin="round"/>
  <path d="M 1010.0,220.0 L 1033.2,221.2 L 1058.4,220.9 L 1081.4,220.0 L 1105.1,220.4 L 1128.2,219.5 L 1150.9,220.6 L 1174.3,219.5 L 1198.3,219.6 L 1224.2,220.8 L 1247.3,218.5 L 1269.6,219.9" fill="none" stroke="#1F2937" stroke-width="1.5" stroke-linecap="round" stroke-linejoin="round"/>
  <path d="M 1010.0,220.0 L 1032.2,219.2 L 1057.6,219.7 L 1080.6,221.3 L 1104.3,218.8 L 1127.0,220.8 L 1150.6,221.4 L 1176.0,219.4 L 1199.7,219.3 L 1221.7,220.5 L 1245.2,220.7 L 1269.4,220.5" fill="none" stroke="#1F2937" stroke-width="1.5" stroke-linecap="round" stroke-linejoin="round"/>
  <path d="M 1270.0,220.0 L 1269.4,239.5 L 1268.6,260.2 L 1271.1,278.8 L 1269.3,299.8" fill="none" stroke="#1F2937" stroke-width="1.5" stroke-linecap="round" stroke-linejoin="round"/>
  <path d="M 1270.0,220.0 L 1269.7,241.3 L 1268.6,258.8 L 1270.9,280.8 L 1270.0,300.2" fill="none" stroke="#1F2937" stroke-width="1.5" stroke-linecap="round" stroke-linejoin="round"/>
  <path d="M 1270.0,300.0 L 1245.0,301.2 L 1221.5,301.2 L 1198.9,300.3 L 1175.6,299.2 L 1151.4,300.3 L 1129.7,301.1 L 1105.1,299.2 L 1079.5,300.3 L 1057.1,298.8 L 1033.1,299.3 L 1010.3,300.0" fill="none" stroke="#1F2937" stroke-width="1.5" stroke-linecap="round" stroke-linejoin="round"/>
  <path d="M 1270.0,300.0 L 1247.1,298.9 L 1223.3,299.8 L 1198.6,299.8 L 1175.3,301.2 L 1151.0,300.9 L 1127.7,299.3 L 1105.3,300.8 L 1081.9,301.3 L 1057.9,299.8 L 1033.5,301.0 L 1009.9,299.3" fill="none" stroke="#1F2937" stroke-width="1.5" stroke-linecap="round" stroke-linejoin="round"/>
  <path d="M 1010.0,300.0 L 1010.9,281.3 L 1009.7,261.0 L 1009.2,239.2 L 1009.3,220.1" fill="none" stroke="#1F2937" stroke-width="1.5" stroke-linecap="round" stroke-linejoin="round"/>
  <path d="M 1010.0,300.0 L 1008.6,280.5 L 1008.8,259.9 L 1008.5,241.3 L 1010.7,220.6" fill="none" stroke="#1F2937" stroke-width="1.5" stroke-linecap="round" stroke-linejoin="round"/>
  <text x="1020" y="240" font-family='"Caveat", "Indie Flower", "Comic Sans MS", "Marker Felt", "Bradley Hand", sans-serif' font-size="13" font-weight="500" fill="#1F2937" text-anchor="start">if YELLOW or RED after an hour,</text>
  <text x="1020" y="258" font-family='"Caveat", "Indie Flower", "Comic Sans MS", "Marker Felt", "Bradley Hand", sans-serif' font-size="13" font-weight="500" fill="#1F2937" text-anchor="start">post in the channel</text>
  <text x="1020" y="276" font-family='"Caveat", "Indie Flower", "Comic Sans MS", "Marker Felt", "Bradley Hand", sans-serif' font-size="13" font-weight="500" fill="#1F2937" text-anchor="start">— detours are normal</text>
  <text x="650.0" y="640" font-family='"Caveat", "Indie Flower", "Comic Sans MS", "Marker Felt", "Bradley Hand", sans-serif' font-size="16" font-weight="600" fill="#1F2937" text-anchor="middle">The detours are part of the map, not a failure of yours.</text>
  </svg>
