<svg xmlns="http://www.w3.org/2000/svg" viewBox="0 0 1300 700" role="img" aria-label="Boss Fight B-B  —  the month, phase by phase">
  <rect width="1300" height="700" fill="#FFFFFF"/>
  <text x="650.0" y="48" font-family='"Caveat", "Indie Flower", "Comic Sans MS", "Marker Felt", "Bradley Hand", sans-serif' font-size="28" font-weight="700" fill="#1F2937" text-anchor="middle">Boss Fight B-B  —  the month, phase by phase</text>
  <text x="650.0" y="76" font-family='"Caveat", "Indie Flower", "Comic Sans MS", "Marker Felt", "Bradley Hand", sans-serif' font-size="15" font-weight="500" fill="#6B7280" text-anchor="middle">One pre-week, four working weeks, one post-week. The flow has a shape.</text>

  <path d="M 90.0,360.0 L 111.8,360.7 L 134.4,360.3 L 157.8,360.6 L 179.3,359.9 L 201.9,359.9 L 224.7,360.9 L 246.9,360.9 L 270.1,359.7 L 292.1,359.4 L 313.5,359.1 L 336.4,359.7 L 358.1,359.2 L 380.7,359.3 L 402.9,360.2 L 426.6,360.5 L 447.9,359.8 L 470.3,359.3 L 492.8,361.0 L 515.4,359.3 L 537.9,359.9 L 561.3,359.9 L 582.2,359.6 L 606.1,360.8 L 627.2,359.8 L 650.5,359.3 L 672.8,360.1 L 694.3,360.8 L 717.6,360.7 L 738.8,359.9 L 762.5,359.7 L 784.4,360.6 L 805.9,359.9 L 830.2,359.7 L 851.9,361.0 L 873.7,360.7 L 897.3,360.5 L 918.0,359.9 L 942.1,359.6 L 963.8,360.8 L 986.0,360.7 L 1008.8,360.6 L 1030.3,359.9 L 1053.5,359.9 L 1074.9,359.1 L 1098.2,359.5 L 1120.3,360.5 L 1142.3,359.9 L 1164.2,360.6 L 1188.1,359.9 L 1209.9,359.8" fill="none" stroke="#1F2937" stroke-width="2.4" stroke-linecap="round" stroke-linejoin="round"/>
  <path d="M 90.0,360.0 L 113.0,359.4 L 135.4,359.1 L 156.5,360.9 L 178.9,359.4 L 201.9,359.3 L 225.2,360.3 L 246.3,360.1 L 270.1,360.1 L 291.5,360.3 L 313.5,359.2 L 337.1,360.3 L 359.0,359.8 L 381.9,359.4 L 404.1,359.4 L 426.4,359.2 L 449.0,359.8 L 470.8,359.1 L 493.9,360.5 L 515.8,359.5 L 537.1,359.0 L 560.1,360.0 L 582.7,359.1 L 604.8,360.0 L 627.9,359.6 L 650.3,359.4 L 672.7,359.8 L 694.9,359.8 L 716.4,359.1 L 740.3,359.8 L 762.0,359.2 L 784.4,359.1 L 806.1,359.5 L 829.4,360.3 L 850.7,359.0 L 873.1,359.4 L 897.3,360.3 L 919.5,360.9 L 940.8,360.8 L 963.5,361.0 L 985.4,359.2 L 1007.8,359.2 L 1029.9,359.9 L 1053.0,359.7 L 1074.7,360.4 L 1097.5,360.8 L 1119.9,360.1 L 1143.3,360.6 L 1164.9,360.6 L 1187.5,360.4 L 1210.1,360.0" fill="none" stroke="#1F2937" stroke-width="2.4" stroke-linecap="round" stroke-linejoin="round"/>
  <circle cx="180.0" cy="360.0" r="14.0" fill="#FFFFFF" stroke="none"/>
  <path d="M 193.2,361.5 L 193.9,364.1 L 192.1,366.0 L 191.7,368.6 L 190.3,370.8 L 188.1,372.1 L 185.3,372.0 L 183.1,372.6 L 180.9,374.4 L 178.4,374.4 L 176.3,372.7 L 174.3,371.5 L 171.3,371.9 L 169.2,370.3 L 167.5,368.3 L 166.1,366.1 L 165.9,363.4 L 166.1,360.9 L 166.7,358.5 L 166.5,356.0 L 168.4,354.3 L 169.1,352.0 L 170.3,349.9 L 172.3,348.4 L 174.6,347.7 L 176.6,346.1 L 179.2,346.8 L 181.5,346.6 L 184.2,345.5 L 185.7,348.4 L 188.3,348.8 L 189.5,350.9 L 191.3,352.5 L 193.3,354.2 L 194.3,356.5 L 194.4,359.1 L 194.7,361.6" fill="none" stroke="#1F2937" stroke-width="2.0" stroke-linecap="round" stroke-linejoin="round"/>
  <path d="M 193.9,361.9 L 192.9,364.2 L 193.3,367.1 L 190.1,367.9 L 188.9,369.9 L 188.0,372.8 L 185.2,372.8 L 182.7,372.8 L 180.5,374.6 L 178.2,372.9 L 175.9,372.7 L 173.3,372.7 L 171.8,370.6 L 169.4,369.6 L 167.5,367.8 L 166.5,365.5 L 166.8,362.8 L 165.7,360.5 L 165.7,358.0 L 167.5,356.0 L 166.9,353.1 L 169.7,352.0 L 170.0,348.9 L 172.0,347.3 L 175.1,347.8 L 176.9,345.5 L 179.5,346.7 L 182.1,345.2 L 184.5,346.1 L 186.2,348.3 L 188.9,348.6 L 191.2,349.9 L 191.8,352.6 L 191.9,355.2 L 192.9,357.3 L 194.2,359.5 L 193.7,361.9" fill="none" stroke="#1F2937" stroke-width="2.0" stroke-linecap="round" stroke-linejoin="round"/>
  <text x="180" y="365" font-family='"Caveat", "Indie Flower", "Comic Sans MS", "Marker Felt", "Bradley Hand", sans-serif' font-size="10" font-weight="500" fill="#1F2937" text-anchor="middle">●</text>
  <text x="180" y="160" font-family='"Caveat", "Indie Flower", "Comic Sans MS", "Marker Felt", "Bradley Hand", sans-serif' font-size="15" font-weight="700" fill="#1F2937" text-anchor="middle">PRE-EMBED</text>
  <text x="180" y="182" font-family='"Caveat", "Indie Flower", "Comic Sans MS", "Marker Felt", "Bradley Hand", sans-serif' font-size="12" font-weight="500" fill="#6B7280" text-anchor="middle">week 0</text>
  <path d="M 190.1,205.2 L 191.4,207.3 L 189.7,208.8 L 189.5,210.8 L 188.5,212.5 L 186.3,212.9 L 185.1,214.5 L 183.3,215.2 L 181.4,215.3 L 179.5,216.4 L 177.7,215.4 L 175.6,215.4 L 174.8,213.0 L 172.4,213.1 L 170.5,212.1 L 170.3,209.9 L 170.7,207.7 L 169.3,206.2 L 170.1,204.4 L 168.3,202.2 L 169.4,200.4 L 170.7,198.9 L 171.3,196.8 L 174.0,196.9 L 174.5,194.2 L 176.8,194.6 L 178.6,194.3 L 180.5,193.0 L 182.3,194.6 L 184.2,194.6 L 185.4,196.3 L 187.5,196.6 L 189.5,197.5 L 190.6,199.3 L 189.7,201.7 L 191.2,203.3 L 189.7,205.2" fill="none" stroke="#1F2937" stroke-width="1.6" stroke-linecap="round" stroke-linejoin="round"/>
  <path d="M 190.6,206.8 L 190.2,208.7 L 189.9,210.7 L 188.7,212.3 L 187.1,213.5 L 185.0,213.7 L 183.4,214.5 L 181.8,215.7 L 179.8,216.3 L 178.0,215.3 L 175.9,215.5 L 174.0,214.8 L 173.6,212.3 L 170.8,212.3 L 169.8,210.5 L 170.4,208.1 L 170.4,206.4 L 170.3,204.7 L 169.8,202.9 L 170.2,201.1 L 171.3,199.6 L 172.2,198.1 L 172.9,196.1 L 175.2,196.3 L 176.4,194.6 L 178.4,194.7 L 180.2,193.1 L 182.1,193.6 L 184.2,193.6 L 186.0,194.8 L 186.5,197.3 L 187.7,198.5 L 188.7,199.9 L 189.7,201.4 L 190.8,203.1 L 191.9,205.0 L 191.1,206.9" fill="none" stroke="#1F2937" stroke-width="1.6" stroke-linecap="round" stroke-linejoin="round"/>
  <path d="M 176.4,208.4 L 179.2,210.0 L 178.2,208.1 L 181.1,209.9 L 184.4,209.5" fill="none" stroke="#1F2937" stroke-width="1.2" stroke-linecap="round" stroke-linejoin="round"/>
  <path d="M 174.6,199.4 L 175.4,200.6 L 176.9,198.9 L 179.0,201.8 L 178.9,202.1" fill="none" stroke="#1F2937" stroke-width="1.2" stroke-linecap="round" stroke-linejoin="round"/>
  <path d="M 181.8,201.2 L 181.6,199.0 L 185.6,201.5 L 184.7,201.2 L 186.1,199.5" fill="none" stroke="#1F2937" stroke-width="1.2" stroke-linecap="round" stroke-linejoin="round"/>
  <path d="M 180.0,215.6 L 181.8,221.3 L 179.4,232.1 L 179.1,239.0 L 180.8,247.2" fill="none" stroke="#1F2937" stroke-width="1.6" stroke-linecap="round" stroke-linejoin="round"/>
  <path d="M 180.0,215.6 L 179.5,224.8 L 181.3,229.6 L 180.2,237.4 L 180.6,245.8" fill="none" stroke="#1F2937" stroke-width="1.6" stroke-linecap="round" stroke-linejoin="round"/>
  <path d="M 180.0,222.8 L 174.8,224.6 L 171.4,230.0 L 168.6,233.5 L 164.8,234.6" fill="none" stroke="#1F2937" stroke-width="1.6" stroke-linecap="round" stroke-linejoin="round"/>
  <path d="M 180.0,222.8 L 174.9,225.7 L 171.9,229.5 L 168.5,233.2 L 165.2,236.2" fill="none" stroke="#1F2937" stroke-width="1.6" stroke-linecap="round" stroke-linejoin="round"/>
  <path d="M 180.0,222.8 L 185.3,224.8 L 188.6,230.4 L 191.2,233.9 L 195.3,234.7" fill="none" stroke="#1F2937" stroke-width="1.6" stroke-linecap="round" stroke-linejoin="round"/>
  <path d="M 180.0,222.8 L 182.2,224.7 L 189.2,228.4 L 190.7,231.8 L 195.2,234.9" fill="none" stroke="#1F2937" stroke-width="1.6" stroke-linecap="round" stroke-linejoin="round"/>
  <path d="M 180.0,246.2 L 177.4,251.6 L 176.1,256.0 L 172.5,262.2 L 169.5,265.9" fill="none" stroke="#1F2937" stroke-width="1.6" stroke-linecap="round" stroke-linejoin="round"/>
  <path d="M 180.0,246.2 L 179.1,249.7 L 174.1,254.6 L 173.1,262.5 L 168.9,266.5" fill="none" stroke="#1F2937" stroke-width="1.6" stroke-linecap="round" stroke-linejoin="round"/>
  <path d="M 180.0,246.2 L 183.7,253.0 L 187.1,257.5 L 186.3,261.7 L 190.0,265.9" fill="none" stroke="#1F2937" stroke-width="1.6" stroke-linecap="round" stroke-linejoin="round"/>
  <path d="M 180.0,246.2 L 182.1,251.6 L 184.9,256.3 L 189.5,261.9 L 191.3,266.4" fill="none" stroke="#1F2937" stroke-width="1.6" stroke-linecap="round" stroke-linejoin="round"/>
  <text x="180" y="410" font-family='"Caveat", "Indie Flower", "Comic Sans MS", "Marker Felt", "Bradley Hand", sans-serif' font-size="13" font-weight="500" fill="#6B7280" text-anchor="middle">lock metric + reviewer</text>
  <circle cx="390.0" cy="360.0" r="14.0" fill="#FFFFFF" stroke="none"/>
  <path d="M 403.1,361.6 L 403.1,364.0 L 402.3,366.2 L 400.7,368.0 L 399.2,369.8 L 397.8,371.9 L 395.8,373.6 L 392.9,372.5 L 390.7,373.1 L 388.3,374.0 L 386.2,372.7 L 383.7,372.5 L 382.2,370.5 L 379.8,369.6 L 378.0,367.8 L 377.1,365.5 L 376.8,363.1 L 375.0,360.8 L 377.1,358.5 L 376.2,355.8 L 376.9,353.4 L 378.3,351.2 L 379.7,349.1 L 382.2,348.1 L 384.7,347.5 L 387.0,347.0 L 389.3,347.1 L 391.8,345.3 L 394.3,345.9 L 396.0,348.1 L 399.0,347.9 L 400.8,349.9 L 401.1,352.7 L 403.3,354.3 L 404.7,356.6 L 403.9,359.2 L 404.2,361.7" fill="none" stroke="#1F2937" stroke-width="2.0" stroke-linecap="round" stroke-linejoin="round"/>
  <path d="M 404.5,360.1 L 404.4,362.6 L 402.4,364.6 L 402.4,367.2 L 401.5,369.7 L 398.2,369.8 L 397.0,372.2 L 394.7,373.1 L 392.3,373.5 L 389.9,375.2 L 387.6,373.2 L 384.9,373.9 L 382.5,372.9 L 380.9,370.7 L 379.6,368.6 L 378.4,366.7 L 377.6,364.5 L 376.7,362.3 L 375.9,359.9 L 376.4,357.6 L 376.1,354.9 L 378.0,353.0 L 379.3,351.0 L 380.6,348.7 L 383.4,348.4 L 385.6,347.9 L 387.6,346.2 L 390.1,345.4 L 392.4,346.5 L 395.1,346.1 L 396.8,348.3 L 399.8,348.4 L 400.1,351.6 L 401.8,353.2 L 402.7,355.4 L 404.5,357.5 L 402.8,360.0" fill="none" stroke="#1F2937" stroke-width="2.0" stroke-linecap="round" stroke-linejoin="round"/>
  <text x="390" y="365" font-family='"Caveat", "Indie Flower", "Comic Sans MS", "Marker Felt", "Bradley Hand", sans-serif' font-size="10" font-weight="500" fill="#1F2937" text-anchor="middle">●</text>
  <text x="390" y="160" font-family='"Caveat", "Indie Flower", "Comic Sans MS", "Marker Felt", "Bradley Hand", sans-serif' font-size="15" font-weight="700" fill="#1F2937" text-anchor="middle">LISTEN</text>
  <text x="390" y="182" font-family='"Caveat", "Indie Flower", "Comic Sans MS", "Marker Felt", "Bradley Hand", sans-serif' font-size="12" font-weight="500" fill="#6B7280" text-anchor="middle">week 1</text>
  <path d="M 400.6,205.4 L 400.2,207.2 L 400.0,209.1 L 398.6,210.4 L 397.6,211.9 L 395.8,212.5 L 394.6,213.7 L 393.0,214.6 L 391.4,215.9 L 389.4,215.7 L 387.8,214.3 L 385.9,214.5 L 384.3,213.6 L 382.2,213.1 L 381.8,211.0 L 380.3,209.7 L 380.2,207.8 L 378.4,206.2 L 378.6,204.2 L 380.1,202.5 L 380.0,200.6 L 381.9,199.6 L 381.4,196.8 L 383.3,196.0 L 385.0,195.0 L 387.2,195.6 L 388.8,195.3 L 390.6,193.5 L 392.7,193.1 L 394.1,195.1 L 396.0,195.6 L 397.8,196.4 L 399.0,198.1 L 400.1,199.7 L 399.6,201.9 L 401.7,203.4 L 401.5,205.4" fill="none" stroke="#1F2937" stroke-width="1.6" stroke-linecap="round" stroke-linejoin="round"/>
  <path d="M 401.9,205.5 L 400.0,207.2 L 399.4,208.9 L 398.9,210.7 L 397.7,212.1 L 396.6,213.8 L 395.3,215.4 L 393.2,215.6 L 391.2,214.9 L 389.4,215.3 L 387.2,216.4 L 386.2,213.6 L 384.6,213.0 L 381.9,213.3 L 381.1,211.4 L 381.2,209.2 L 378.5,208.2 L 378.9,206.1 L 378.3,204.1 L 380.2,202.5 L 380.9,200.8 L 380.6,198.6 L 382.0,197.2 L 383.7,196.3 L 384.8,194.3 L 386.8,194.0 L 388.7,193.7 L 390.7,193.1 L 392.5,194.5 L 394.7,193.9 L 396.0,195.7 L 397.3,197.1 L 398.9,198.2 L 400.3,199.7 L 401.1,201.5 L 401.0,203.5 L 401.4,205.5" fill="none" stroke="#1F2937" stroke-width="1.6" stroke-linecap="round" stroke-linejoin="round"/>
  <path d="M 390.0,215.6 L 388.3,222.5 L 388.4,229.5 L 390.3,238.6 L 389.5,246.0" fill="none" stroke="#1F2937" stroke-width="1.6" stroke-linecap="round" stroke-linejoin="round"/>
  <path d="M 390.0,215.6 L 390.2,221.8 L 391.1,232.0 L 391.7,238.6 L 391.0,245.8" fill="none" stroke="#1F2937" stroke-width="1.6" stroke-linecap="round" stroke-linejoin="round"/>
  <path d="M 390.0,222.8 L 385.2,226.5 L 382.8,229.9 L 379.2,233.6 L 375.0,235.2" fill="none" stroke="#1F2937" stroke-width="1.6" stroke-linecap="round" stroke-linejoin="round"/>
  <path d="M 390.0,222.8 L 387.0,224.8 L 383.9,229.6 L 378.7,231.8 L 374.9,235.1" fill="none" stroke="#1F2937" stroke-width="1.6" stroke-linecap="round" stroke-linejoin="round"/>
  <path d="M 390.0,222.8 L 391.9,225.2 L 396.9,230.3 L 399.3,234.1 L 404.1,235.5" fill="none" stroke="#1F2937" stroke-width="1.6" stroke-linecap="round" stroke-linejoin="round"/>
  <path d="M 390.0,222.8 L 395.5,227.7 L 395.5,228.9 L 400.8,231.9 L 404.8,235.8" fill="none" stroke="#1F2937" stroke-width="1.6" stroke-linecap="round" stroke-linejoin="round"/>
  <path d="M 390.0,246.2 L 387.0,249.7 L 384.3,255.3 L 383.1,262.3 L 379.9,266.5" fill="none" stroke="#1F2937" stroke-width="1.6" stroke-linecap="round" stroke-linejoin="round"/>
  <path d="M 390.0,246.2 L 387.1,249.8 L 385.6,254.4 L 380.9,261.0 L 379.5,266.2" fill="none" stroke="#1F2937" stroke-width="1.6" stroke-linecap="round" stroke-linejoin="round"/>
  <path d="M 390.0,246.2 L 393.1,249.3 L 393.6,257.2 L 398.5,261.8 L 400.7,266.0" fill="none" stroke="#1F2937" stroke-width="1.6" stroke-linecap="round" stroke-linejoin="round"/>
  <path d="M 390.0,246.2 L 392.8,249.4 L 397.3,254.1 L 398.3,259.5 L 399.8,266.9" fill="none" stroke="#1F2937" stroke-width="1.6" stroke-linecap="round" stroke-linejoin="round"/>
  <text x="390" y="410" font-family='"Caveat", "Indie Flower", "Comic Sans MS", "Marker Felt", "Bradley Hand", sans-serif' font-size="13" font-weight="500" fill="#6B7280" text-anchor="middle">shadow standups,</text>
  <text x="390" y="428" font-family='"Caveat", "Indie Flower", "Comic Sans MS", "Marker Felt", "Bradley Hand", sans-serif' font-size="13" font-weight="500" fill="#6B7280" text-anchor="middle">read the codebase</text>
  <circle cx="650.0" cy="360.0" r="14.0" fill="#FFFFFF" stroke="none"/>
  <path d="M 663.9,360.8 L 664.6,363.5 L 663.5,365.8 L 661.9,367.8 L 659.7,369.2 L 658.3,371.2 L 656.7,373.3 L 653.9,372.9 L 651.7,374.3 L 649.2,373.4 L 647.0,372.6 L 644.7,372.2 L 642.9,370.7 L 640.0,370.6 L 639.1,368.1 L 637.4,366.3 L 636.5,364.0 L 635.2,361.7 L 636.3,359.2 L 635.9,356.6 L 637.3,354.5 L 638.5,352.4 L 639.3,349.9 L 641.2,348.1 L 644.2,348.4 L 645.9,346.2 L 648.3,345.3 L 650.8,346.9 L 653.5,345.3 L 655.2,348.1 L 657.2,349.0 L 659.7,349.8 L 661.1,351.8 L 663.4,353.3 L 663.8,355.9 L 664.4,358.3 L 664.4,360.8" fill="none" stroke="#1F2937" stroke-width="2.0" stroke-linecap="round" stroke-linejoin="round"/>
  <path d="M 664.1,361.9 L 663.6,364.4 L 662.8,366.8 L 661.1,368.6 L 659.3,370.3 L 656.9,371.1 L 655.6,373.7 L 652.9,373.6 L 650.5,374.3 L 648.2,372.9 L 645.5,373.8 L 643.6,372.1 L 641.5,371.0 L 639.5,369.5 L 637.8,367.7 L 638.1,364.8 L 637.1,362.8 L 635.7,360.5 L 635.1,357.9 L 636.9,355.8 L 637.9,353.6 L 638.1,350.8 L 640.4,349.4 L 643.0,348.9 L 645.1,347.9 L 647.2,347.1 L 649.5,347.0 L 651.9,346.3 L 654.1,347.2 L 656.4,348.0 L 658.7,348.8 L 660.9,350.2 L 662.1,352.4 L 664.0,354.3 L 662.8,357.3 L 664.2,359.5 L 663.5,361.9" fill="none" stroke="#1F2937" stroke-width="2.0" stroke-linecap="round" stroke-linejoin="round"/>
  <text x="650" y="365" font-family='"Caveat", "Indie Flower", "Comic Sans MS", "Marker Felt", "Bradley Hand", sans-serif' font-size="10" font-weight="500" fill="#1F2937" text-anchor="middle">●</text>
  <text x="650" y="160" font-family='"Caveat", "Indie Flower", "Comic Sans MS", "Marker Felt", "Bradley Hand", sans-serif' font-size="15" font-weight="700" fill="#1F2937" text-anchor="middle">BUILD</text>
  <text x="650" y="182" font-family='"Caveat", "Indie Flower", "Comic Sans MS", "Marker Felt", "Bradley Hand", sans-serif' font-size="12" font-weight="500" fill="#6B7280" text-anchor="middle">weeks 2-3</text>
  <path d="M 660.1,206.2 L 661.0,208.3 L 659.5,209.8 L 659.4,212.1 L 656.5,212.0 L 656.1,214.5 L 654.1,214.8 L 652.4,215.8 L 650.4,215.9 L 648.5,215.7 L 646.3,216.1 L 644.9,214.5 L 642.7,214.1 L 642.4,211.6 L 641.5,210.1 L 640.9,208.5 L 639.1,207.1 L 639.6,205.2 L 638.6,203.2 L 640.6,201.8 L 639.7,199.4 L 641.5,198.2 L 642.9,196.9 L 643.8,195.0 L 646.2,195.4 L 647.6,193.5 L 649.6,194.7 L 651.7,192.9 L 653.3,194.5 L 654.7,196.0 L 657.3,195.4 L 658.7,196.9 L 658.7,199.4 L 660.1,200.7 L 660.0,202.7 L 660.9,204.4 L 659.6,206.1" fill="none" stroke="#1F2937" stroke-width="1.6" stroke-linecap="round" stroke-linejoin="round"/>
  <path d="M 660.8,206.1 L 660.3,208.0 L 660.2,210.0 L 659.0,211.6 L 656.9,212.3 L 656.2,214.4 L 653.9,214.0 L 652.3,214.7 L 650.5,215.2 L 648.7,215.4 L 646.5,216.0 L 645.5,213.5 L 642.8,214.3 L 642.4,211.9 L 641.7,210.1 L 639.7,209.2 L 638.6,207.4 L 640.1,205.3 L 640.4,203.6 L 640.6,201.9 L 640.9,200.1 L 641.3,198.2 L 642.1,196.3 L 643.5,194.8 L 646.0,195.2 L 647.7,194.9 L 649.4,192.9 L 651.2,195.0 L 652.9,195.5 L 654.5,195.9 L 656.4,196.4 L 658.7,196.7 L 658.1,199.6 L 659.3,200.9 L 659.9,202.5 L 660.0,204.3 L 660.7,206.1" fill="none" stroke="#1F2937" stroke-width="1.6" stroke-linecap="round" stroke-linejoin="round"/>
  <path d="M 650.0,215.6 L 650.5,224.0 L 650.1,230.2 L 651.0,237.4 L 649.6,245.5" fill="none" stroke="#1F2937" stroke-width="1.6" stroke-linecap="round" stroke-linejoin="round"/>
  <path d="M 650.0,215.6 L 649.3,223.6 L 650.5,231.8 L 648.2,238.3 L 649.1,246.6" fill="none" stroke="#1F2937" stroke-width="1.6" stroke-linecap="round" stroke-linejoin="round"/>
  <path d="M 650.0,222.8 L 648.0,227.3 L 641.1,231.0 L 639.3,232.2 L 634.6,235.2" fill="none" stroke="#1F2937" stroke-width="1.6" stroke-linecap="round" stroke-linejoin="round"/>
  <path d="M 650.0,222.8 L 647.1,226.0 L 643.9,230.1 L 637.6,230.9 L 635.2,235.1" fill="none" stroke="#1F2937" stroke-width="1.6" stroke-linecap="round" stroke-linejoin="round"/>
  <path d="M 650.0,222.8 L 652.0,225.1 L 656.8,231.0 L 660.4,230.4 L 664.1,234.7" fill="none" stroke="#1F2937" stroke-width="1.6" stroke-linecap="round" stroke-linejoin="round"/>
  <path d="M 650.0,222.8 L 652.9,227.8 L 656.3,228.5 L 660.6,230.4 L 663.9,235.7" fill="none" stroke="#1F2937" stroke-width="1.6" stroke-linecap="round" stroke-linejoin="round"/>
  <path d="M 650.0,246.2 L 647.0,253.0 L 646.3,254.9 L 641.8,259.3 L 638.6,265.1" fill="none" stroke="#1F2937" stroke-width="1.6" stroke-linecap="round" stroke-linejoin="round"/>
  <path d="M 650.0,246.2 L 648.0,252.8 L 642.7,254.6 L 643.4,260.1 L 638.6,265.4" fill="none" stroke="#1F2937" stroke-width="1.6" stroke-linecap="round" stroke-linejoin="round"/>
  <path d="M 650.0,246.2 L 652.0,251.1 L 656.4,257.9 L 657.4,262.7 L 661.3,265.0" fill="none" stroke="#1F2937" stroke-width="1.6" stroke-linecap="round" stroke-linejoin="round"/>
  <path d="M 650.0,246.2 L 654.4,251.7 L 655.6,256.1 L 659.0,259.2 L 660.9,266.1" fill="none" stroke="#1F2937" stroke-width="1.6" stroke-linecap="round" stroke-linejoin="round"/>
  <text x="650" y="410" font-family='"Caveat", "Indie Flower", "Comic Sans MS", "Marker Felt", "Bradley Hand", sans-serif' font-size="13" font-weight="500" fill="#6B7280" text-anchor="middle">pair-program,</text>
  <text x="650" y="428" font-family='"Caveat", "Indie Flower", "Comic Sans MS", "Marker Felt", "Bradley Hand", sans-serif' font-size="13" font-weight="500" fill="#6B7280" text-anchor="middle">emerge a skill-pack</text>
  <circle cx="900.0" cy="360.0" r="14.0" fill="#FFFFFF" stroke="none"/>
  <path d="M 913.4,363.4 L 912.9,365.8 L 911.3,367.7 L 909.7,369.5 L 907.8,370.8 L 905.9,372.2 L 903.7,373.0 L 901.3,373.0 L 899.0,373.2 L 896.7,373.0 L 894.1,373.0 L 891.8,372.1 L 890.7,369.5 L 889.2,367.8 L 888.3,365.7 L 887.1,363.6 L 886.1,361.4 L 887.1,359.0 L 885.7,356.4 L 888.1,354.6 L 888.8,352.4 L 890.5,350.7 L 891.7,348.5 L 894.1,347.7 L 896.5,347.6 L 898.7,347.1 L 901.0,346.5 L 903.3,347.0 L 905.8,347.2 L 907.6,348.8 L 910.5,349.2 L 910.4,352.5 L 912.8,353.8 L 914.5,355.9 L 914.6,358.5 L 913.5,361.0 L 913.9,363.5" fill="none" stroke="#1F2937" stroke-width="2.0" stroke-linecap="round" stroke-linejoin="round"/>
  <path d="M 915.0,360.2 L 914.5,362.8 L 912.3,364.7 L 911.8,367.1 L 911.2,369.7 L 908.4,370.4 L 907.3,373.1 L 904.8,373.9 L 902.3,374.3 L 899.8,374.0 L 897.4,373.5 L 895.3,372.3 L 892.5,372.5 L 891.2,370.1 L 888.2,369.6 L 887.4,367.0 L 886.1,364.8 L 885.3,362.3 L 887.1,359.8 L 886.4,357.4 L 886.6,354.9 L 888.1,352.9 L 888.9,350.4 L 890.4,348.2 L 892.8,347.1 L 895.5,347.1 L 897.8,346.0 L 900.2,345.7 L 902.6,346.3 L 905.3,346.1 L 907.5,347.4 L 909.0,349.7 L 911.6,350.6 L 913.0,352.7 L 914.0,355.2 L 912.8,358.0 L 914.1,360.2" fill="none" stroke="#1F2937" stroke-width="2.0" stroke-linecap="round" stroke-linejoin="round"/>
  <text x="900" y="365" font-family='"Caveat", "Indie Flower", "Comic Sans MS", "Marker Felt", "Bradley Hand", sans-serif' font-size="10" font-weight="500" fill="#1F2937" text-anchor="middle">●</text>
  <text x="900" y="160" font-family='"Caveat", "Indie Flower", "Comic Sans MS", "Marker Felt", "Bradley Hand", sans-serif' font-size="15" font-weight="700" fill="#1F2937" text-anchor="middle">CONSOLIDATE</text>
  <text x="900" y="182" font-family='"Caveat", "Indie Flower", "Comic Sans MS", "Marker Felt", "Bradley Hand", sans-serif' font-size="12" font-weight="500" fill="#6B7280" text-anchor="middle">week 4</text>
  <path d="M 910.1,204.9 L 910.2,206.7 L 911.0,209.0 L 910.3,210.9 L 908.0,211.7 L 907.0,213.3 L 904.8,213.4 L 903.2,214.0 L 901.8,216.0 L 899.8,216.5 L 897.8,216.3 L 896.1,215.1 L 894.9,213.4 L 893.2,212.7 L 892.3,211.1 L 890.9,209.9 L 888.9,208.7 L 890.4,206.4 L 889.8,204.7 L 888.2,202.6 L 889.2,200.7 L 890.8,199.3 L 891.3,197.3 L 892.9,196.1 L 894.5,195.0 L 896.2,194.0 L 898.4,194.9 L 900.2,193.2 L 901.9,194.9 L 904.0,194.4 L 905.1,196.3 L 907.8,195.8 L 908.6,197.7 L 910.0,199.2 L 910.3,201.2 L 910.1,203.2 L 910.4,204.9" fill="none" stroke="#1F2937" stroke-width="1.6" stroke-linecap="round" stroke-linejoin="round"/>
  <path d="M 910.1,206.7 L 909.4,208.4 L 909.5,210.5 L 907.8,211.5 L 906.7,213.1 L 904.8,213.4 L 903.6,215.0 L 901.6,214.6 L 899.9,215.0 L 898.1,215.0 L 895.8,215.8 L 894.9,213.4 L 892.2,213.8 L 891.6,211.6 L 891.5,209.5 L 889.7,208.4 L 888.4,206.7 L 889.4,204.7 L 888.8,202.7 L 890.7,201.3 L 891.5,199.7 L 892.4,198.3 L 893.0,196.2 L 895.0,195.9 L 896.5,194.8 L 898.2,193.9 L 900.2,193.7 L 902.2,193.1 L 903.7,195.1 L 905.5,195.6 L 907.0,196.7 L 908.3,198.1 L 908.6,200.0 L 909.6,201.4 L 910.9,203.0 L 909.7,204.9 L 909.7,206.7" fill="none" stroke="#1F2937" stroke-width="1.6" stroke-linecap="round" stroke-linejoin="round"/>
  <path d="M 896.4,207.5 L 898.8,209.1 L 898.1,208.2 L 902.6,207.3 L 903.2,207.9" fill="none" stroke="#1F2937" stroke-width="1.2" stroke-linecap="round" stroke-linejoin="round"/>
  <path d="M 900.0,215.6 L 900.9,223.1 L 898.0,231.6 L 899.2,237.0 L 900.4,246.8" fill="none" stroke="#1F2937" stroke-width="1.6" stroke-linecap="round" stroke-linejoin="round"/>
  <path d="M 900.0,215.6 L 900.6,221.5 L 898.8,232.8 L 898.2,238.2 L 899.9,246.4" fill="none" stroke="#1F2937" stroke-width="1.6" stroke-linecap="round" stroke-linejoin="round"/>
  <path d="M 900.0,222.8 L 896.5,224.6 L 894.6,230.3 L 887.8,234.2 L 886.2,234.4" fill="none" stroke="#1F2937" stroke-width="1.6" stroke-linecap="round" stroke-linejoin="round"/>
  <path d="M 900.0,222.8 L 897.6,224.2 L 893.4,229.6 L 890.7,234.1 L 885.6,234.8" fill="none" stroke="#1F2937" stroke-width="1.6" stroke-linecap="round" stroke-linejoin="round"/>
  <path d="M 900.0,222.8 L 901.9,224.2 L 907.8,228.4 L 910.2,231.9 L 914.1,235.5" fill="none" stroke="#1F2937" stroke-width="1.6" stroke-linecap="round" stroke-linejoin="round"/>
  <path d="M 900.0,222.8 L 902.6,225.0 L 907.1,229.2 L 909.3,232.7 L 914.2,236.0" fill="none" stroke="#1F2937" stroke-width="1.6" stroke-linecap="round" stroke-linejoin="round"/>
  <path d="M 900.0,246.2 L 897.2,251.3 L 896.3,255.5 L 893.2,262.4 L 889.6,266.8" fill="none" stroke="#1F2937" stroke-width="1.6" stroke-linecap="round" stroke-linejoin="round"/>
  <path d="M 900.0,246.2 L 897.6,249.2 L 895.9,257.3 L 892.5,259.3 L 888.6,266.1" fill="none" stroke="#1F2937" stroke-width="1.6" stroke-linecap="round" stroke-linejoin="round"/>
  <path d="M 900.0,246.2 L 901.8,252.8 L 903.5,257.5 L 907.9,260.5 L 911.5,266.1" fill="none" stroke="#1F2937" stroke-width="1.6" stroke-linecap="round" stroke-linejoin="round"/>
  <path d="M 900.0,246.2 L 902.1,251.4 L 904.9,254.5 L 907.9,262.1 L 911.1,265.3" fill="none" stroke="#1F2937" stroke-width="1.6" stroke-linecap="round" stroke-linejoin="round"/>
  <text x="900" y="410" font-family='"Caveat", "Indie Flower", "Comic Sans MS", "Marker Felt", "Bradley Hand", sans-serif' font-size="13" font-weight="500" fill="#6B7280" text-anchor="middle">measure + write up</text>
  <text x="900" y="428" font-family='"Caveat", "Indie Flower", "Comic Sans MS", "Marker Felt", "Bradley Hand", sans-serif' font-size="13" font-weight="500" fill="#6B7280" text-anchor="middle">the case study</text>
  <circle cx="1140.0" cy="360.0" r="14.0" fill="#FFFFFF" stroke="none"/>
  <path d="M 1153.0,361.6 L 1154.0,364.3 L 1152.9,366.5 L 1152.1,369.1 L 1150.2,370.9 L 1147.6,371.7 L 1145.3,372.3 L 1143.2,373.8 L 1140.7,373.6 L 1138.2,374.8 L 1136.2,372.3 L 1133.2,373.4 L 1131.4,371.4 L 1129.2,370.1 L 1127.7,368.0 L 1127.4,365.4 L 1125.5,363.4 L 1126.4,360.7 L 1125.6,358.3 L 1126.9,356.0 L 1127.1,353.4 L 1128.2,351.1 L 1131.0,350.3 L 1132.9,349.2 L 1134.7,347.6 L 1136.8,346.0 L 1139.2,345.8 L 1141.6,346.8 L 1144.0,346.9 L 1146.2,347.9 L 1148.8,348.2 L 1150.0,350.6 L 1151.1,352.8 L 1152.4,354.7 L 1154.7,356.6 L 1154.2,359.2 L 1154.2,361.7" fill="none" stroke="#1F2937" stroke-width="2.0" stroke-linecap="round" stroke-linejoin="round"/>
  <path d="M 1153.7,360.7 L 1152.9,362.9 L 1152.6,365.3 L 1151.9,367.6 L 1150.0,369.2 L 1148.0,370.6 L 1146.4,372.4 L 1144.4,374.0 L 1141.8,374.2 L 1139.3,374.1 L 1136.9,373.8 L 1134.3,373.5 L 1132.2,372.1 L 1129.9,370.9 L 1128.8,368.5 L 1127.4,366.5 L 1127.8,363.8 L 1127.3,361.6 L 1126.1,359.3 L 1126.8,357.0 L 1127.4,354.7 L 1128.9,352.9 L 1130.1,350.8 L 1131.4,348.7 L 1133.7,347.8 L 1136.0,347.1 L 1138.4,347.2 L 1140.7,345.9 L 1143.2,346.0 L 1145.7,346.3 L 1147.3,348.7 L 1149.9,349.2 L 1151.3,351.4 L 1152.7,353.4 L 1154.0,355.6 L 1154.7,358.1 L 1153.1,360.6" fill="none" stroke="#1F2937" stroke-width="2.0" stroke-linecap="round" stroke-linejoin="round"/>
  <text x="1140" y="365" font-family='"Caveat", "Indie Flower", "Comic Sans MS", "Marker Felt", "Bradley Hand", sans-serif' font-size="10" font-weight="500" fill="#1F2937" text-anchor="middle">●</text>
  <text x="1140" y="160" font-family='"Caveat", "Indie Flower", "Comic Sans MS", "Marker Felt", "Bradley Hand", sans-serif' font-size="15" font-weight="700" fill="#1F2937" text-anchor="middle">PRESENT</text>
  <text x="1140" y="182" font-family='"Caveat", "Indie Flower", "Comic Sans MS", "Marker Felt", "Bradley Hand", sans-serif' font-size="12" font-weight="500" fill="#6B7280" text-anchor="middle">post-week</text>
  <path d="M 1149.7,205.9 L 1149.8,207.7 L 1150.2,209.9 L 1147.8,210.6 L 1147.3,212.5 L 1146.4,214.6 L 1144.2,214.6 L 1142.6,216.0 L 1140.7,216.4 L 1138.7,216.2 L 1136.8,215.4 L 1135.5,213.8 L 1134.1,212.7 L 1131.5,212.8 L 1131.2,210.6 L 1130.7,208.8 L 1129.7,207.2 L 1128.5,205.5 L 1130.4,203.7 L 1129.7,201.7 L 1129.8,199.7 L 1131.2,198.3 L 1132.7,197.1 L 1133.5,194.8 L 1135.8,195.2 L 1137.3,193.3 L 1139.3,193.1 L 1141.4,193.2 L 1142.8,195.4 L 1144.3,196.1 L 1146.6,195.9 L 1147.5,197.8 L 1149.9,198.3 L 1149.5,200.7 L 1150.5,202.3 L 1150.7,204.2 L 1150.3,206.0" fill="none" stroke="#1F2937" stroke-width="1.6" stroke-linecap="round" stroke-linejoin="round"/>
  <path d="M 1150.7,205.4 L 1149.9,207.1 L 1150.8,209.4 L 1149.9,211.3 L 1148.0,212.3 L 1146.2,213.0 L 1144.6,213.9 L 1143.3,215.8 L 1141.4,216.0 L 1139.4,215.4 L 1137.4,216.1 L 1135.8,214.5 L 1134.6,213.1 L 1132.7,212.6 L 1131.7,211.1 L 1131.2,209.3 L 1129.3,208.0 L 1129.0,206.1 L 1128.0,204.1 L 1129.9,202.4 L 1131.0,201.0 L 1130.9,198.9 L 1131.3,196.7 L 1133.3,195.9 L 1134.8,194.4 L 1136.7,193.7 L 1138.6,193.1 L 1140.6,194.3 L 1142.7,193.3 L 1144.1,195.2 L 1145.8,195.9 L 1147.7,196.6 L 1149.6,197.6 L 1149.8,199.8 L 1151.0,201.5 L 1150.3,203.6 L 1151.8,205.4" fill="none" stroke="#1F2937" stroke-width="1.6" stroke-linecap="round" stroke-linejoin="round"/>
  <path d="M 1136.4,207.5 L 1137.4,206.9 L 1138.6,208.5 L 1141.2,209.2 L 1143.4,207.1" fill="none" stroke="#1F2937" stroke-width="1.2" stroke-linecap="round" stroke-linejoin="round"/>
  <path d="M 1140.0,215.6 L 1138.6,222.9 L 1139.9,229.8 L 1140.6,237.0 L 1139.5,245.2" fill="none" stroke="#1F2937" stroke-width="1.6" stroke-linecap="round" stroke-linejoin="round"/>
  <path d="M 1140.0,215.6 L 1141.6,223.1 L 1138.4,229.2 L 1139.5,239.3 L 1140.0,246.4" fill="none" stroke="#1F2937" stroke-width="1.6" stroke-linecap="round" stroke-linejoin="round"/>
  <path d="M 1140.0,222.8 L 1134.6,227.1 L 1133.3,230.1 L 1130.2,233.3 L 1125.1,235.7" fill="none" stroke="#1F2937" stroke-width="1.6" stroke-linecap="round" stroke-linejoin="round"/>
  <path d="M 1140.0,222.8 L 1137.0,226.5 L 1130.8,228.6 L 1127.8,230.7 L 1125.5,234.9" fill="none" stroke="#1F2937" stroke-width="1.6" stroke-linecap="round" stroke-linejoin="round"/>
  <path d="M 1140.0,222.8 L 1143.5,224.2 L 1147.6,227.2 L 1150.0,232.7 L 1154.7,235.9" fill="none" stroke="#1F2937" stroke-width="1.6" stroke-linecap="round" stroke-linejoin="round"/>
  <path d="M 1140.0,222.8 L 1142.4,227.8 L 1148.1,228.1 L 1149.7,233.2 L 1155.0,235.8" fill="none" stroke="#1F2937" stroke-width="1.6" stroke-linecap="round" stroke-linejoin="round"/>
  <path d="M 1140.0,246.2 L 1138.6,251.3 L 1135.7,257.4 L 1131.6,262.1 L 1130.0,266.2" fill="none" stroke="#1F2937" stroke-width="1.6" stroke-linecap="round" stroke-linejoin="round"/>
  <path d="M 1140.0,246.2 L 1137.0,252.8 L 1136.2,255.8 L 1133.0,262.2 L 1128.9,265.2" fill="none" stroke="#1F2937" stroke-width="1.6" stroke-linecap="round" stroke-linejoin="round"/>
  <path d="M 1140.0,246.2 L 1141.6,249.6 L 1143.7,258.1 L 1150.1,260.4 L 1149.9,265.7" fill="none" stroke="#1F2937" stroke-width="1.6" stroke-linecap="round" stroke-linejoin="round"/>
  <path d="M 1140.0,246.2 L 1144.3,250.2 L 1144.4,254.5 L 1148.0,261.2 L 1151.2,265.5" fill="none" stroke="#1F2937" stroke-width="1.6" stroke-linecap="round" stroke-linejoin="round"/>
  <text x="1140" y="410" font-family='"Caveat", "Indie Flower", "Comic Sans MS", "Marker Felt", "Bradley Hand", sans-serif' font-size="13" font-weight="500" fill="#6B7280" text-anchor="middle">the all-hands,</text>
  <text x="1140" y="428" font-family='"Caveat", "Indie Flower", "Comic Sans MS", "Marker Felt", "Bradley Hand", sans-serif' font-size="13" font-weight="500" fill="#6B7280" text-anchor="middle">the artefact</text>
  <rect x="110.0" y="590.0" width="1080.0" height="70.0" fill="#EF4444" fill-opacity="0.05" stroke="none"/>
  <path d="M 110.0,590.0 L 130.7,589.1 L 154.2,590.7 L 176.9,590.7 L 197.9,591.3 L 221.1,590.1 L 241.6,590.1 L 263.6,588.7 L 286.9,591.0 L 307.2,590.6 L 331.0,588.7 L 353.6,589.4 L 374.1,588.9 L 396.5,590.5 L 418.8,591.0 L 440.0,590.2 L 461.6,589.8 L 485.8,588.6 L 505.4,591.5 L 528.8,590.9 L 549.6,590.8 L 574.1,590.4 L 594.6,589.9 L 615.9,591.4 L 637.5,590.1 L 659.9,589.5 L 681.6,590.0 L 706.2,591.2 L 727.7,588.7 L 749.1,589.2 L 772.1,591.1 L 793.4,588.6 L 813.8,589.1 L 836.0,591.3 L 859.3,588.8 L 881.6,589.3 L 903.5,590.6 L 925.4,588.8 L 946.5,590.8 L 969.7,589.1 L 990.7,590.9 L 1015.0,589.7 L 1036.3,589.9 L 1057.9,588.8 L 1078.6,589.5 L 1100.4,588.7 L 1124.8,591.3 L 1147.4,589.4 L 1167.2,588.8 L 1189.8,589.8" fill="none" stroke="#1F2937" stroke-width="1.4" stroke-linecap="round" stroke-linejoin="round"/>
  <path d="M 110.0,590.0 L 130.7,589.4 L 155.3,590.3 L 176.7,591.4 L 198.7,589.6 L 221.2,589.7 L 242.4,590.2 L 263.6,589.8 L 285.8,588.7 L 309.8,589.4 L 331.9,589.3 L 351.8,588.5 L 373.7,590.5 L 397.6,588.5 L 418.4,589.2 L 439.7,591.5 L 463.6,588.8 L 484.1,589.7 L 508.1,589.3 L 529.8,589.7 L 549.4,590.7 L 572.1,590.7 L 595.0,591.2 L 617.1,591.1 L 638.5,590.0 L 660.0,588.9 L 684.4,589.2 L 705.5,591.1 L 728.1,591.3 L 748.4,588.7 L 771.1,590.0 L 792.4,589.9 L 815.1,590.7 L 837.7,590.0 L 858.3,591.4 L 881.9,591.2 L 903.7,590.8 L 925.0,590.8 L 946.5,588.9 L 970.9,591.4 L 990.6,590.7 L 1013.6,588.9 L 1034.4,588.7 L 1058.3,590.6 L 1080.5,589.9 L 1100.7,589.3 L 1124.2,590.0 L 1145.6,590.3 L 1169.1,591.1 L 1190.2,589.8" fill="none" stroke="#1F2937" stroke-width="1.4" stroke-linecap="round" stroke-linejoin="round"/>
  <path d="M 1190.0,590.0 L 1190.1,607.3 L 1188.5,625.7 L 1188.7,641.9 L 1190.7,659.7" fill="none" stroke="#1F2937" stroke-width="1.4" stroke-linecap="round" stroke-linejoin="round"/>
  <path d="M 1190.0,590.0 L 1190.7,606.2 L 1189.8,626.1 L 1188.6,643.6 L 1189.6,660.3" fill="none" stroke="#1F2937" stroke-width="1.4" stroke-linecap="round" stroke-linejoin="round"/>
  <path d="M 1190.0,660.0 L 1168.4,659.6 L 1147.3,658.5 L 1124.2,660.2 L 1101.7,659.5 L 1080.5,660.3 L 1058.4,659.0 L 1035.6,658.9 L 1014.2,659.6 L 991.5,660.9 L 968.6,660.4 L 948.3,658.7 L 926.9,658.7 L 902.2,658.7 L 880.5,658.7 L 859.3,661.0 L 838.1,660.0 L 815.1,661.2 L 794.8,659.9 L 770.7,659.5 L 749.9,661.0 L 728.6,660.3 L 706.0,660.4 L 681.9,661.2 L 661.0,660.4 L 639.7,660.1 L 617.0,659.4 L 594.8,659.2 L 572.8,658.9 L 550.6,660.1 L 527.8,660.0 L 505.4,660.7 L 485.2,658.8 L 463.8,658.6 L 439.9,661.0 L 417.4,660.6 L 395.6,660.3 L 374.6,660.5 L 352.0,659.2 L 331.1,660.4 L 308.2,660.2 L 287.5,659.0 L 265.2,659.1 L 241.0,661.2 L 220.0,658.7 L 198.1,660.6 L 177.3,660.3 L 153.2,661.2 L 133.4,659.3 L 109.8,659.6" fill="none" stroke="#1F2937" stroke-width="1.4" stroke-linecap="round" stroke-linejoin="round"/>
  <path d="M 1190.0,660.0 L 1166.8,659.5 L 1146.8,661.2 L 1123.0,659.6 L 1100.3,660.5 L 1078.6,658.7 L 1059.1,659.6 L 1036.7,659.5 L 1012.9,661.2 L 992.1,658.7 L 969.9,658.6 L 947.2,659.7 L 924.1,660.0 L 902.4,660.2 L 882.2,660.4 L 860.7,661.5 L 836.6,658.7 L 816.5,659.5 L 793.1,661.3 L 772.5,661.4 L 749.7,659.9 L 727.8,658.7 L 703.6,660.6 L 682.9,659.9 L 660.9,658.6 L 639.8,660.5 L 617.6,658.7 L 595.4,659.9 L 572.9,659.8 L 552.2,660.1 L 528.1,660.5 L 506.4,660.9 L 483.4,660.8 L 463.8,659.3 L 441.4,660.6 L 417.9,661.4 L 397.1,659.7 L 373.7,660.1 L 352.8,660.0 L 329.7,659.2 L 307.0,659.4 L 286.1,659.8 L 264.2,659.6 L 242.0,659.3 L 219.8,660.2 L 199.6,659.6 L 175.5,661.1 L 154.9,659.6 L 131.6,659.0 L 110.1,659.9" fill="none" stroke="#1F2937" stroke-width="1.4" stroke-linecap="round" stroke-linejoin="round"/>
  <path d="M 110.0,660.0 L 110.6,643.5 L 111.3,623.7 L 110.9,607.0 L 110.6,589.9" fill="none" stroke="#1F2937" stroke-width="1.4" stroke-linecap="round" stroke-linejoin="round"/>
  <path d="M 110.0,660.0 L 110.9,642.2 L 111.0,623.9 L 108.9,607.1 L 110.0,590.1" fill="none" stroke="#1F2937" stroke-width="1.4" stroke-linecap="round" stroke-linejoin="round"/>
  <text x="140" y="615" font-family='"Caveat", "Indie Flower", "Comic Sans MS", "Marker Felt", "Bradley Hand", sans-serif' font-size="14" font-weight="700" fill="#EF4444" text-anchor="start">Do NOT:</text>
  <text x="140" y="635" font-family='"Caveat", "Indie Flower", "Comic Sans MS", "Marker Felt", "Bradley Hand", sans-serif' font-size="13" font-weight="500" fill="#1F2937" text-anchor="start">  ✕ advisory-only (no PRs)</text>
  <text x="420" y="635" font-family='"Caveat", "Indie Flower", "Comic Sans MS", "Marker Felt", "Bradley Hand", sans-serif' font-size="13" font-weight="500" fill="#1F2937" text-anchor="start">  ✕ pick the metric solo</text>
  <text x="700" y="635" font-family='"Caveat", "Indie Flower", "Comic Sans MS", "Marker Felt", "Bradley Hand", sans-serif' font-size="13" font-weight="500" fill="#1F2937" text-anchor="start">  ✕ skip the reviewer</text>
  <text x="940" y="635" font-family='"Caveat", "Indie Flower", "Comic Sans MS", "Marker Felt", "Bradley Hand", sans-serif' font-size="13" font-weight="500" fill="#1F2937" text-anchor="start">  ✕ no written debrief</text>
  </svg>
