<svg xmlns="http://www.w3.org/2000/svg" viewBox="0 0 1200 700" role="img" aria-label="Inbox triage  —  before / after">
  <rect width="1200" height="700" fill="#FFFFFF"/>
  <text x="600.0" y="48" font-family='"Caveat", "Indie Flower", "Comic Sans MS", "Marker Felt", "Bradley Hand", sans-serif' font-size="28" font-weight="700" fill="#1F2937" text-anchor="middle">Inbox triage  —  before / after</text>
  <text x="600.0" y="76" font-family='"Caveat", "Indie Flower", "Comic Sans MS", "Marker Felt", "Bradley Hand", sans-serif' font-size="15" font-weight="500" fill="#6B7280" text-anchor="middle">Same emails. Same morning. Different shape.</text>

  <text x="280" y="124" font-family='"Caveat", "Indie Flower", "Comic Sans MS", "Marker Felt", "Bradley Hand", sans-serif' font-size="20" font-weight="700" fill="#F59E0B" text-anchor="middle">BEFORE</text>
  <rect x="80.0" y="140.0" width="400.0" height="480.0" fill="#F59E0B" fill-opacity="0.05" stroke="none"/>
  <path d="M 80.0,140.0 L 103.3,139.6 L 125.5,138.7 L 145.9,140.9 L 168.5,140.9 L 192.6,140.9 L 212.0,141.4 L 234.1,141.4 L 257.8,140.2 L 280.1,138.9 L 301.3,139.4 L 323.7,140.6 L 348.1,139.8 L 367.6,141.0 L 389.9,140.4 L 412.8,139.0 L 435.0,140.7 L 456.6,139.5 L 479.8,140.4" fill="none" stroke="#1F2937" stroke-width="1.6" stroke-linecap="round" stroke-linejoin="round"/>
  <path d="M 80.0,140.0 L 101.0,140.4 L 123.2,140.4 L 147.4,139.1 L 168.9,139.5 L 191.4,138.8 L 214.8,140.2 L 235.9,139.1 L 258.6,140.3 L 281.2,140.3 L 301.7,140.2 L 323.3,138.8 L 347.8,139.9 L 368.0,139.7 L 390.3,139.4 L 413.0,139.0 L 435.3,139.0 L 458.1,140.9 L 480.0,139.3" fill="none" stroke="#1F2937" stroke-width="1.6" stroke-linecap="round" stroke-linejoin="round"/>
  <path d="M 480.0,140.0 L 479.4,162.7 L 480.9,187.2 L 479.8,207.6 L 479.2,231.8 L 480.8,254.5 L 480.6,278.6 L 479.9,299.9 L 480.3,324.0 L 481.4,346.2 L 478.7,370.1 L 479.1,391.4 L 479.2,414.6 L 478.9,437.3 L 480.8,460.3 L 479.5,481.7 L 480.3,504.8 L 480.1,528.3 L 479.0,550.4 L 480.2,573.3 L 479.1,596.0 L 480.3,620.4" fill="none" stroke="#1F2937" stroke-width="1.6" stroke-linecap="round" stroke-linejoin="round"/>
  <path d="M 480.0,140.0 L 479.1,162.4 L 481.2,187.0 L 478.7,207.6 L 479.2,230.1 L 479.6,254.0 L 481.3,276.3 L 480.6,298.8 L 480.2,322.1 L 480.2,346.9 L 478.6,368.8 L 480.9,392.6 L 481.4,414.2 L 480.6,438.6 L 479.5,459.2 L 480.3,481.9 L 481.1,506.4 L 478.9,528.3 L 479.3,551.6 L 479.6,574.0 L 479.1,597.9 L 479.8,619.9" fill="none" stroke="#1F2937" stroke-width="1.6" stroke-linecap="round" stroke-linejoin="round"/>
  <path d="M 480.0,620.0 L 457.0,621.3 L 435.4,619.6 L 413.7,619.3 L 392.5,619.4 L 368.2,620.1 L 345.2,618.6 L 323.7,619.7 L 301.7,621.0 L 280.1,620.3 L 257.4,619.6 L 236.9,620.6 L 213.3,620.2 L 191.8,619.5 L 168.5,619.7 L 145.6,619.7 L 124.7,619.2 L 100.9,619.1 L 79.7,619.3" fill="none" stroke="#1F2937" stroke-width="1.6" stroke-linecap="round" stroke-linejoin="round"/>
  <path d="M 480.0,620.0 L 458.5,621.0 L 435.9,619.0 L 412.3,620.5 L 390.1,620.7 L 370.1,619.9 L 348.1,621.1 L 323.3,620.9 L 301.9,619.0 L 279.9,618.9 L 258.0,620.3 L 235.7,620.6 L 214.8,621.0 L 189.6,619.6 L 169.6,620.2 L 145.5,618.7 L 125.4,621.4 L 102.7,619.7 L 79.3,619.7" fill="none" stroke="#1F2937" stroke-width="1.6" stroke-linecap="round" stroke-linejoin="round"/>
  <path d="M 80.0,620.0 L 80.4,595.9 L 80.5,575.1 L 80.1,549.9 L 79.5,527.8 L 80.5,504.9 L 79.9,482.1 L 80.6,461.1 L 78.5,436.6 L 79.9,415.2 L 79.8,391.0 L 79.6,369.4 L 79.8,345.8 L 79.5,323.8 L 80.9,301.4 L 79.3,278.3 L 79.9,253.4 L 80.3,230.9 L 81.3,208.2 L 79.5,184.8 L 79.0,163.9 L 80.3,139.9" fill="none" stroke="#1F2937" stroke-width="1.6" stroke-linecap="round" stroke-linejoin="round"/>
  <path d="M 80.0,620.0 L 79.5,597.6 L 79.7,575.5 L 80.8,550.2 L 80.2,529.0 L 79.1,505.3 L 78.7,482.4 L 81.1,461.5 L 79.5,438.3 L 80.8,414.9 L 79.8,391.4 L 78.5,367.8 L 80.8,345.5 L 79.3,321.6 L 79.2,300.3 L 81.3,276.2 L 80.9,253.5 L 80.6,232.0 L 80.6,207.1 L 79.9,184.6 L 80.4,162.8 L 80.1,139.9" fill="none" stroke="#1F2937" stroke-width="1.6" stroke-linecap="round" stroke-linejoin="round"/>
  <path d="M 110.0,170.0 L 132.0,170.4 L 155.5,170.1 L 176.9,169.3 L 200.6,169.7 L 221.9,169.9 L 244.9,170.2 L 267.8,169.9 L 289.4,169.7 L 312.7,169.9 L 334.7,170.7 L 357.8,170.1 L 380.0,170.2" fill="none" stroke="#6B7280" stroke-width="1.2" stroke-linecap="round" stroke-linejoin="round"/>
  <path d="M 110.0,178.0 L 133.7,178.0 L 156.8,178.4 L 180.0,178.2 L 202.9,178.4 L 226.5,178.1 L 250.5,178.5 L 273.8,178.3 L 296.7,178.4 L 319.8,177.9" fill="none" stroke="#6B7280" stroke-width="1.0" stroke-linecap="round" stroke-linejoin="round"/>
  <path d="M 110.0,198.0 L 133.2,198.5 L 154.6,197.8 L 177.7,197.2 L 200.7,197.6 L 222.9,197.6 L 244.5,197.6 L 267.6,197.6 L 290.3,198.8 L 312.5,197.5 L 335.0,197.3 L 357.0,197.8 L 380.1,198.1" fill="none" stroke="#6B7280" stroke-width="1.2" stroke-linecap="round" stroke-linejoin="round"/>
  <path d="M 110.0,206.0 L 133.2,205.8 L 156.6,205.5 L 180.2,206.2 L 203.6,205.6 L 226.5,205.8 L 249.6,206.0 L 273.8,205.9 L 297.0,206.2 L 320.1,206.0" fill="none" stroke="#6B7280" stroke-width="1.0" stroke-linecap="round" stroke-linejoin="round"/>
  <path d="M 110.0,226.0 L 133.1,225.9 L 155.5,226.0 L 177.8,225.3 L 199.2,226.7 L 222.5,225.5 L 245.7,226.6 L 267.5,225.2 L 290.2,225.4 L 312.1,225.7 L 335.1,226.5 L 357.6,225.3 L 380.2,225.6" fill="none" stroke="#6B7280" stroke-width="1.2" stroke-linecap="round" stroke-linejoin="round"/>
  <path d="M 110.0,234.0 L 133.1,234.2 L 157.0,234.1 L 179.9,233.8 L 203.8,233.7 L 226.9,233.8 L 250.1,233.9 L 273.4,234.2 L 296.3,233.8 L 319.8,234.2" fill="none" stroke="#6B7280" stroke-width="1.0" stroke-linecap="round" stroke-linejoin="round"/>
  <path d="M 110.0,254.0 L 132.7,253.9 L 154.9,254.4 L 177.6,254.5 L 200.6,253.9 L 223.1,253.6 L 245.3,254.8 L 267.2,254.0 L 290.7,254.4 L 311.8,253.4 L 334.5,253.5 L 358.1,254.3 L 380.0,254.2" fill="none" stroke="#6B7280" stroke-width="1.2" stroke-linecap="round" stroke-linejoin="round"/>
  <path d="M 110.0,262.0 L 133.4,262.2 L 156.4,262.5 L 180.3,261.8 L 203.1,262.3 L 227.1,262.5 L 250.3,262.0 L 272.9,261.5 L 296.8,261.5 L 320.1,262.1" fill="none" stroke="#6B7280" stroke-width="1.0" stroke-linecap="round" stroke-linejoin="round"/>
  <path d="M 110.0,282.0 L 132.8,281.3 L 155.8,281.5 L 176.8,282.0 L 200.8,281.9 L 222.5,282.3 L 245.7,281.6 L 267.3,281.7 L 290.0,281.6 L 312.7,282.6 L 334.5,282.3 L 357.1,281.2 L 380.3,282.0" fill="none" stroke="#6B7280" stroke-width="1.2" stroke-linecap="round" stroke-linejoin="round"/>
  <path d="M 110.0,290.0 L 133.3,289.8 L 156.8,290.0 L 180.4,289.6 L 202.9,290.4 L 226.2,289.7 L 250.2,290.4 L 273.4,290.3 L 296.4,290.4 L 320.1,290.1" fill="none" stroke="#6B7280" stroke-width="1.0" stroke-linecap="round" stroke-linejoin="round"/>
  <path d="M 110.0,310.0 L 133.3,310.0 L 155.2,309.8 L 178.1,309.5 L 199.8,310.1 L 222.7,309.2 L 245.5,310.3 L 268.0,310.1 L 290.8,309.7 L 311.8,309.7 L 335.0,310.4 L 356.8,309.2 L 379.7,310.4" fill="none" stroke="#6B7280" stroke-width="1.2" stroke-linecap="round" stroke-linejoin="round"/>
  <path d="M 110.0,318.0 L 133.7,317.8 L 156.3,318.4 L 180.0,318.2 L 203.6,318.4 L 226.3,317.7 L 249.8,318.3 L 273.5,317.8 L 296.7,318.3 L 319.9,317.8" fill="none" stroke="#6B7280" stroke-width="1.0" stroke-linecap="round" stroke-linejoin="round"/>
  <path d="M 110.0,338.0 L 132.2,337.8 L 154.9,337.5 L 178.1,338.0 L 199.9,338.8 L 222.5,338.3 L 245.5,337.2 L 267.1,338.0 L 289.7,338.4 L 311.9,338.7 L 335.0,338.3 L 356.8,338.3 L 380.3,337.9" fill="none" stroke="#6B7280" stroke-width="1.2" stroke-linecap="round" stroke-linejoin="round"/>
  <path d="M 110.0,346.0 L 133.4,345.6 L 156.5,346.5 L 179.8,346.3 L 203.4,346.3 L 227.1,345.8 L 250.2,345.7 L 273.3,346.3 L 296.5,346.5 L 320.0,346.0" fill="none" stroke="#6B7280" stroke-width="1.0" stroke-linecap="round" stroke-linejoin="round"/>
  <path d="M 110.0,366.0 L 133.0,366.0 L 154.7,366.5 L 177.4,365.2 L 200.1,366.7 L 222.9,366.4 L 244.5,365.8 L 268.2,365.3 L 289.3,365.3 L 312.6,366.4 L 334.8,366.4 L 357.7,366.1 L 380.2,365.8" fill="none" stroke="#6B7280" stroke-width="1.2" stroke-linecap="round" stroke-linejoin="round"/>
  <path d="M 110.0,374.0 L 133.0,373.5 L 156.6,373.5 L 180.4,374.3 L 203.4,374.0 L 226.5,374.4 L 249.8,373.8 L 273.7,374.0 L 297.1,374.2 L 320.1,373.9" fill="none" stroke="#6B7280" stroke-width="1.0" stroke-linecap="round" stroke-linejoin="round"/>
  <path d="M 110.0,394.0 L 132.8,394.3 L 155.4,394.7 L 176.8,393.3 L 199.2,394.6 L 223.1,393.4 L 244.8,394.7 L 267.3,393.4 L 290.4,394.5 L 313.1,393.3 L 334.4,393.9 L 357.2,393.8 L 380.3,393.9" fill="none" stroke="#6B7280" stroke-width="1.2" stroke-linecap="round" stroke-linejoin="round"/>
  <path d="M 110.0,402.0 L 133.0,402.2 L 156.7,402.0 L 180.2,401.9 L 203.0,402.3 L 226.9,402.2 L 249.6,401.8 L 273.2,401.8 L 297.1,401.6 L 319.9,402.2" fill="none" stroke="#6B7280" stroke-width="1.0" stroke-linecap="round" stroke-linejoin="round"/>
  <path d="M 110.0,422.0 L 132.8,421.3 L 154.4,421.9 L 176.8,421.4 L 199.5,422.0 L 223.2,422.7 L 245.2,422.1 L 267.2,422.1 L 290.1,422.5 L 312.7,421.2 L 334.8,422.2 L 357.9,421.5 L 379.9,422.3" fill="none" stroke="#6B7280" stroke-width="1.2" stroke-linecap="round" stroke-linejoin="round"/>
  <path d="M 110.0,430.0 L 133.4,430.3 L 156.9,429.5 L 180.3,430.5 L 203.3,430.1 L 226.4,430.0 L 249.5,430.1 L 273.0,430.3 L 296.5,430.5 L 320.0,429.9" fill="none" stroke="#6B7280" stroke-width="1.0" stroke-linecap="round" stroke-linejoin="round"/>
  <text x="280" y="470" font-family='"Caveat", "Indie Flower", "Comic Sans MS", "Marker Felt", "Bradley Hand", sans-serif' font-size="12" font-weight="500" fill="#6B7280" text-anchor="middle">...197 more unread</text>
  <path d="M 210.7,514.1 L 210.6,516.1 L 210.0,518.0 L 208.2,519.1 L 207.4,521.2 L 205.4,521.8 L 204.1,524.1 L 201.7,522.7 L 199.8,524.1 L 197.5,524.5 L 195.7,523.2 L 194.4,521.3 L 192.8,520.2 L 191.5,518.9 L 188.8,518.2 L 189.7,515.5 L 188.8,513.7 L 187.8,511.8 L 188.6,509.8 L 189.3,507.9 L 189.9,505.9 L 190.3,503.5 L 192.2,502.3 L 194.3,501.7 L 196.2,500.9 L 198.1,500.0 L 200.2,500.5 L 202.5,499.2 L 204.3,501.0 L 205.9,502.3 L 208.2,502.6 L 210.1,503.9 L 209.8,506.6 L 211.5,508.1 L 211.5,510.2 L 211.7,512.2 L 212.9,514.5" fill="none" stroke="#1F2937" stroke-width="1.6" stroke-linecap="round" stroke-linejoin="round"/>
  <path d="M 211.8,514.0 L 211.6,516.2 L 210.8,518.2 L 209.6,520.0 L 208.4,521.9 L 205.7,521.7 L 203.9,522.7 L 202.1,523.6 L 200.0,525.2 L 197.8,524.9 L 196.3,522.3 L 194.3,521.9 L 192.7,520.7 L 190.8,519.8 L 190.1,517.8 L 188.1,516.4 L 188.9,514.0 L 188.5,512.0 L 188.7,510.0 L 189.7,508.3 L 190.5,506.5 L 190.6,504.2 L 192.3,502.9 L 193.4,500.6 L 195.8,500.5 L 197.8,499.6 L 200.0,500.3 L 202.0,500.3 L 204.2,500.3 L 205.8,502.0 L 208.2,502.2 L 209.4,504.1 L 210.4,506.0 L 210.7,508.1 L 212.3,509.8 L 212.7,512.0 L 212.6,514.2" fill="none" stroke="#1F2937" stroke-width="1.6" stroke-linecap="round" stroke-linejoin="round"/>
  <path d="M 196.0,516.0 L 197.4,517.1 L 200.0,517.3 L 201.2,518.1 L 204.4,517.9" fill="none" stroke="#1F2937" stroke-width="1.2" stroke-linecap="round" stroke-linejoin="round"/>
  <path d="M 194.0,506.0 L 195.6,505.1 L 196.2,506.6 L 198.3,508.7 L 197.7,508.8" fill="none" stroke="#1F2937" stroke-width="1.2" stroke-linecap="round" stroke-linejoin="round"/>
  <path d="M 202.0,508.0 L 205.0,507.4 L 205.8,508.8 L 207.0,506.2 L 206.9,505.8" fill="none" stroke="#1F2937" stroke-width="1.2" stroke-linecap="round" stroke-linejoin="round"/>
  <path d="M 200.0,524.0 L 201.9,533.9 L 198.9,540.8 L 200.3,547.9 L 199.7,558.7" fill="none" stroke="#1F2937" stroke-width="1.6" stroke-linecap="round" stroke-linejoin="round"/>
  <path d="M 200.0,524.0 L 200.4,532.3 L 201.4,539.1 L 198.3,548.6 L 199.4,557.3" fill="none" stroke="#1F2937" stroke-width="1.6" stroke-linecap="round" stroke-linejoin="round"/>
  <path d="M 200.0,532.0 L 196.4,536.6 L 191.0,539.5 L 188.6,540.9 L 183.7,545.8" fill="none" stroke="#1F2937" stroke-width="1.6" stroke-linecap="round" stroke-linejoin="round"/>
  <path d="M 200.0,532.0 L 196.9,536.8 L 192.8,538.5 L 188.9,544.4 L 184.1,546.0" fill="none" stroke="#1F2937" stroke-width="1.6" stroke-linecap="round" stroke-linejoin="round"/>
  <path d="M 200.0,532.0 L 203.1,534.4 L 206.7,537.6 L 212.5,540.8 L 216.4,545.5" fill="none" stroke="#1F2937" stroke-width="1.6" stroke-linecap="round" stroke-linejoin="round"/>
  <path d="M 200.0,532.0 L 204.9,533.8 L 209.5,539.2 L 213.8,542.9 L 216.4,545.4" fill="none" stroke="#1F2937" stroke-width="1.6" stroke-linecap="round" stroke-linejoin="round"/>
  <path d="M 200.0,558.0 L 197.8,565.4 L 192.3,570.4 L 192.4,574.9 L 188.2,580.0" fill="none" stroke="#1F2937" stroke-width="1.6" stroke-linecap="round" stroke-linejoin="round"/>
  <path d="M 200.0,558.0 L 197.5,563.6 L 195.5,569.7 L 191.0,574.7 L 187.5,580.4" fill="none" stroke="#1F2937" stroke-width="1.6" stroke-linecap="round" stroke-linejoin="round"/>
  <path d="M 200.0,558.0 L 202.8,562.7 L 205.1,567.8 L 210.3,573.7 L 211.5,579.1" fill="none" stroke="#1F2937" stroke-width="1.6" stroke-linecap="round" stroke-linejoin="round"/>
  <path d="M 200.0,558.0 L 204.1,564.1 L 205.4,568.2 L 209.8,574.7 L 212.9,580.0" fill="none" stroke="#1F2937" stroke-width="1.6" stroke-linecap="round" stroke-linejoin="round"/>
  <path d="M 240.0,510.0 L 262.6,509.1 L 283.3,510.9 L 306.6,510.0 L 329.2,511.2 L 351.5,510.1 L 373.2,510.9 L 396.1,509.4 L 418.2,509.9 L 440.7,510.3" fill="none" stroke="#1F2937" stroke-width="1.5" stroke-linecap="round" stroke-linejoin="round"/>
  <path d="M 240.0,510.0 L 263.6,508.7 L 283.1,511.0 L 306.8,510.2 L 330.2,509.9 L 351.2,509.4 L 374.0,511.4 L 396.3,511.2 L 417.6,510.1 L 440.6,509.5" fill="none" stroke="#1F2937" stroke-width="1.5" stroke-linecap="round" stroke-linejoin="round"/>
  <path d="M 440.0,510.0 L 438.5,524.9 L 439.1,538.8 L 440.2,554.2 L 439.6,569.5" fill="none" stroke="#1F2937" stroke-width="1.5" stroke-linecap="round" stroke-linejoin="round"/>
  <path d="M 440.0,510.0 L 441.0,526.2 L 439.1,539.8 L 439.7,556.1 L 439.4,570.2" fill="none" stroke="#1F2937" stroke-width="1.5" stroke-linecap="round" stroke-linejoin="round"/>
  <path d="M 440.0,570.0 L 419.1,569.2 L 395.3,569.1 L 372.0,569.8 L 350.3,569.7 L 328.3,571.1 L 306.5,569.6 L 284.4,568.6 L 262.8,570.2 L 240.7,569.9" fill="none" stroke="#1F2937" stroke-width="1.5" stroke-linecap="round" stroke-linejoin="round"/>
  <path d="M 440.0,570.0 L 417.0,569.9 L 395.0,570.8 L 373.4,570.7 L 351.3,569.4 L 330.1,569.5 L 305.3,570.1 L 285.3,569.5 L 261.4,571.2 L 240.6,570.2" fill="none" stroke="#1F2937" stroke-width="1.5" stroke-linecap="round" stroke-linejoin="round"/>
  <path d="M 240.0,570.0 L 239.1,556.0 L 240.2,540.7 L 239.3,526.2 L 240.4,510.7" fill="none" stroke="#1F2937" stroke-width="1.5" stroke-linecap="round" stroke-linejoin="round"/>
  <path d="M 240.0,570.0 L 239.3,555.3 L 240.9,540.4 L 239.7,526.2 L 239.9,509.6" fill="none" stroke="#1F2937" stroke-width="1.5" stroke-linecap="round" stroke-linejoin="round"/>
  <text x="250" y="530" font-family='"Caveat", "Indie Flower", "Comic Sans MS", "Marker Felt", "Bradley Hand", sans-serif' font-size="13" font-weight="500" fill="#1F2937" text-anchor="start">"where do I even start"</text>
  <path d="M 490.0,380.0 L 512.5,379.8 L 532.8,379.6 L 554.4,379.0 L 579.2,381.0 L 600.0,381.9 L 623.9,378.4 L 644.6,381.3 L 665.2,379.7 L 689.5,380.9 L 709.9,379.6" fill="none" stroke="#1F2937" stroke-width="2.4" stroke-linecap="round" stroke-linejoin="round"/>
  <path d="M 490.0,380.0 L 513.7,381.0 L 533.6,380.1 L 557.8,381.0 L 578.5,379.8 L 598.5,379.5 L 623.9,381.6 L 642.8,378.2 L 667.5,379.3 L 689.5,380.4 L 709.1,379.5" fill="none" stroke="#1F2937" stroke-width="2.4" stroke-linecap="round" stroke-linejoin="round"/>
  <path d="M 710.0,380.0 L 706.0,382.4 L 702.2,384.5 L 698.4,385.3 L 693.5,387.6" fill="none" stroke="#1F2937" stroke-width="2.4" stroke-linecap="round" stroke-linejoin="round"/>
  <path d="M 710.0,380.0 L 706.4,378.6 L 701.1,375.9 L 697.5,373.9 L 693.4,372.4" fill="none" stroke="#1F2937" stroke-width="2.4" stroke-linecap="round" stroke-linejoin="round"/>
  <text x="600" y="348" font-family='"Caveat", "Indie Flower", "Comic Sans MS", "Marker Felt", "Bradley Hand", sans-serif' font-size="14" font-weight="600" fill="#1F2937" text-anchor="middle">daily triage prompt</text>
  <text x="600" y="368" font-family='"Caveat", "Indie Flower", "Comic Sans MS", "Marker Felt", "Bradley Hand", sans-serif' font-size="13" font-weight="500" fill="#6B7280" text-anchor="middle">+ connector</text>
  <text x="600" y="408" font-family='"Caveat", "Indie Flower", "Comic Sans MS", "Marker Felt", "Bradley Hand", sans-serif' font-size="12" font-weight="500" fill="#6B7280" text-anchor="middle">(runs at 7:30am)</text>
  <text x="900" y="124" font-family='"Caveat", "Indie Flower", "Comic Sans MS", "Marker Felt", "Bradley Hand", sans-serif' font-size="20" font-weight="700" fill="#10B981" text-anchor="middle">AFTER</text>
  <rect x="720.0" y="140.0" width="400.0" height="480.0" fill="#10B981" fill-opacity="0.05" stroke="none"/>
  <path d="M 720.0,140.0 L 743.2,140.1 L 765.5,141.1 L 785.8,140.2 L 809.8,140.9 L 830.1,138.8 L 853.3,138.9 L 875.4,140.2 L 897.8,139.1 L 918.7,140.0 L 943.1,139.7 L 963.2,140.5 L 985.9,140.7 L 1009.7,140.4 L 1032.1,139.3 L 1053.7,139.3 L 1074.6,138.6 L 1097.1,140.3 L 1120.3,139.7" fill="none" stroke="#1F2937" stroke-width="1.6" stroke-linecap="round" stroke-linejoin="round"/>
  <path d="M 720.0,140.0 L 741.4,138.7 L 765.0,141.2 L 785.2,141.1 L 807.9,139.2 L 830.8,141.3 L 853.2,140.6 L 875.4,140.5 L 897.5,139.3 L 919.5,138.6 L 942.5,140.5 L 965.0,138.8 L 985.3,140.7 L 1009.3,139.9 L 1032.5,138.6 L 1052.7,138.5 L 1074.8,141.0 L 1098.5,138.8 L 1120.2,139.5" fill="none" stroke="#1F2937" stroke-width="1.6" stroke-linecap="round" stroke-linejoin="round"/>
  <path d="M 1120.0,140.0 L 1119.5,164.2 L 1118.9,185.8 L 1118.6,208.8 L 1120.8,231.5 L 1121.4,255.6 L 1118.7,278.0 L 1118.7,300.8 L 1118.7,321.7 L 1121.5,346.2 L 1121.4,368.1 L 1119.7,392.1 L 1120.8,415.4 L 1121.0,437.3 L 1119.8,460.2 L 1118.8,483.7 L 1119.3,504.3 L 1120.1,527.9 L 1120.7,552.9 L 1119.2,575.1 L 1119.9,598.4 L 1119.6,620.3" fill="none" stroke="#1F2937" stroke-width="1.6" stroke-linecap="round" stroke-linejoin="round"/>
  <path d="M 1120.0,140.0 L 1120.6,163.2 L 1118.6,184.7 L 1119.4,207.2 L 1120.9,231.0 L 1121.2,253.2 L 1120.9,276.6 L 1121.4,298.6 L 1119.2,324.3 L 1119.9,347.0 L 1118.5,369.0 L 1119.0,392.1 L 1119.7,414.6 L 1119.6,435.9 L 1120.1,458.6 L 1119.8,483.6 L 1118.7,507.2 L 1119.5,527.4 L 1120.7,551.0 L 1118.8,573.4 L 1119.9,598.5 L 1120.7,619.5" fill="none" stroke="#1F2937" stroke-width="1.6" stroke-linecap="round" stroke-linejoin="round"/>
  <path d="M 1120.0,620.0 L 1098.9,619.8 L 1074.2,621.4 L 1052.9,620.5 L 1031.2,618.9 L 1009.4,619.6 L 986.5,619.1 L 964.6,620.2 L 943.7,620.2 L 920.6,620.5 L 897.4,621.1 L 875.3,620.2 L 853.2,620.1 L 832.1,620.0 L 807.6,620.7 L 786.7,620.7 L 764.0,621.4 L 741.8,620.4 L 720.0,620.5" fill="none" stroke="#1F2937" stroke-width="1.6" stroke-linecap="round" stroke-linejoin="round"/>
  <path d="M 1120.0,620.0 L 1097.5,621.3 L 1076.8,619.6 L 1053.7,619.0 L 1032.4,621.1 L 1007.8,618.8 L 985.9,620.8 L 965.0,618.6 L 942.6,621.3 L 920.7,620.5 L 897.7,618.5 L 876.3,621.1 L 854.0,618.9 L 830.3,621.3 L 809.5,619.7 L 787.0,619.6 L 765.4,619.9 L 741.0,618.7 L 720.7,620.3" fill="none" stroke="#1F2937" stroke-width="1.6" stroke-linecap="round" stroke-linejoin="round"/>
  <path d="M 720.0,620.0 L 720.8,596.0 L 720.3,573.8 L 720.0,550.4 L 720.0,527.8 L 720.9,506.0 L 721.2,483.7 L 718.8,459.3 L 718.8,435.7 L 720.6,414.0 L 719.9,392.3 L 721.0,368.1 L 719.7,346.6 L 720.2,322.4 L 720.8,300.8 L 720.9,277.3 L 720.4,255.7 L 719.8,231.3 L 719.3,209.8 L 719.1,186.5 L 719.0,161.7 L 720.4,140.5" fill="none" stroke="#1F2937" stroke-width="1.6" stroke-linecap="round" stroke-linejoin="round"/>
  <path d="M 720.0,620.0 L 719.1,597.8 L 721.2,573.2 L 721.0,552.8 L 721.2,528.3 L 719.6,506.4 L 720.2,482.5 L 720.4,461.2 L 720.6,436.1 L 720.1,414.2 L 720.0,391.9 L 720.3,369.0 L 718.7,344.4 L 718.8,324.0 L 720.6,299.5 L 720.9,276.9 L 719.0,252.9 L 720.3,232.4 L 721.0,207.8 L 719.6,185.0 L 721.3,162.5 L 720.5,139.9" fill="none" stroke="#1F2937" stroke-width="1.6" stroke-linecap="round" stroke-linejoin="round"/>
  <rect x="750.0" y="170.0" width="340.0" height="64.0" fill="#10B981" fill-opacity="0.08" stroke="none"/>
  <path d="M 750.0,170.0 L 773.8,170.7 L 795.4,169.9 L 819.1,169.6 L 839.5,169.2 L 861.9,169.0 L 886.4,170.6 L 909.4,169.7 L 931.4,171.1 L 955.2,169.1 L 976.5,169.4 L 999.3,169.2 L 1020.6,169.6 L 1044.2,169.1 L 1065.9,170.3 L 1090.3,169.9" fill="none" stroke="#1F2937" stroke-width="1.6" stroke-linecap="round" stroke-linejoin="round"/>
  <path d="M 750.0,170.0 L 773.3,170.1 L 794.1,168.5 L 819.4,171.0 L 839.6,169.4 L 862.9,170.7 L 885.7,169.6 L 909.1,169.8 L 930.8,170.0 L 953.7,170.9 L 977.1,171.1 L 999.6,171.1 L 1022.4,170.7 L 1044.9,170.8 L 1066.2,170.7 L 1089.7,170.0" fill="none" stroke="#1F2937" stroke-width="1.6" stroke-linecap="round" stroke-linejoin="round"/>
  <path d="M 1090.0,170.0 L 1088.9,184.9 L 1089.6,201.1 L 1088.6,219.4 L 1090.1,233.8" fill="none" stroke="#1F2937" stroke-width="1.6" stroke-linecap="round" stroke-linejoin="round"/>
  <path d="M 1090.0,170.0 L 1090.8,187.5 L 1089.1,200.7 L 1091.4,217.5 L 1090.2,233.5" fill="none" stroke="#1F2937" stroke-width="1.6" stroke-linecap="round" stroke-linejoin="round"/>
  <path d="M 1090.0,234.0 L 1067.0,233.1 L 1044.9,234.2 L 1020.6,235.2 L 1000.1,232.5 L 975.5,233.4 L 954.6,234.2 L 932.1,233.8 L 907.5,235.0 L 885.2,233.7 L 863.5,234.1 L 841.7,235.3 L 818.6,232.7 L 794.9,233.5 L 772.1,232.7 L 750.6,234.4" fill="none" stroke="#1F2937" stroke-width="1.6" stroke-linecap="round" stroke-linejoin="round"/>
  <path d="M 1090.0,234.0 L 1066.8,232.9 L 1046.2,233.4 L 1023.3,233.3 L 1000.0,234.9 L 977.4,232.6 L 955.3,235.0 L 931.1,232.6 L 907.4,234.6 L 884.7,234.2 L 862.6,235.4 L 841.7,235.5 L 818.5,234.8 L 796.0,233.8 L 773.9,233.5 L 749.8,233.7" fill="none" stroke="#1F2937" stroke-width="1.6" stroke-linecap="round" stroke-linejoin="round"/>
  <path d="M 750.0,234.0 L 748.7,216.8 L 749.0,203.4 L 748.6,186.7 L 749.5,169.4" fill="none" stroke="#1F2937" stroke-width="1.6" stroke-linecap="round" stroke-linejoin="round"/>
  <path d="M 750.0,234.0 L 750.4,219.2 L 750.6,201.8 L 750.2,184.9 L 750.4,169.9" fill="none" stroke="#1F2937" stroke-width="1.6" stroke-linecap="round" stroke-linejoin="round"/>
  <text x="770" y="195" font-family='"Caveat", "Indie Flower", "Comic Sans MS", "Marker Felt", "Bradley Hand", sans-serif' font-size="14" font-weight="700" fill="#10B981" text-anchor="start">ACTS_ON_ME</text>
  <text x="770" y="218" font-family='"Caveat", "Indie Flower", "Comic Sans MS", "Marker Felt", "Bradley Hand", sans-serif' font-size="12" font-weight="500" fill="#1F2937" text-anchor="start">4 items — read these first</text>
  <rect x="750.0" y="248.0" width="340.0" height="64.0" fill="#1F2937" fill-opacity="0.08" stroke="none"/>
  <path d="M 750.0,248.0 L 772.1,247.3 L 794.8,246.6 L 818.7,246.7 L 839.7,249.4 L 864.0,247.7 L 886.7,248.4 L 908.6,247.6 L 930.2,246.7 L 954.0,247.9 L 977.9,248.0 L 999.7,248.5 L 1023.4,247.0 L 1043.5,247.2 L 1068.6,247.9 L 1090.7,247.9" fill="none" stroke="#1F2937" stroke-width="1.6" stroke-linecap="round" stroke-linejoin="round"/>
  <path d="M 750.0,248.0 L 772.3,247.4 L 794.8,246.7 L 818.4,249.4 L 839.3,246.6 L 864.0,247.4 L 887.4,248.5 L 908.5,247.2 L 930.7,248.7 L 953.5,248.8 L 977.4,248.7 L 1000.5,246.9 L 1022.4,248.8 L 1043.8,246.8 L 1065.9,248.0 L 1090.1,247.9" fill="none" stroke="#1F2937" stroke-width="1.6" stroke-linecap="round" stroke-linejoin="round"/>
  <path d="M 1090.0,248.0 L 1090.8,264.9 L 1089.4,280.0 L 1091.4,296.7 L 1090.0,311.7" fill="none" stroke="#1F2937" stroke-width="1.6" stroke-linecap="round" stroke-linejoin="round"/>
  <path d="M 1090.0,248.0 L 1088.7,265.4 L 1091.1,280.5 L 1090.1,297.0 L 1089.5,311.9" fill="none" stroke="#1F2937" stroke-width="1.6" stroke-linecap="round" stroke-linejoin="round"/>
  <path d="M 1090.0,312.0 L 1066.7,313.4 L 1043.4,313.5 L 1022.6,311.0 L 997.9,312.2 L 977.2,312.5 L 954.2,313.3 L 932.6,310.6 L 908.6,313.0 L 885.7,310.8 L 863.1,311.8 L 840.4,310.6 L 817.7,312.4 L 794.9,312.5 L 772.1,311.2 L 749.6,311.7" fill="none" stroke="#1F2937" stroke-width="1.6" stroke-linecap="round" stroke-linejoin="round"/>
  <path d="M 1090.0,312.0 L 1068.2,311.3 L 1045.1,311.5 L 1021.8,311.1 L 999.0,310.7 L 975.7,313.0 L 953.2,311.8 L 931.9,312.2 L 909.4,310.5 L 885.8,312.4 L 864.3,311.8 L 841.4,312.1 L 819.3,310.7 L 796.6,311.7 L 772.0,311.4 L 749.4,312.7" fill="none" stroke="#1F2937" stroke-width="1.6" stroke-linecap="round" stroke-linejoin="round"/>
  <path d="M 750.0,312.0 L 749.3,295.4 L 749.2,280.3 L 750.7,262.7 L 750.4,248.3" fill="none" stroke="#1F2937" stroke-width="1.6" stroke-linecap="round" stroke-linejoin="round"/>
  <path d="M 750.0,312.0 L 748.9,297.5 L 748.8,280.9 L 750.6,262.8 L 749.3,247.6" fill="none" stroke="#1F2937" stroke-width="1.6" stroke-linecap="round" stroke-linejoin="round"/>
  <text x="770" y="273" font-family='"Caveat", "Indie Flower", "Comic Sans MS", "Marker Felt", "Bradley Hand", sans-serif' font-size="14" font-weight="700" fill="#1F2937" text-anchor="start">FYI</text>
  <text x="770" y="296" font-family='"Caveat", "Indie Flower", "Comic Sans MS", "Marker Felt", "Bradley Hand", sans-serif' font-size="12" font-weight="500" fill="#1F2937" text-anchor="start">12 items — batch later</text>
  <rect x="750.0" y="326.0" width="340.0" height="64.0" fill="#F59E0B" fill-opacity="0.08" stroke="none"/>
  <path d="M 750.0,326.0 L 771.3,325.2 L 794.9,325.0 L 817.2,325.6 L 840.6,324.7 L 863.0,324.7 L 885.0,324.8 L 908.8,326.4 L 930.6,327.3 L 955.4,324.8 L 977.2,326.1 L 1000.6,324.5 L 1022.8,327.3 L 1045.3,325.3 L 1067.0,326.6 L 1089.9,326.7" fill="none" stroke="#1F2937" stroke-width="1.6" stroke-linecap="round" stroke-linejoin="round"/>
  <path d="M 750.0,326.0 L 771.5,326.8 L 794.8,327.4 L 816.9,324.7 L 842.1,326.6 L 862.9,326.5 L 884.7,325.1 L 907.4,327.4 L 931.2,325.6 L 953.8,325.8 L 977.7,326.4 L 998.6,327.1 L 1022.5,327.0 L 1045.5,327.0 L 1066.4,327.0 L 1090.2,326.0" fill="none" stroke="#1F2937" stroke-width="1.6" stroke-linecap="round" stroke-linejoin="round"/>
  <path d="M 1090.0,326.0 L 1091.5,341.5 L 1091.0,359.0 L 1089.8,374.0 L 1090.1,390.5" fill="none" stroke="#1F2937" stroke-width="1.6" stroke-linecap="round" stroke-linejoin="round"/>
  <path d="M 1090.0,326.0 L 1088.7,341.0 L 1089.7,356.9 L 1090.6,374.7 L 1089.6,389.4" fill="none" stroke="#1F2937" stroke-width="1.6" stroke-linecap="round" stroke-linejoin="round"/>
  <path d="M 1090.0,390.0 L 1066.7,391.4 L 1043.9,388.7 L 1022.4,389.6 L 998.7,390.3 L 977.3,389.5 L 955.3,389.7 L 931.5,390.5 L 909.9,389.6 L 884.9,391.4 L 862.5,390.5 L 839.3,390.8 L 818.2,391.5 L 795.6,388.8 L 774.0,390.4 L 750.5,390.4" fill="none" stroke="#1F2937" stroke-width="1.6" stroke-linecap="round" stroke-linejoin="round"/>
  <path d="M 1090.0,390.0 L 1065.9,389.7 L 1045.2,388.5 L 1022.9,389.0 L 999.7,390.2 L 976.5,388.8 L 953.1,388.9 L 932.2,389.9 L 909.4,389.8 L 885.7,390.7 L 862.9,391.1 L 839.7,390.9 L 818.6,389.8 L 794.4,388.7 L 772.8,390.4 L 749.6,389.8" fill="none" stroke="#1F2937" stroke-width="1.6" stroke-linecap="round" stroke-linejoin="round"/>
  <path d="M 750.0,390.0 L 750.5,373.3 L 750.7,358.7 L 749.7,341.5 L 750.3,326.2" fill="none" stroke="#1F2937" stroke-width="1.6" stroke-linecap="round" stroke-linejoin="round"/>
  <path d="M 750.0,390.0 L 749.7,374.4 L 748.6,356.6 L 749.0,343.3 L 750.4,325.9" fill="none" stroke="#1F2937" stroke-width="1.6" stroke-linecap="round" stroke-linejoin="round"/>
  <text x="770" y="351" font-family='"Caveat", "Indie Flower", "Comic Sans MS", "Marker Felt", "Bradley Hand", sans-serif' font-size="14" font-weight="700" fill="#F59E0B" text-anchor="start">ROUTES</text>
  <text x="770" y="374" font-family='"Caveat", "Indie Flower", "Comic Sans MS", "Marker Felt", "Bradley Hand", sans-serif' font-size="12" font-weight="500" fill="#1F2937" text-anchor="start">6 items — forward + go</text>
  <rect x="750.0" y="404.0" width="340.0" height="64.0" fill="#6B7280" fill-opacity="0.08" stroke="none"/>
  <path d="M 750.0,404.0 L 772.6,404.5 L 795.4,403.0 L 816.9,402.8 L 841.1,403.4 L 862.5,405.3 L 887.0,404.8 L 907.7,405.3 L 931.7,404.3 L 955.1,403.0 L 977.7,405.3 L 999.2,403.1 L 1020.8,402.5 L 1045.8,403.3 L 1066.9,404.4 L 1090.1,404.0" fill="none" stroke="#1F2937" stroke-width="1.6" stroke-linecap="round" stroke-linejoin="round"/>
  <path d="M 750.0,404.0 L 773.7,403.7 L 795.4,405.5 L 817.1,404.9 L 840.6,403.6 L 862.8,404.0 L 884.6,405.3 L 908.0,402.9 L 931.1,403.3 L 953.4,405.5 L 977.7,403.6 L 1000.6,404.8 L 1021.4,405.4 L 1044.5,402.9 L 1068.8,405.0 L 1089.5,403.8" fill="none" stroke="#1F2937" stroke-width="1.6" stroke-linecap="round" stroke-linejoin="round"/>
  <path d="M 1090.0,404.0 L 1089.1,421.2 L 1089.4,437.3 L 1090.6,451.4 L 1089.6,468.7" fill="none" stroke="#1F2937" stroke-width="1.6" stroke-linecap="round" stroke-linejoin="round"/>
  <path d="M 1090.0,404.0 L 1090.0,420.5 L 1089.2,436.2 L 1090.2,452.1 L 1090.2,467.9" fill="none" stroke="#1F2937" stroke-width="1.6" stroke-linecap="round" stroke-linejoin="round"/>
  <path d="M 1090.0,468.0 L 1066.9,468.4 L 1044.1,468.2 L 1023.3,469.5 L 1000.3,468.6 L 978.1,467.8 L 953.4,468.4 L 930.0,469.5 L 907.5,468.1 L 885.1,466.9 L 864.1,466.5 L 841.3,467.5 L 818.6,469.5 L 794.8,469.3 L 771.5,467.2 L 750.5,468.6" fill="none" stroke="#1F2937" stroke-width="1.6" stroke-linecap="round" stroke-linejoin="round"/>
  <path d="M 1090.0,468.0 L 1066.0,469.0 L 1045.3,468.8 L 1022.8,469.3 L 998.7,468.3 L 977.1,466.9 L 954.7,469.1 L 930.1,469.1 L 908.1,469.0 L 885.4,466.8 L 864.8,467.6 L 840.9,469.3 L 819.1,467.6 L 795.7,468.9 L 774.1,467.3 L 750.4,468.4" fill="none" stroke="#1F2937" stroke-width="1.6" stroke-linecap="round" stroke-linejoin="round"/>
  <path d="M 750.0,468.0 L 751.0,450.7 L 750.9,434.9 L 751.2,419.5 L 749.5,403.4" fill="none" stroke="#1F2937" stroke-width="1.6" stroke-linecap="round" stroke-linejoin="round"/>
  <path d="M 750.0,468.0 L 751.2,451.5 L 751.3,436.5 L 750.1,419.4 L 750.5,403.7" fill="none" stroke="#1F2937" stroke-width="1.6" stroke-linecap="round" stroke-linejoin="round"/>
  <text x="770" y="429" font-family='"Caveat", "Indie Flower", "Comic Sans MS", "Marker Felt", "Bradley Hand", sans-serif' font-size="14" font-weight="700" fill="#6B7280" text-anchor="start">AUTO_ARCHIVE</text>
  <text x="770" y="452" font-family='"Caveat", "Indie Flower", "Comic Sans MS", "Marker Felt", "Bradley Hand", sans-serif' font-size="12" font-weight="500" fill="#1F2937" text-anchor="start">175 items — already gone</text>
  <path d="M 1052.3,514.7 L 1050.6,516.4 L 1049.3,518.0 L 1048.1,519.4 L 1047.2,521.4 L 1045.1,521.7 L 1043.8,524.0 L 1041.7,524.6 L 1039.4,525.0 L 1037.3,524.3 L 1035.0,524.1 L 1033.3,522.5 L 1031.2,521.6 L 1030.4,519.4 L 1029.0,517.7 L 1029.5,515.3 L 1028.1,513.6 L 1029.1,511.5 L 1029.2,509.6 L 1028.5,507.2 L 1029.9,505.6 L 1031.3,504.1 L 1032.4,502.1 L 1034.4,501.3 L 1036.2,499.9 L 1038.3,499.4 L 1040.5,500.8 L 1042.5,500.5 L 1044.2,501.8 L 1047.0,501.0 L 1048.9,502.3 L 1050.1,504.2 L 1049.7,506.9 L 1052.5,508.1 L 1052.9,510.3 L 1052.4,512.5 L 1051.4,514.5" fill="none" stroke="#1F2937" stroke-width="1.6" stroke-linecap="round" stroke-linejoin="round"/>
  <path d="M 1050.9,513.1 L 1051.5,515.3 L 1050.0,516.8 L 1049.9,519.2 L 1048.8,521.0 L 1046.5,521.5 L 1045.2,523.6 L 1042.7,522.5 L 1040.9,525.0 L 1038.7,524.5 L 1036.7,523.5 L 1034.5,523.3 L 1032.4,522.5 L 1031.1,520.6 L 1030.5,518.5 L 1028.6,517.1 L 1028.2,515.0 L 1028.7,512.8 L 1027.5,510.7 L 1029.3,509.0 L 1029.5,506.9 L 1030.3,505.0 L 1031.1,502.8 L 1033.1,501.8 L 1035.0,500.7 L 1037.3,501.4 L 1039.2,500.7 L 1041.2,500.8 L 1043.5,499.6 L 1045.7,500.2 L 1047.7,501.4 L 1048.0,504.2 L 1050.1,505.1 L 1050.5,507.3 L 1051.9,509.0 L 1052.6,511.1 L 1052.0,513.2" fill="none" stroke="#1F2937" stroke-width="1.6" stroke-linecap="round" stroke-linejoin="round"/>
  <path d="M 1036.0,515.0 L 1036.5,515.0 L 1040.8,515.3 L 1040.1,513.2 L 1044.1,514.7" fill="none" stroke="#1F2937" stroke-width="1.2" stroke-linecap="round" stroke-linejoin="round"/>
  <path d="M 1040.0,524.0 L 1041.1,534.0 L 1040.5,539.9 L 1041.4,547.6 L 1040.4,557.3" fill="none" stroke="#1F2937" stroke-width="1.6" stroke-linecap="round" stroke-linejoin="round"/>
  <path d="M 1040.0,524.0 L 1038.4,533.8 L 1040.5,542.6 L 1040.7,550.5 L 1040.0,558.7" fill="none" stroke="#1F2937" stroke-width="1.6" stroke-linecap="round" stroke-linejoin="round"/>
  <path d="M 1040.0,532.0 L 1037.1,535.5 L 1033.2,540.6 L 1026.2,544.4 L 1024.7,545.1" fill="none" stroke="#1F2937" stroke-width="1.6" stroke-linecap="round" stroke-linejoin="round"/>
  <path d="M 1040.0,532.0 L 1036.9,534.5 L 1032.2,539.0 L 1026.1,543.6 L 1024.3,546.1" fill="none" stroke="#1F2937" stroke-width="1.6" stroke-linecap="round" stroke-linejoin="round"/>
  <path d="M 1040.0,532.0 L 1044.4,536.4 L 1047.0,537.6 L 1051.2,541.6 L 1055.7,545.6" fill="none" stroke="#1F2937" stroke-width="1.6" stroke-linecap="round" stroke-linejoin="round"/>
  <path d="M 1040.0,532.0 L 1042.2,536.1 L 1049.4,540.0 L 1051.6,542.1 L 1055.1,546.9" fill="none" stroke="#1F2937" stroke-width="1.6" stroke-linecap="round" stroke-linejoin="round"/>
  <path d="M 1040.0,558.0 L 1035.6,563.6 L 1034.2,569.9 L 1031.7,572.9 L 1029.0,579.9" fill="none" stroke="#1F2937" stroke-width="1.6" stroke-linecap="round" stroke-linejoin="round"/>
  <path d="M 1040.0,558.0 L 1035.9,561.6 L 1035.7,567.6 L 1029.9,576.1 L 1027.8,579.3" fill="none" stroke="#1F2937" stroke-width="1.6" stroke-linecap="round" stroke-linejoin="round"/>
  <path d="M 1040.0,558.0 L 1042.5,562.2 L 1046.2,569.3 L 1050.3,574.2 L 1052.1,581.0" fill="none" stroke="#1F2937" stroke-width="1.6" stroke-linecap="round" stroke-linejoin="round"/>
  <path d="M 1040.0,558.0 L 1043.8,562.9 L 1047.9,569.6 L 1048.5,575.7 L 1052.1,579.2" fill="none" stroke="#1F2937" stroke-width="1.6" stroke-linecap="round" stroke-linejoin="round"/>
  <path d="M 760.0,510.0 L 782.9,510.3 L 808.3,509.2 L 831.4,510.9 L 856.1,508.5 L 879.1,511.4 L 903.9,509.9 L 927.5,510.4 L 951.5,511.1 L 975.6,510.3 L 1000.6,510.2" fill="none" stroke="#1F2937" stroke-width="1.5" stroke-linecap="round" stroke-linejoin="round"/>
  <path d="M 760.0,510.0 L 783.4,510.5 L 808.1,510.3 L 831.8,508.7 L 854.8,509.4 L 880.1,509.4 L 903.2,511.0 L 928.2,510.5 L 951.2,508.9 L 976.6,510.2 L 1000.1,510.5" fill="none" stroke="#1F2937" stroke-width="1.5" stroke-linecap="round" stroke-linejoin="round"/>
  <path d="M 1000.0,510.0 L 1000.1,524.7 L 999.2,541.1 L 1000.6,555.7 L 1000.6,569.9" fill="none" stroke="#1F2937" stroke-width="1.5" stroke-linecap="round" stroke-linejoin="round"/>
  <path d="M 1000.0,510.0 L 999.5,523.8 L 1000.7,540.8 L 998.6,554.7 L 1000.2,569.7" fill="none" stroke="#1F2937" stroke-width="1.5" stroke-linecap="round" stroke-linejoin="round"/>
  <path d="M 1000.0,570.0 L 975.2,568.8 L 952.4,570.6 L 927.7,571.2 L 904.2,569.3 L 880.4,570.6 L 854.6,569.5 L 830.5,570.7 L 806.9,569.4 L 785.3,569.6 L 760.7,569.7" fill="none" stroke="#1F2937" stroke-width="1.5" stroke-linecap="round" stroke-linejoin="round"/>
  <path d="M 1000.0,570.0 L 976.5,570.2 L 951.0,570.0 L 927.2,570.4 L 905.5,571.0 L 880.5,571.3 L 856.6,569.8 L 831.2,569.6 L 807.3,571.1 L 784.8,570.5 L 759.7,570.3" fill="none" stroke="#1F2937" stroke-width="1.5" stroke-linecap="round" stroke-linejoin="round"/>
  <path d="M 760.0,570.0 L 759.7,553.9 L 760.8,541.1 L 759.3,526.3 L 760.4,509.4" fill="none" stroke="#1F2937" stroke-width="1.5" stroke-linecap="round" stroke-linejoin="round"/>
  <path d="M 760.0,570.0 L 759.2,556.4 L 759.2,540.7 L 759.8,524.5 L 760.5,509.4" fill="none" stroke="#1F2937" stroke-width="1.5" stroke-linecap="round" stroke-linejoin="round"/>
  <text x="770" y="530" font-family='"Caveat", "Indie Flower", "Comic Sans MS", "Marker Felt", "Bradley Hand", sans-serif' font-size="13" font-weight="500" fill="#1F2937" text-anchor="start">"15 minutes for the four"</text>
  <text x="600" y="670" font-family='"Caveat", "Indie Flower", "Comic Sans MS", "Marker Felt", "Bradley Hand", sans-serif' font-size="16" font-weight="600" fill="#1F2937" text-anchor="middle">≈ 15 minutes saved per workday — the cost of a triage agent that runs while you sleep.</text>
  </svg>
